<svg xmlns="http://www.w3.org/2000/svg" xmlns:xlink="http://www.w3.org/1999/xlink" width="1080" zoomAndPan="magnify" viewBox="0 0 810 1878.749922" height="2505" preserveAspectRatio="xMidYMid meet" version="1.0"><defs><g/><clipPath id="id1"><path d="M 0.0546875 0 L 809.945312 0 L 809.945312 120 L 0.0546875 120 Z M 0.0546875 0 " clip-rule="nonzero"/></clipPath><clipPath id="id2"><path d="M 0.0546875 140 L 809.945312 140 L 809.945312 1878.5 L 0.0546875 1878.5 Z M 0.0546875 140 " clip-rule="nonzero"/></clipPath></defs><g clip-path="url(#id1)"><path fill="#0a172b" d="M 0.0546875 0 L 280.292969 0 L 280.292969 119.234375 L 0.0546875 119.234375 Z M 301.886719 0 L 809.945312 0 L 809.945312 119.234375 L 301.886719 119.234375 Z M 301.886719 0 " fill-opacity="1" fill-rule="nonzero"/></g><g clip-path="url(#id2)"><path fill="#e3e8ff" d="M 0.0546875 140.828125 L 280.292969 140.828125 L 280.292969 260.0625 L 0.0546875 260.0625 Z M 301.886719 140.828125 L 809.945312 140.828125 L 809.945312 260.0625 L 301.886719 260.0625 Z M 0.0546875 281.65625 L 280.292969 281.65625 L 280.292969 396.425781 L 0.0546875 396.425781 Z M 301.886719 281.65625 L 809.945312 281.65625 L 809.945312 396.425781 L 301.886719 396.425781 Z M 0.0546875 418.015625 L 280.292969 418.015625 L 280.292969 532.785156 L 0.0546875 532.785156 Z M 301.886719 418.015625 L 809.945312 418.015625 L 809.945312 532.785156 L 301.886719 532.785156 Z M 0.0546875 554.378906 L 280.292969 554.378906 L 280.292969 669.148438 L 0.0546875 669.148438 Z M 301.886719 554.378906 L 809.945312 554.378906 L 809.945312 669.148438 L 301.886719 669.148438 Z M 0.0546875 690.742188 L 280.292969 690.742188 L 280.292969 805.511719 L 0.0546875 805.511719 Z M 301.886719 690.742188 L 809.945312 690.742188 L 809.945312 805.511719 L 301.886719 805.511719 Z M 0.0546875 827.105469 L 280.292969 827.105469 L 280.292969 941.871094 L 0.0546875 941.871094 Z M 301.886719 827.105469 L 809.945312 827.105469 L 809.945312 941.871094 L 301.886719 941.871094 Z M 0.0546875 963.464844 L 280.292969 963.464844 L 280.292969 1078.234375 L 0.0546875 1078.234375 Z M 301.886719 963.464844 L 809.945312 963.464844 L 809.945312 1078.234375 L 301.886719 1078.234375 Z M 0.0546875 1099.828125 L 280.292969 1099.828125 L 280.292969 1214.597656 L 0.0546875 1214.597656 Z M 301.886719 1099.828125 L 809.945312 1099.828125 L 809.945312 1214.597656 L 301.886719 1214.597656 Z M 0.0546875 1236.191406 L 280.292969 1236.191406 L 280.292969 1350.960938 L 0.0546875 1350.960938 Z M 301.886719 1236.191406 L 809.945312 1236.191406 L 809.945312 1350.960938 L 301.886719 1350.960938 Z M 0.0546875 1372.550781 L 280.292969 1372.550781 L 280.292969 1487.320312 L 0.0546875 1487.320312 Z M 301.886719 1372.550781 L 809.945312 1372.550781 L 809.945312 1487.320312 L 301.886719 1487.320312 Z M 0.0546875 1508.914062 L 280.292969 1508.914062 L 280.292969 1623.683594 L 0.0546875 1623.683594 Z M 301.886719 1508.914062 L 809.945312 1508.914062 L 809.945312 1623.683594 L 301.886719 1623.683594 Z M 0.0546875 1645.277344 L 280.292969 1645.277344 L 280.292969 1760.046875 L 0.0546875 1760.046875 Z M 301.886719 1645.277344 L 809.945312 1645.277344 L 809.945312 1760.046875 L 301.886719 1760.046875 Z M 0.0546875 1781.640625 L 280.292969 1781.640625 L 280.292969 1896.40625 L 0.0546875 1896.40625 Z M 301.886719 1781.640625 L 809.945312 1781.640625 L 809.945312 1896.40625 L 301.886719 1896.40625 Z M 301.886719 1781.640625 " fill-opacity="1" fill-rule="nonzero"/></g><g fill="#ffffff" fill-opacity="1"><g transform="translate(96.216879, 77.989616)"><g><path d="M 11 0.484375 C 7.90625 0.484375 5.601562 -0.332031 4.09375 -1.96875 C 2.59375 -3.613281 1.789062 -6.222656 1.6875 -9.796875 L 7.796875 -10.71875 C 7.828125 -8.664062 8.078125 -7.191406 8.546875 -6.296875 C 9.015625 -5.410156 9.710938 -4.96875 10.640625 -4.96875 C 11.835938 -4.96875 12.4375 -5.753906 12.4375 -7.328125 C 12.4375 -8.578125 12.148438 -9.65625 11.578125 -10.5625 C 11.003906 -11.46875 10.109375 -12.441406 8.890625 -13.484375 L 6.078125 -15.921875 C 4.691406 -17.097656 3.617188 -18.347656 2.859375 -19.671875 C 2.097656 -20.992188 1.71875 -22.5625 1.71875 -24.375 C 1.71875 -27.09375 2.523438 -29.1875 4.140625 -30.65625 C 5.753906 -32.125 7.972656 -32.859375 10.796875 -32.859375 C 13.867188 -32.859375 15.957031 -31.960938 17.0625 -30.171875 C 18.175781 -28.378906 18.769531 -26.207031 18.84375 -23.65625 L 12.6875 -22.890625 C 12.632812 -24.566406 12.476562 -25.769531 12.21875 -26.5 C 11.96875 -27.238281 11.414062 -27.609375 10.5625 -27.609375 C 9.945312 -27.609375 9.472656 -27.347656 9.140625 -26.828125 C 8.804688 -26.304688 8.640625 -25.726562 8.640625 -25.09375 C 8.640625 -24 8.882812 -23.078125 9.375 -22.328125 C 9.875 -21.578125 10.671875 -20.722656 11.765625 -19.765625 L 14.453125 -17.40625 C 16.046875 -16.039062 17.28125 -14.597656 18.15625 -13.078125 C 19.039062 -11.554688 19.484375 -9.757812 19.484375 -7.6875 C 19.484375 -6.164062 19.128906 -4.785156 18.421875 -3.546875 C 17.710938 -2.304688 16.71875 -1.320312 15.4375 -0.59375 C 14.164062 0.125 12.6875 0.484375 11 0.484375 Z M 11 0.484375 "/></g></g></g><g fill="#ffffff" fill-opacity="1"><g transform="translate(116.78414, 77.989616)"><g><path d="M 2.125 -23.125 L 8.640625 -23.125 L 8.640625 -19.28125 C 9.441406 -20.695312 10.210938 -21.738281 10.953125 -22.40625 C 11.703125 -23.070312 12.585938 -23.40625 13.609375 -23.40625 C 13.984375 -23.40625 14.316406 -23.367188 14.609375 -23.296875 L 14.609375 -16.8125 C 13.804688 -17.125 13.097656 -17.28125 12.484375 -17.28125 C 11.066406 -17.28125 9.785156 -16.535156 8.640625 -15.046875 L 8.640625 0 L 2.125 0 Z M 2.125 -23.125 "/></g></g></g><g fill="#ffffff" fill-opacity="1"><g transform="translate(132.109549, 77.989616)"><g/></g></g><g fill="#ffffff" fill-opacity="1"><g transform="translate(142.353165, 77.989616)"><g><path d="M 2.40625 -32.40625 L 7.4375 -32.40625 L 14.078125 -16.8125 L 14.078125 -32.40625 L 20.015625 -32.40625 L 20.015625 0 L 15.171875 0 L 8.515625 -16.8125 L 8.515625 0 L 2.40625 0 Z M 2.40625 -32.40625 "/></g></g></g><g fill="#ffffff" fill-opacity="1"><g transform="translate(164.801092, 77.989616)"><g><path d="M 9.640625 0.40625 C 7.109375 0.40625 5.128906 -0.234375 3.703125 -1.515625 C 2.273438 -2.796875 1.5625 -4.675781 1.5625 -7.15625 L 1.5625 -15.96875 C 1.5625 -18.445312 2.273438 -20.328125 3.703125 -21.609375 C 5.128906 -22.890625 7.109375 -23.53125 9.640625 -23.53125 C 12.171875 -23.53125 14.15625 -22.878906 15.59375 -21.578125 C 17.039062 -20.285156 17.765625 -18.414062 17.765625 -15.96875 L 17.765625 -7.15625 C 17.765625 -4.707031 17.039062 -2.832031 15.59375 -1.53125 C 14.15625 -0.238281 12.171875 0.40625 9.640625 0.40625 Z M 9.6875 -3.921875 C 10.300781 -3.921875 10.726562 -4.15625 10.96875 -4.625 C 11.207031 -5.09375 11.328125 -5.789062 11.328125 -6.71875 L 11.328125 -16.40625 C 11.328125 -17.34375 11.207031 -18.039062 10.96875 -18.5 C 10.726562 -18.96875 10.300781 -19.203125 9.6875 -19.203125 C 9.070312 -19.203125 8.632812 -18.960938 8.375 -18.484375 C 8.125 -18.003906 8 -17.3125 8 -16.40625 L 8 -6.71875 C 8 -5.789062 8.125 -5.09375 8.375 -4.625 C 8.632812 -4.15625 9.070312 -3.921875 9.6875 -3.921875 Z M 9.6875 -3.921875 "/></g></g></g><g fill="#ffffff" fill-opacity="1"><g transform="translate(448.011414, 77.989616)"><g><path d="M 11 0.484375 C 7.90625 0.484375 5.601562 -0.332031 4.09375 -1.96875 C 2.59375 -3.613281 1.789062 -6.222656 1.6875 -9.796875 L 7.796875 -10.71875 C 7.828125 -8.664062 8.078125 -7.191406 8.546875 -6.296875 C 9.015625 -5.410156 9.710938 -4.96875 10.640625 -4.96875 C 11.835938 -4.96875 12.4375 -5.753906 12.4375 -7.328125 C 12.4375 -8.578125 12.148438 -9.65625 11.578125 -10.5625 C 11.003906 -11.46875 10.109375 -12.441406 8.890625 -13.484375 L 6.078125 -15.921875 C 4.691406 -17.097656 3.617188 -18.347656 2.859375 -19.671875 C 2.097656 -20.992188 1.71875 -22.5625 1.71875 -24.375 C 1.71875 -27.09375 2.523438 -29.1875 4.140625 -30.65625 C 5.753906 -32.125 7.972656 -32.859375 10.796875 -32.859375 C 13.867188 -32.859375 15.957031 -31.960938 17.0625 -30.171875 C 18.175781 -28.378906 18.769531 -26.207031 18.84375 -23.65625 L 12.6875 -22.890625 C 12.632812 -24.566406 12.476562 -25.769531 12.21875 -26.5 C 11.96875 -27.238281 11.414062 -27.609375 10.5625 -27.609375 C 9.945312 -27.609375 9.472656 -27.347656 9.140625 -26.828125 C 8.804688 -26.304688 8.640625 -25.726562 8.640625 -25.09375 C 8.640625 -24 8.882812 -23.078125 9.375 -22.328125 C 9.875 -21.578125 10.671875 -20.722656 11.765625 -19.765625 L 14.453125 -17.40625 C 16.046875 -16.039062 17.28125 -14.597656 18.15625 -13.078125 C 19.039062 -11.554688 19.484375 -9.757812 19.484375 -7.6875 C 19.484375 -6.164062 19.128906 -4.785156 18.421875 -3.546875 C 17.710938 -2.304688 16.71875 -1.320312 15.4375 -0.59375 C 14.164062 0.125 12.6875 0.484375 11 0.484375 Z M 11 0.484375 "/></g></g></g><g fill="#ffffff" fill-opacity="1"><g transform="translate(468.578675, 77.989616)"><g><path d="M 2.046875 -31.578125 L 8.609375 -31.578125 L 8.609375 -27.046875 L 2.046875 -27.046875 Z M 2.078125 -23.125 L 8.609375 -23.125 L 8.609375 0 L 2.078125 0 Z M 2.078125 -23.125 "/></g></g></g><g fill="#ffffff" fill-opacity="1"><g transform="translate(479.182423, 77.989616)"><g><path d="M 1.40625 -4.203125 L 7.765625 -18.375 L 1.875 -18.375 L 1.875 -23.125 L 14.5625 -23.125 L 14.5625 -19.171875 L 8.125 -4.765625 L 14.640625 -4.765625 L 14.640625 0 L 1.40625 0 Z M 1.40625 -4.203125 "/></g></g></g><g fill="#ffffff" fill-opacity="1"><g transform="translate(494.867964, 77.989616)"><g><path d="M 9.609375 0.40625 C 7.066406 0.40625 5.085938 -0.265625 3.671875 -1.609375 C 2.265625 -2.960938 1.5625 -4.867188 1.5625 -7.328125 L 1.5625 -15.8125 C 1.5625 -18.257812 2.265625 -20.15625 3.671875 -21.5 C 5.085938 -22.851562 7.066406 -23.53125 9.609375 -23.53125 C 12.160156 -23.53125 14.078125 -22.875 15.359375 -21.5625 C 16.640625 -20.257812 17.28125 -18.34375 17.28125 -15.8125 L 17.28125 -11.171875 L 8 -11.171875 L 8 -6.71875 C 8 -5.0625 8.535156 -4.234375 9.609375 -4.234375 C 10.722656 -4.234375 11.28125 -4.984375 11.28125 -6.484375 L 11.28125 -8.921875 L 17.28125 -8.921875 L 17.28125 -6.6875 C 17.28125 -4.363281 16.609375 -2.597656 15.265625 -1.390625 C 13.921875 -0.191406 12.035156 0.40625 9.609375 0.40625 Z M 11.28125 -14.203125 L 11.28125 -16.53125 C 11.28125 -17.382812 11.125 -17.988281 10.8125 -18.34375 C 10.507812 -18.707031 10.09375 -18.890625 9.5625 -18.890625 C 9.050781 -18.890625 8.660156 -18.6875 8.390625 -18.28125 C 8.128906 -17.882812 8 -17.179688 8 -16.171875 L 8 -14.203125 Z M 11.28125 -14.203125 "/></g></g></g><g fill="#ffffff" fill-opacity="1"><g transform="translate(513.674603, 77.989616)"><g/></g></g><g fill="#ffffff" fill-opacity="1"><g transform="translate(523.918219, 77.989616)"><g><path d="M 12.125 7.15625 C 9.351562 7.15625 7.265625 6.273438 5.859375 4.515625 C 4.460938 2.753906 3.550781 0.488281 3.125 -2.28125 C 2.695312 -5.050781 2.484375 -8.503906 2.484375 -12.640625 C 2.484375 -17.015625 2.6875 -20.601562 3.09375 -23.40625 C 3.507812 -26.207031 4.425781 -28.46875 5.84375 -30.1875 C 7.257812 -31.90625 9.351562 -32.765625 12.125 -32.765625 L 12.125 -28.21875 C 11.132812 -28.21875 10.378906 -27.628906 9.859375 -26.453125 C 9.335938 -25.273438 8.976562 -23.578125 8.78125 -21.359375 C 8.582031 -19.148438 8.484375 -16.242188 8.484375 -12.640625 C 8.484375 -9.097656 8.585938 -6.234375 8.796875 -4.046875 C 9.015625 -1.859375 9.390625 -0.210938 9.921875 0.890625 C 10.453125 2.003906 11.1875 2.5625 12.125 2.5625 Z M 12.125 7.15625 "/></g></g></g><g fill="#ffffff" fill-opacity="1"><g transform="translate(537.442991, 77.989616)"><g><path d="M 11 0.484375 C 7.90625 0.484375 5.601562 -0.332031 4.09375 -1.96875 C 2.59375 -3.613281 1.789062 -6.222656 1.6875 -9.796875 L 7.796875 -10.71875 C 7.828125 -8.664062 8.078125 -7.191406 8.546875 -6.296875 C 9.015625 -5.410156 9.710938 -4.96875 10.640625 -4.96875 C 11.835938 -4.96875 12.4375 -5.753906 12.4375 -7.328125 C 12.4375 -8.578125 12.148438 -9.65625 11.578125 -10.5625 C 11.003906 -11.46875 10.109375 -12.441406 8.890625 -13.484375 L 6.078125 -15.921875 C 4.691406 -17.097656 3.617188 -18.347656 2.859375 -19.671875 C 2.097656 -20.992188 1.71875 -22.5625 1.71875 -24.375 C 1.71875 -27.09375 2.523438 -29.1875 4.140625 -30.65625 C 5.753906 -32.125 7.972656 -32.859375 10.796875 -32.859375 C 13.867188 -32.859375 15.957031 -31.960938 17.0625 -30.171875 C 18.175781 -28.378906 18.769531 -26.207031 18.84375 -23.65625 L 12.6875 -22.890625 C 12.632812 -24.566406 12.476562 -25.769531 12.21875 -26.5 C 11.96875 -27.238281 11.414062 -27.609375 10.5625 -27.609375 C 9.945312 -27.609375 9.472656 -27.347656 9.140625 -26.828125 C 8.804688 -26.304688 8.640625 -25.726562 8.640625 -25.09375 C 8.640625 -24 8.882812 -23.078125 9.375 -22.328125 C 9.875 -21.578125 10.671875 -20.722656 11.765625 -19.765625 L 14.453125 -17.40625 C 16.046875 -16.039062 17.28125 -14.597656 18.15625 -13.078125 C 19.039062 -11.554688 19.484375 -9.757812 19.484375 -7.6875 C 19.484375 -6.164062 19.128906 -4.785156 18.421875 -3.546875 C 17.710938 -2.304688 16.71875 -1.320312 15.4375 -0.59375 C 14.164062 0.125 12.6875 0.484375 11 0.484375 Z M 11 0.484375 "/></g></g></g><g fill="#ffffff" fill-opacity="1"><g transform="translate(558.010252, 77.989616)"><g><path d="M 9.640625 0.40625 C 7.109375 0.40625 5.128906 -0.234375 3.703125 -1.515625 C 2.273438 -2.796875 1.5625 -4.675781 1.5625 -7.15625 L 1.5625 -15.96875 C 1.5625 -18.445312 2.273438 -20.328125 3.703125 -21.609375 C 5.128906 -22.890625 7.109375 -23.53125 9.640625 -23.53125 C 12.171875 -23.53125 14.15625 -22.878906 15.59375 -21.578125 C 17.039062 -20.285156 17.765625 -18.414062 17.765625 -15.96875 L 17.765625 -7.15625 C 17.765625 -4.707031 17.039062 -2.832031 15.59375 -1.53125 C 14.15625 -0.238281 12.171875 0.40625 9.640625 0.40625 Z M 9.6875 -3.921875 C 10.300781 -3.921875 10.726562 -4.15625 10.96875 -4.625 C 11.207031 -5.09375 11.328125 -5.789062 11.328125 -6.71875 L 11.328125 -16.40625 C 11.328125 -17.34375 11.207031 -18.039062 10.96875 -18.5 C 10.726562 -18.96875 10.300781 -19.203125 9.6875 -19.203125 C 9.070312 -19.203125 8.632812 -18.960938 8.375 -18.484375 C 8.125 -18.003906 8 -17.3125 8 -16.40625 L 8 -6.71875 C 8 -5.789062 8.125 -5.09375 8.375 -4.625 C 8.632812 -4.15625 9.070312 -3.921875 9.6875 -3.921875 Z M 9.6875 -3.921875 "/></g></g></g><g fill="#ffffff" fill-opacity="1"><g transform="translate(577.33707, 77.989616)"><g><path d="M 9.5625 0.40625 C 7.050781 0.40625 5.085938 -0.273438 3.671875 -1.640625 C 2.265625 -3.003906 1.5625 -4.898438 1.5625 -7.328125 L 1.5625 -15.8125 C 1.5625 -18.257812 2.257812 -20.15625 3.65625 -21.5 C 5.0625 -22.851562 7.03125 -23.53125 9.5625 -23.53125 C 12.070312 -23.53125 14 -22.941406 15.34375 -21.765625 C 16.6875 -20.597656 17.359375 -18.863281 17.359375 -16.5625 L 17.359375 -14.125 L 11.078125 -14.125 L 11.078125 -16.765625 C 11.078125 -17.648438 10.953125 -18.257812 10.703125 -18.59375 C 10.453125 -18.925781 10.070312 -19.09375 9.5625 -19.09375 C 9.050781 -19.09375 8.679688 -18.882812 8.453125 -18.46875 C 8.234375 -18.050781 8.125 -17.347656 8.125 -16.359375 L 8.125 -6.765625 C 8.125 -5.773438 8.242188 -5.078125 8.484375 -4.671875 C 8.722656 -4.273438 9.097656 -4.078125 9.609375 -4.078125 C 10.109375 -4.078125 10.476562 -4.25 10.71875 -4.59375 C 10.957031 -4.945312 11.078125 -5.535156 11.078125 -6.359375 L 11.078125 -9.4375 L 17.359375 -9.4375 L 17.359375 -6.640625 C 17.359375 -4.347656 16.675781 -2.597656 15.3125 -1.390625 C 13.957031 -0.191406 12.039062 0.40625 9.5625 0.40625 Z M 9.5625 0.40625 "/></g></g></g><g fill="#ffffff" fill-opacity="1"><g transform="translate(596.063679, 77.989616)"><g><path d="M 2.046875 -32.40625 L 8.515625 -32.40625 L 8.515625 -14.453125 L 14.203125 -23.125 L 21.53125 -23.125 L 15.359375 -13.640625 L 21.453125 0 L 14.328125 0 L 10.25 -11 L 8.515625 -8.796875 L 8.515625 0 L 2.046875 0 Z M 2.046875 -32.40625 "/></g></g></g><g fill="#ffffff" fill-opacity="1"><g transform="translate(617.711325, 77.989616)"><g><path d="M 9.609375 0.40625 C 7.066406 0.40625 5.085938 -0.265625 3.671875 -1.609375 C 2.265625 -2.960938 1.5625 -4.867188 1.5625 -7.328125 L 1.5625 -15.8125 C 1.5625 -18.257812 2.265625 -20.15625 3.671875 -21.5 C 5.085938 -22.851562 7.066406 -23.53125 9.609375 -23.53125 C 12.160156 -23.53125 14.078125 -22.875 15.359375 -21.5625 C 16.640625 -20.257812 17.28125 -18.34375 17.28125 -15.8125 L 17.28125 -11.171875 L 8 -11.171875 L 8 -6.71875 C 8 -5.0625 8.535156 -4.234375 9.609375 -4.234375 C 10.722656 -4.234375 11.28125 -4.984375 11.28125 -6.484375 L 11.28125 -8.921875 L 17.28125 -8.921875 L 17.28125 -6.6875 C 17.28125 -4.363281 16.609375 -2.597656 15.265625 -1.390625 C 13.921875 -0.191406 12.035156 0.40625 9.609375 0.40625 Z M 11.28125 -14.203125 L 11.28125 -16.53125 C 11.28125 -17.382812 11.125 -17.988281 10.8125 -18.34375 C 10.507812 -18.707031 10.09375 -18.890625 9.5625 -18.890625 C 9.050781 -18.890625 8.660156 -18.6875 8.390625 -18.28125 C 8.128906 -17.882812 8 -17.179688 8 -16.171875 L 8 -14.203125 Z M 11.28125 -14.203125 "/></g></g></g><g fill="#ffffff" fill-opacity="1"><g transform="translate(636.517964, 77.989616)"><g><path d="M 9.203125 0.234375 C 7.492188 0.234375 6.171875 -0.0078125 5.234375 -0.5 C 4.304688 -0.988281 3.65625 -1.703125 3.28125 -2.640625 C 2.90625 -3.578125 2.71875 -4.789062 2.71875 -6.28125 L 2.71875 -18.84375 L 0.484375 -18.84375 L 0.484375 -23.125 L 2.71875 -23.125 L 2.71875 -30.171875 L 9.328125 -30.171875 L 9.328125 -23.125 L 12.609375 -23.125 L 12.609375 -18.84375 L 9.328125 -18.84375 L 9.328125 -6.921875 C 9.328125 -6.285156 9.503906 -5.8125 9.859375 -5.5 C 10.222656 -5.195312 10.722656 -5.046875 11.359375 -5.046875 C 11.898438 -5.046875 12.488281 -5.097656 13.125 -5.203125 L 13.125 -0.078125 C 11.84375 0.128906 10.535156 0.234375 9.203125 0.234375 Z M 9.203125 0.234375 "/></g></g></g><g fill="#ffffff" fill-opacity="1"><g transform="translate(650.682959, 77.989616)"><g><path d="M 1.40625 2.5625 C 2.332031 2.5625 3.054688 2 3.578125 0.875 C 4.097656 -0.238281 4.460938 -1.882812 4.671875 -4.0625 C 4.890625 -6.238281 5 -9.113281 5 -12.6875 C 5 -16.3125 4.90625 -19.222656 4.71875 -21.421875 C 4.53125 -23.628906 4.175781 -25.3125 3.65625 -26.46875 C 3.132812 -27.632812 2.382812 -28.21875 1.40625 -28.21875 L 1.40625 -32.765625 C 4.175781 -32.765625 6.265625 -31.910156 7.671875 -30.203125 C 9.085938 -28.503906 10.003906 -26.253906 10.421875 -23.453125 C 10.835938 -20.648438 11.046875 -17.0625 11.046875 -12.6875 C 11.046875 -8.550781 10.832031 -5.085938 10.40625 -2.296875 C 9.976562 0.484375 9.0625 2.753906 7.65625 4.515625 C 6.257812 6.273438 4.175781 7.15625 1.40625 7.15625 Z M 1.40625 2.5625 "/></g></g></g><g fill="#000000" fill-opacity="1"><g transform="translate(132.387844, 218.817231)"><g><path d="M 5.328125 -25.8125 C 5.023438 -25.644531 4.25 -25.296875 3 -24.765625 C 2.789062 -24.691406 2.457031 -24.5625 2 -24.375 C 1.550781 -24.1875 1.175781 -24.007812 0.875 -23.84375 L 0.875 -28.8125 C 4.082031 -30.46875 6.046875 -31.664062 6.765625 -32.40625 L 12 -32.40625 L 12 0 L 5.328125 0 Z M 5.328125 -25.8125 "/></g></g></g><g fill="#000000" fill-opacity="1"><g transform="translate(512.842625, 217.317431)"><g><path d="M 4.96875 -24.125 C 4.695312 -23.976562 3.976562 -23.65625 2.8125 -23.15625 C 2.601562 -23.082031 2.285156 -22.957031 1.859375 -22.78125 C 1.441406 -22.601562 1.097656 -22.441406 0.828125 -22.296875 L 0.828125 -26.9375 C 3.816406 -28.476562 5.648438 -29.597656 6.328125 -30.296875 L 11.21875 -30.296875 L 11.21875 0 L 4.96875 0 Z M 4.96875 -24.125 "/></g></g></g><g fill="#000000" fill-opacity="1"><g transform="translate(527.391725, 217.317431)"><g><path d="M 9.53125 0.5625 C 7.394531 0.5625 5.75 0.179688 4.59375 -0.578125 C 3.445312 -1.335938 2.660156 -2.390625 2.234375 -3.734375 C 1.816406 -5.085938 1.609375 -6.796875 1.609375 -8.859375 L 7.625 -8.859375 C 7.625 -7.085938 7.765625 -5.847656 8.046875 -5.140625 C 8.335938 -4.429688 8.910156 -4.078125 9.765625 -4.078125 C 10.429688 -4.078125 10.921875 -4.304688 11.234375 -4.765625 C 11.546875 -5.234375 11.738281 -5.882812 11.8125 -6.71875 C 11.894531 -7.550781 11.9375 -8.78125 11.9375 -10.40625 C 11.9375 -12.09375 11.769531 -13.378906 11.4375 -14.265625 C 11.113281 -15.148438 10.492188 -15.59375 9.578125 -15.59375 C 8.304688 -15.59375 7.507812 -14.671875 7.1875 -12.828125 L 1.796875 -12.828125 L 2.359375 -30.296875 L 16.5 -30.296875 L 16.5 -25.0625 L 7.375 -25.0625 L 7.03125 -18.8125 C 7.300781 -19.207031 7.878906 -19.550781 8.765625 -19.84375 C 9.648438 -20.132812 10.554688 -20.28125 11.484375 -20.28125 C 13.523438 -20.28125 15.085938 -19.429688 16.171875 -17.734375 C 17.265625 -16.035156 17.8125 -13.640625 17.8125 -10.546875 C 17.8125 -8.128906 17.597656 -6.128906 17.171875 -4.546875 C 16.742188 -2.960938 15.929688 -1.710938 14.734375 -0.796875 C 13.535156 0.109375 11.800781 0.5625 9.53125 0.5625 Z M 9.53125 0.5625 "/></g></g></g><g fill="#000000" fill-opacity="1"><g transform="translate(546.428977, 217.317431)"><g/></g></g><g fill="#000000" fill-opacity="1"><g transform="translate(556.003706, 217.317431)"><g><path d="M 2.25 -30.296875 L 6.953125 -30.296875 L 13.171875 -15.703125 L 13.171875 -30.296875 L 18.703125 -30.296875 L 18.703125 0 L 14.171875 0 L 7.96875 -15.703125 L 7.96875 0 L 2.25 0 Z M 2.25 -30.296875 "/></g></g></g><g fill="#000000" fill-opacity="1"><g transform="translate(576.985829, 217.317431)"><g><path d="M 2.25 -30.296875 L 10.140625 -30.296875 C 12.109375 -30.296875 13.785156 -30.085938 15.171875 -29.671875 C 16.554688 -29.265625 17.671875 -28.472656 18.515625 -27.296875 C 19.359375 -26.128906 19.78125 -24.488281 19.78125 -22.375 C 19.78125 -20.570312 19.394531 -19.171875 18.625 -18.171875 C 17.851562 -17.179688 16.757812 -16.546875 15.34375 -16.265625 C 17.082031 -16.046875 18.410156 -15.3125 19.328125 -14.0625 C 20.253906 -12.8125 20.71875 -11.117188 20.71875 -8.984375 C 20.71875 -2.992188 17.664062 0 11.5625 0 L 2.25 0 Z M 10.25 -18.171875 C 11.664062 -18.171875 12.628906 -18.492188 13.140625 -19.140625 C 13.660156 -19.796875 13.921875 -20.8125 13.921875 -22.1875 C 13.921875 -23.382812 13.59375 -24.285156 12.9375 -24.890625 C 12.289062 -25.503906 11.34375 -25.8125 10.09375 -25.8125 L 8.9375 -25.8125 L 8.9375 -18.171875 Z M 10.359375 -4.671875 C 11.785156 -4.671875 12.789062 -5.023438 13.375 -5.734375 C 13.957031 -6.453125 14.25 -7.570312 14.25 -9.09375 C 14.25 -10.8125 13.957031 -12.019531 13.375 -12.71875 C 12.789062 -13.414062 11.773438 -13.765625 10.328125 -13.765625 L 8.9375 -13.765625 L 8.9375 -4.671875 Z M 10.359375 -4.671875 "/></g></g></g><g fill="#000000" fill-opacity="1"><g transform="translate(130.559962, 355.895348)"><g><path d="M 1.53125 -4.40625 L 8.796875 -15.5625 L 9.234375 -16.234375 C 10.179688 -17.648438 10.878906 -18.835938 11.328125 -19.796875 C 11.773438 -20.765625 12 -21.769531 12 -22.8125 C 12 -23.664062 11.832031 -24.3125 11.5 -24.75 C 11.164062 -25.1875 10.6875 -25.40625 10.0625 -25.40625 C 9.113281 -25.40625 8.453125 -25.035156 8.078125 -24.296875 C 7.703125 -23.554688 7.515625 -22.539062 7.515625 -21.25 L 7.515625 -19.75 L 1.453125 -19.75 L 1.453125 -21.359375 C 1.453125 -24.203125 2.144531 -26.46875 3.53125 -28.15625 C 4.914062 -29.851562 7.054688 -30.703125 9.953125 -30.703125 C 12.617188 -30.703125 14.65625 -30.003906 16.0625 -28.609375 C 17.46875 -27.210938 18.171875 -25.242188 18.171875 -22.703125 C 18.171875 -21.554688 17.988281 -20.472656 17.625 -19.453125 C 17.269531 -18.429688 16.84375 -17.507812 16.34375 -16.6875 C 15.84375 -15.863281 15.070312 -14.691406 14.03125 -13.171875 L 8.484375 -4.90625 L 17.359375 -4.90625 L 17.359375 0 L 1.53125 0 Z M 1.53125 -4.40625 "/></g></g></g><g fill="#000000" fill-opacity="1"><g transform="translate(509.737574, 355.895348)"><g><path d="M 1.53125 -4.40625 L 8.796875 -15.5625 L 9.234375 -16.234375 C 10.179688 -17.648438 10.878906 -18.835938 11.328125 -19.796875 C 11.773438 -20.765625 12 -21.769531 12 -22.8125 C 12 -23.664062 11.832031 -24.3125 11.5 -24.75 C 11.164062 -25.1875 10.6875 -25.40625 10.0625 -25.40625 C 9.113281 -25.40625 8.453125 -25.035156 8.078125 -24.296875 C 7.703125 -23.554688 7.515625 -22.539062 7.515625 -21.25 L 7.515625 -19.75 L 1.453125 -19.75 L 1.453125 -21.359375 C 1.453125 -24.203125 2.144531 -26.46875 3.53125 -28.15625 C 4.914062 -29.851562 7.054688 -30.703125 9.953125 -30.703125 C 12.617188 -30.703125 14.65625 -30.003906 16.0625 -28.609375 C 17.46875 -27.210938 18.171875 -25.242188 18.171875 -22.703125 C 18.171875 -21.554688 17.988281 -20.472656 17.625 -19.453125 C 17.269531 -18.429688 16.84375 -17.507812 16.34375 -16.6875 C 15.84375 -15.863281 15.070312 -14.691406 14.03125 -13.171875 L 8.484375 -4.90625 L 17.359375 -4.90625 L 17.359375 0 L 1.53125 0 Z M 1.53125 -4.40625 "/></g></g></g><g fill="#000000" fill-opacity="1"><g transform="translate(528.961832, 355.895348)"><g><path d="M 10.28125 0.5625 C 7.613281 0.5625 5.566406 -0.222656 4.140625 -1.796875 C 2.722656 -3.367188 2.015625 -5.472656 2.015625 -8.109375 L 2.015625 -21.84375 C 2.015625 -24.613281 2.707031 -26.789062 4.09375 -28.375 C 5.476562 -29.957031 7.539062 -30.75 10.28125 -30.75 C 13.03125 -30.75 15.085938 -29.957031 16.453125 -28.375 C 17.828125 -26.789062 18.515625 -24.613281 18.515625 -21.84375 L 18.515625 -8.109375 C 18.515625 -5.492188 17.796875 -3.394531 16.359375 -1.8125 C 14.929688 -0.226562 12.90625 0.5625 10.28125 0.5625 Z M 10.28125 -5.015625 C 11.0625 -5.015625 11.566406 -5.335938 11.796875 -5.984375 C 12.035156 -6.628906 12.15625 -7.390625 12.15625 -8.265625 L 12.15625 -21.703125 C 12.15625 -22.691406 12.046875 -23.515625 11.828125 -24.171875 C 11.617188 -24.835938 11.101562 -25.171875 10.28125 -25.171875 C 9.457031 -25.171875 8.941406 -24.847656 8.734375 -24.203125 C 8.523438 -23.554688 8.421875 -22.722656 8.421875 -21.703125 L 8.421875 -8.265625 C 8.421875 -6.097656 9.039062 -5.015625 10.28125 -5.015625 Z M 10.28125 -5.015625 "/></g></g></g><g fill="#000000" fill-opacity="1"><g transform="translate(549.532537, 355.895348)"><g/></g></g><g fill="#000000" fill-opacity="1"><g transform="translate(559.107266, 355.895348)"><g><path d="M 2.25 -30.296875 L 6.953125 -30.296875 L 13.171875 -15.703125 L 13.171875 -30.296875 L 18.703125 -30.296875 L 18.703125 0 L 14.171875 0 L 7.96875 -15.703125 L 7.96875 0 L 2.25 0 Z M 2.25 -30.296875 "/></g></g></g><g fill="#000000" fill-opacity="1"><g transform="translate(580.089389, 355.895348)"><g><path d="M 2.25 -30.296875 L 10.140625 -30.296875 C 12.109375 -30.296875 13.785156 -30.085938 15.171875 -29.671875 C 16.554688 -29.265625 17.671875 -28.472656 18.515625 -27.296875 C 19.359375 -26.128906 19.78125 -24.488281 19.78125 -22.375 C 19.78125 -20.570312 19.394531 -19.171875 18.625 -18.171875 C 17.851562 -17.179688 16.757812 -16.546875 15.34375 -16.265625 C 17.082031 -16.046875 18.410156 -15.3125 19.328125 -14.0625 C 20.253906 -12.8125 20.71875 -11.117188 20.71875 -8.984375 C 20.71875 -2.992188 17.664062 0 11.5625 0 L 2.25 0 Z M 10.25 -18.171875 C 11.664062 -18.171875 12.628906 -18.492188 13.140625 -19.140625 C 13.660156 -19.796875 13.921875 -20.8125 13.921875 -22.1875 C 13.921875 -23.382812 13.59375 -24.285156 12.9375 -24.890625 C 12.289062 -25.503906 11.34375 -25.8125 10.09375 -25.8125 L 8.9375 -25.8125 L 8.9375 -18.171875 Z M 10.359375 -4.671875 C 11.785156 -4.671875 12.789062 -5.023438 13.375 -5.734375 C 13.957031 -6.453125 14.25 -7.570312 14.25 -9.09375 C 14.25 -10.8125 13.957031 -12.019531 13.375 -12.71875 C 12.789062 -13.414062 11.773438 -13.765625 10.328125 -13.765625 L 8.9375 -13.765625 L 8.9375 -4.671875 Z M 10.359375 -4.671875 "/></g></g></g><g fill="#000000" fill-opacity="1"><g transform="translate(130.559962, 492.25752)"><g><path d="M 9.765625 0.5625 C 6.742188 0.5625 4.597656 -0.257812 3.328125 -1.90625 C 2.054688 -3.550781 1.421875 -5.894531 1.421875 -8.9375 L 1.421875 -10.03125 L 7.671875 -10.03125 L 7.671875 -8.9375 C 7.671875 -7.394531 7.828125 -6.304688 8.140625 -5.671875 C 8.453125 -5.035156 9.03125 -4.71875 9.875 -4.71875 C 10.675781 -4.71875 11.210938 -5.023438 11.484375 -5.640625 C 11.753906 -6.265625 11.890625 -7.300781 11.890625 -8.75 C 11.890625 -10.34375 11.664062 -11.507812 11.21875 -12.25 C 10.769531 -12.988281 9.9375 -13.367188 8.71875 -13.390625 L 7.5625 -13.390625 L 7.5625 -17.6875 L 8.5625 -17.6875 C 9.832031 -17.6875 10.703125 -18.03125 11.171875 -18.71875 C 11.648438 -19.40625 11.890625 -20.546875 11.890625 -22.140625 C 11.890625 -23.367188 11.726562 -24.28125 11.40625 -24.875 C 11.082031 -25.46875 10.507812 -25.765625 9.6875 -25.765625 C 8.914062 -25.765625 8.382812 -25.445312 8.09375 -24.8125 C 7.8125 -24.175781 7.671875 -23.25 7.671875 -22.03125 L 7.671875 -20.46875 L 1.421875 -20.46875 L 1.421875 -22.296875 C 1.421875 -25.015625 2.148438 -27.101562 3.609375 -28.5625 C 5.066406 -30.019531 7.09375 -30.75 9.6875 -30.75 C 12.332031 -30.75 14.390625 -30.050781 15.859375 -28.65625 C 17.328125 -27.257812 18.0625 -25.226562 18.0625 -22.5625 C 18.0625 -20.832031 17.710938 -19.363281 17.015625 -18.15625 C 16.316406 -16.945312 15.429688 -16.191406 14.359375 -15.890625 C 15.503906 -15.472656 16.40625 -14.710938 17.0625 -13.609375 C 17.726562 -12.515625 18.0625 -10.945312 18.0625 -8.90625 C 18.0625 -5.957031 17.398438 -3.640625 16.078125 -1.953125 C 14.765625 -0.273438 12.660156 0.5625 9.765625 0.5625 Z M 9.765625 0.5625 "/></g></g></g><g fill="#000000" fill-opacity="1"><g transform="translate(510.510908, 492.25752)"><g><path d="M 1.53125 -4.40625 L 8.796875 -15.5625 L 9.234375 -16.234375 C 10.179688 -17.648438 10.878906 -18.835938 11.328125 -19.796875 C 11.773438 -20.765625 12 -21.769531 12 -22.8125 C 12 -23.664062 11.832031 -24.3125 11.5 -24.75 C 11.164062 -25.1875 10.6875 -25.40625 10.0625 -25.40625 C 9.113281 -25.40625 8.453125 -25.035156 8.078125 -24.296875 C 7.703125 -23.554688 7.515625 -22.539062 7.515625 -21.25 L 7.515625 -19.75 L 1.453125 -19.75 L 1.453125 -21.359375 C 1.453125 -24.203125 2.144531 -26.46875 3.53125 -28.15625 C 4.914062 -29.851562 7.054688 -30.703125 9.953125 -30.703125 C 12.617188 -30.703125 14.65625 -30.003906 16.0625 -28.609375 C 17.46875 -27.210938 18.171875 -25.242188 18.171875 -22.703125 C 18.171875 -21.554688 17.988281 -20.472656 17.625 -19.453125 C 17.269531 -18.429688 16.84375 -17.507812 16.34375 -16.6875 C 15.84375 -15.863281 15.070312 -14.691406 14.03125 -13.171875 L 8.484375 -4.90625 L 17.359375 -4.90625 L 17.359375 0 L 1.53125 0 Z M 1.53125 -4.40625 "/></g></g></g><g fill="#000000" fill-opacity="1"><g transform="translate(529.735166, 492.25752)"><g><path d="M 9.53125 0.5625 C 7.394531 0.5625 5.75 0.179688 4.59375 -0.578125 C 3.445312 -1.335938 2.660156 -2.390625 2.234375 -3.734375 C 1.816406 -5.085938 1.609375 -6.796875 1.609375 -8.859375 L 7.625 -8.859375 C 7.625 -7.085938 7.765625 -5.847656 8.046875 -5.140625 C 8.335938 -4.429688 8.910156 -4.078125 9.765625 -4.078125 C 10.429688 -4.078125 10.921875 -4.304688 11.234375 -4.765625 C 11.546875 -5.234375 11.738281 -5.882812 11.8125 -6.71875 C 11.894531 -7.550781 11.9375 -8.78125 11.9375 -10.40625 C 11.9375 -12.09375 11.769531 -13.378906 11.4375 -14.265625 C 11.113281 -15.148438 10.492188 -15.59375 9.578125 -15.59375 C 8.304688 -15.59375 7.507812 -14.671875 7.1875 -12.828125 L 1.796875 -12.828125 L 2.359375 -30.296875 L 16.5 -30.296875 L 16.5 -25.0625 L 7.375 -25.0625 L 7.03125 -18.8125 C 7.300781 -19.207031 7.878906 -19.550781 8.765625 -19.84375 C 9.648438 -20.132812 10.554688 -20.28125 11.484375 -20.28125 C 13.523438 -20.28125 15.085938 -19.429688 16.171875 -17.734375 C 17.265625 -16.035156 17.8125 -13.640625 17.8125 -10.546875 C 17.8125 -8.128906 17.597656 -6.128906 17.171875 -4.546875 C 16.742188 -2.960938 15.929688 -1.710938 14.734375 -0.796875 C 13.535156 0.109375 11.800781 0.5625 9.53125 0.5625 Z M 9.53125 0.5625 "/></g></g></g><g fill="#000000" fill-opacity="1"><g transform="translate(548.772419, 492.25752)"><g/></g></g><g fill="#000000" fill-opacity="1"><g transform="translate(558.347148, 492.25752)"><g><path d="M 2.25 -30.296875 L 6.953125 -30.296875 L 13.171875 -15.703125 L 13.171875 -30.296875 L 18.703125 -30.296875 L 18.703125 0 L 14.171875 0 L 7.96875 -15.703125 L 7.96875 0 L 2.25 0 Z M 2.25 -30.296875 "/></g></g></g><g fill="#000000" fill-opacity="1"><g transform="translate(579.329271, 492.25752)"><g><path d="M 2.25 -30.296875 L 10.140625 -30.296875 C 12.109375 -30.296875 13.785156 -30.085938 15.171875 -29.671875 C 16.554688 -29.265625 17.671875 -28.472656 18.515625 -27.296875 C 19.359375 -26.128906 19.78125 -24.488281 19.78125 -22.375 C 19.78125 -20.570312 19.394531 -19.171875 18.625 -18.171875 C 17.851562 -17.179688 16.757812 -16.546875 15.34375 -16.265625 C 17.082031 -16.046875 18.410156 -15.3125 19.328125 -14.0625 C 20.253906 -12.8125 20.71875 -11.117188 20.71875 -8.984375 C 20.71875 -2.992188 17.664062 0 11.5625 0 L 2.25 0 Z M 10.25 -18.171875 C 11.664062 -18.171875 12.628906 -18.492188 13.140625 -19.140625 C 13.660156 -19.796875 13.921875 -20.8125 13.921875 -22.1875 C 13.921875 -23.382812 13.59375 -24.285156 12.9375 -24.890625 C 12.289062 -25.503906 11.34375 -25.8125 10.09375 -25.8125 L 8.9375 -25.8125 L 8.9375 -18.171875 Z M 10.359375 -4.671875 C 11.785156 -4.671875 12.789062 -5.023438 13.375 -5.734375 C 13.957031 -6.453125 14.25 -7.570312 14.25 -9.09375 C 14.25 -10.8125 13.957031 -12.019531 13.375 -12.71875 C 12.789062 -13.414062 11.773438 -13.765625 10.328125 -13.765625 L 8.9375 -13.765625 L 8.9375 -4.671875 Z M 10.359375 -4.671875 "/></g></g></g><g fill="#000000" fill-opacity="1"><g transform="translate(130.372487, 628.619675)"><g><path d="M 10.25 -6.8125 L 0.9375 -6.8125 L 0.9375 -11.40625 L 8.828125 -30.296875 L 16.078125 -30.296875 L 16.078125 -11.453125 L 18.890625 -11.453125 L 18.890625 -6.8125 L 16.078125 -6.8125 L 16.078125 0 L 10.25 0 Z M 10.25 -11.453125 L 10.25 -24.046875 L 5.6875 -11.453125 Z M 10.25 -11.453125 "/></g></g></g><g fill="#000000" fill-opacity="1"><g transform="translate(510.417171, 628.619675)"><g><path d="M 9.765625 0.5625 C 6.742188 0.5625 4.597656 -0.257812 3.328125 -1.90625 C 2.054688 -3.550781 1.421875 -5.894531 1.421875 -8.9375 L 1.421875 -10.03125 L 7.671875 -10.03125 L 7.671875 -8.9375 C 7.671875 -7.394531 7.828125 -6.304688 8.140625 -5.671875 C 8.453125 -5.035156 9.03125 -4.71875 9.875 -4.71875 C 10.675781 -4.71875 11.210938 -5.023438 11.484375 -5.640625 C 11.753906 -6.265625 11.890625 -7.300781 11.890625 -8.75 C 11.890625 -10.34375 11.664062 -11.507812 11.21875 -12.25 C 10.769531 -12.988281 9.9375 -13.367188 8.71875 -13.390625 L 7.5625 -13.390625 L 7.5625 -17.6875 L 8.5625 -17.6875 C 9.832031 -17.6875 10.703125 -18.03125 11.171875 -18.71875 C 11.648438 -19.40625 11.890625 -20.546875 11.890625 -22.140625 C 11.890625 -23.367188 11.726562 -24.28125 11.40625 -24.875 C 11.082031 -25.46875 10.507812 -25.765625 9.6875 -25.765625 C 8.914062 -25.765625 8.382812 -25.445312 8.09375 -24.8125 C 7.8125 -24.175781 7.671875 -23.25 7.671875 -22.03125 L 7.671875 -20.46875 L 1.421875 -20.46875 L 1.421875 -22.296875 C 1.421875 -25.015625 2.148438 -27.101562 3.609375 -28.5625 C 5.066406 -30.019531 7.09375 -30.75 9.6875 -30.75 C 12.332031 -30.75 14.390625 -30.050781 15.859375 -28.65625 C 17.328125 -27.257812 18.0625 -25.226562 18.0625 -22.5625 C 18.0625 -20.832031 17.710938 -19.363281 17.015625 -18.15625 C 16.316406 -16.945312 15.429688 -16.191406 14.359375 -15.890625 C 15.503906 -15.472656 16.40625 -14.710938 17.0625 -13.609375 C 17.726562 -12.515625 18.0625 -10.945312 18.0625 -8.90625 C 18.0625 -5.957031 17.398438 -3.640625 16.078125 -1.953125 C 14.765625 -0.273438 12.660156 0.5625 9.765625 0.5625 Z M 9.765625 0.5625 "/></g></g></g><g fill="#000000" fill-opacity="1"><g transform="translate(529.641429, 628.619675)"><g><path d="M 1.53125 -4.40625 L 8.796875 -15.5625 L 9.234375 -16.234375 C 10.179688 -17.648438 10.878906 -18.835938 11.328125 -19.796875 C 11.773438 -20.765625 12 -21.769531 12 -22.8125 C 12 -23.664062 11.832031 -24.3125 11.5 -24.75 C 11.164062 -25.1875 10.6875 -25.40625 10.0625 -25.40625 C 9.113281 -25.40625 8.453125 -25.035156 8.078125 -24.296875 C 7.703125 -23.554688 7.515625 -22.539062 7.515625 -21.25 L 7.515625 -19.75 L 1.453125 -19.75 L 1.453125 -21.359375 C 1.453125 -24.203125 2.144531 -26.46875 3.53125 -28.15625 C 4.914062 -29.851562 7.054688 -30.703125 9.953125 -30.703125 C 12.617188 -30.703125 14.65625 -30.003906 16.0625 -28.609375 C 17.46875 -27.210938 18.171875 -25.242188 18.171875 -22.703125 C 18.171875 -21.554688 17.988281 -20.472656 17.625 -19.453125 C 17.269531 -18.429688 16.84375 -17.507812 16.34375 -16.6875 C 15.84375 -15.863281 15.070312 -14.691406 14.03125 -13.171875 L 8.484375 -4.90625 L 17.359375 -4.90625 L 17.359375 0 L 1.53125 0 Z M 1.53125 -4.40625 "/></g></g></g><g fill="#000000" fill-opacity="1"><g transform="translate(548.865687, 628.619675)"><g/></g></g><g fill="#000000" fill-opacity="1"><g transform="translate(558.440416, 628.619675)"><g><path d="M 2.25 -30.296875 L 6.953125 -30.296875 L 13.171875 -15.703125 L 13.171875 -30.296875 L 18.703125 -30.296875 L 18.703125 0 L 14.171875 0 L 7.96875 -15.703125 L 7.96875 0 L 2.25 0 Z M 2.25 -30.296875 "/></g></g></g><g fill="#000000" fill-opacity="1"><g transform="translate(579.422539, 628.619675)"><g><path d="M 2.25 -30.296875 L 10.140625 -30.296875 C 12.109375 -30.296875 13.785156 -30.085938 15.171875 -29.671875 C 16.554688 -29.265625 17.671875 -28.472656 18.515625 -27.296875 C 19.359375 -26.128906 19.78125 -24.488281 19.78125 -22.375 C 19.78125 -20.570312 19.394531 -19.171875 18.625 -18.171875 C 17.851562 -17.179688 16.757812 -16.546875 15.34375 -16.265625 C 17.082031 -16.046875 18.410156 -15.3125 19.328125 -14.0625 C 20.253906 -12.8125 20.71875 -11.117188 20.71875 -8.984375 C 20.71875 -2.992188 17.664062 0 11.5625 0 L 2.25 0 Z M 10.25 -18.171875 C 11.664062 -18.171875 12.628906 -18.492188 13.140625 -19.140625 C 13.660156 -19.796875 13.921875 -20.8125 13.921875 -22.1875 C 13.921875 -23.382812 13.59375 -24.285156 12.9375 -24.890625 C 12.289062 -25.503906 11.34375 -25.8125 10.09375 -25.8125 L 8.9375 -25.8125 L 8.9375 -18.171875 Z M 10.359375 -4.671875 C 11.785156 -4.671875 12.789062 -5.023438 13.375 -5.734375 C 13.957031 -6.453125 14.25 -7.570312 14.25 -9.09375 C 14.25 -10.8125 13.957031 -12.019531 13.375 -12.71875 C 12.789062 -13.414062 11.773438 -13.765625 10.328125 -13.765625 L 8.9375 -13.765625 L 8.9375 -4.671875 Z M 10.359375 -4.671875 "/></g></g></g><g fill="#000000" fill-opacity="1"><g transform="translate(130.6537, 764.981878)"><g><path d="M 9.53125 0.5625 C 7.394531 0.5625 5.75 0.179688 4.59375 -0.578125 C 3.445312 -1.335938 2.660156 -2.390625 2.234375 -3.734375 C 1.816406 -5.085938 1.609375 -6.796875 1.609375 -8.859375 L 7.625 -8.859375 C 7.625 -7.085938 7.765625 -5.847656 8.046875 -5.140625 C 8.335938 -4.429688 8.910156 -4.078125 9.765625 -4.078125 C 10.429688 -4.078125 10.921875 -4.304688 11.234375 -4.765625 C 11.546875 -5.234375 11.738281 -5.882812 11.8125 -6.71875 C 11.894531 -7.550781 11.9375 -8.78125 11.9375 -10.40625 C 11.9375 -12.09375 11.769531 -13.378906 11.4375 -14.265625 C 11.113281 -15.148438 10.492188 -15.59375 9.578125 -15.59375 C 8.304688 -15.59375 7.507812 -14.671875 7.1875 -12.828125 L 1.796875 -12.828125 L 2.359375 -30.296875 L 16.5 -30.296875 L 16.5 -25.0625 L 7.375 -25.0625 L 7.03125 -18.8125 C 7.300781 -19.207031 7.878906 -19.550781 8.765625 -19.84375 C 9.648438 -20.132812 10.554688 -20.28125 11.484375 -20.28125 C 13.523438 -20.28125 15.085938 -19.429688 16.171875 -17.734375 C 17.265625 -16.035156 17.8125 -13.640625 17.8125 -10.546875 C 17.8125 -8.128906 17.597656 -6.128906 17.171875 -4.546875 C 16.742188 -2.960938 15.929688 -1.710938 14.734375 -0.796875 C 13.535156 0.109375 11.800781 0.5625 9.53125 0.5625 Z M 9.53125 0.5625 "/></g></g></g><g fill="#000000" fill-opacity="1"><g transform="translate(509.561812, 764.981878)"><g><path d="M 10.25 -6.8125 L 0.9375 -6.8125 L 0.9375 -11.40625 L 8.828125 -30.296875 L 16.078125 -30.296875 L 16.078125 -11.453125 L 18.890625 -11.453125 L 18.890625 -6.8125 L 16.078125 -6.8125 L 16.078125 0 L 10.25 0 Z M 10.25 -11.453125 L 10.25 -24.046875 L 5.6875 -11.453125 Z M 10.25 -11.453125 "/></g></g></g><g fill="#000000" fill-opacity="1"><g transform="translate(529.160082, 764.981878)"><g><path d="M 10.28125 0.5625 C 7.613281 0.5625 5.566406 -0.222656 4.140625 -1.796875 C 2.722656 -3.367188 2.015625 -5.472656 2.015625 -8.109375 L 2.015625 -21.84375 C 2.015625 -24.613281 2.707031 -26.789062 4.09375 -28.375 C 5.476562 -29.957031 7.539062 -30.75 10.28125 -30.75 C 13.03125 -30.75 15.085938 -29.957031 16.453125 -28.375 C 17.828125 -26.789062 18.515625 -24.613281 18.515625 -21.84375 L 18.515625 -8.109375 C 18.515625 -5.492188 17.796875 -3.394531 16.359375 -1.8125 C 14.929688 -0.226562 12.90625 0.5625 10.28125 0.5625 Z M 10.28125 -5.015625 C 11.0625 -5.015625 11.566406 -5.335938 11.796875 -5.984375 C 12.035156 -6.628906 12.15625 -7.390625 12.15625 -8.265625 L 12.15625 -21.703125 C 12.15625 -22.691406 12.046875 -23.515625 11.828125 -24.171875 C 11.617188 -24.835938 11.101562 -25.171875 10.28125 -25.171875 C 9.457031 -25.171875 8.941406 -24.847656 8.734375 -24.203125 C 8.523438 -23.554688 8.421875 -22.722656 8.421875 -21.703125 L 8.421875 -8.265625 C 8.421875 -6.097656 9.039062 -5.015625 10.28125 -5.015625 Z M 10.28125 -5.015625 "/></g></g></g><g fill="#000000" fill-opacity="1"><g transform="translate(549.730787, 764.981878)"><g/></g></g><g fill="#000000" fill-opacity="1"><g transform="translate(559.305517, 764.981878)"><g><path d="M 2.25 -30.296875 L 6.953125 -30.296875 L 13.171875 -15.703125 L 13.171875 -30.296875 L 18.703125 -30.296875 L 18.703125 0 L 14.171875 0 L 7.96875 -15.703125 L 7.96875 0 L 2.25 0 Z M 2.25 -30.296875 "/></g></g></g><g fill="#000000" fill-opacity="1"><g transform="translate(580.287639, 764.981878)"><g><path d="M 2.25 -30.296875 L 10.140625 -30.296875 C 12.109375 -30.296875 13.785156 -30.085938 15.171875 -29.671875 C 16.554688 -29.265625 17.671875 -28.472656 18.515625 -27.296875 C 19.359375 -26.128906 19.78125 -24.488281 19.78125 -22.375 C 19.78125 -20.570312 19.394531 -19.171875 18.625 -18.171875 C 17.851562 -17.179688 16.757812 -16.546875 15.34375 -16.265625 C 17.082031 -16.046875 18.410156 -15.3125 19.328125 -14.0625 C 20.253906 -12.8125 20.71875 -11.117188 20.71875 -8.984375 C 20.71875 -2.992188 17.664062 0 11.5625 0 L 2.25 0 Z M 10.25 -18.171875 C 11.664062 -18.171875 12.628906 -18.492188 13.140625 -19.140625 C 13.660156 -19.796875 13.921875 -20.8125 13.921875 -22.1875 C 13.921875 -23.382812 13.59375 -24.285156 12.9375 -24.890625 C 12.289062 -25.503906 11.34375 -25.8125 10.09375 -25.8125 L 8.9375 -25.8125 L 8.9375 -18.171875 Z M 10.359375 -4.671875 C 11.785156 -4.671875 12.789062 -5.023438 13.375 -5.734375 C 13.957031 -6.453125 14.25 -7.570312 14.25 -9.09375 C 14.25 -10.8125 13.957031 -12.019531 13.375 -12.71875 C 12.789062 -13.414062 11.773438 -13.765625 10.328125 -13.765625 L 8.9375 -13.765625 L 8.9375 -4.671875 Z M 10.359375 -4.671875 "/></g></g></g><g fill="#000000" fill-opacity="1"><g transform="translate(130.102992, 901.34413)"><g><path d="M 10.328125 0.453125 C 7.484375 0.453125 5.375 -0.441406 4 -2.234375 C 2.625 -4.035156 1.9375 -6.457031 1.9375 -9.5 L 1.9375 -20.46875 C 1.9375 -23.757812 2.539062 -26.285156 3.75 -28.046875 C 4.96875 -29.816406 7.144531 -30.703125 10.28125 -30.703125 C 13.070312 -30.703125 15.054688 -30.066406 16.234375 -28.796875 C 17.410156 -27.523438 18 -25.570312 18 -22.9375 L 18.03125 -22.40625 L 12.15625 -22.40625 C 12.15625 -23.75 12.046875 -24.679688 11.828125 -25.203125 C 11.617188 -25.734375 11.117188 -26 10.328125 -26 C 9.753906 -26 9.320312 -25.820312 9.03125 -25.46875 C 8.75 -25.125 8.554688 -24.539062 8.453125 -23.71875 C 8.347656 -22.894531 8.296875 -21.644531 8.296875 -19.96875 L 8.296875 -17.28125 C 8.628906 -17.800781 9.144531 -18.210938 9.84375 -18.515625 C 10.539062 -18.816406 11.335938 -18.96875 12.234375 -18.96875 C 14.429688 -18.96875 16.039062 -18.164062 17.0625 -16.5625 C 18.082031 -14.96875 18.59375 -12.863281 18.59375 -10.25 C 18.59375 -6.8125 17.96875 -4.164062 16.71875 -2.3125 C 15.46875 -0.46875 13.335938 0.453125 10.328125 0.453125 Z M 10.40625 -4.15625 C 11.195312 -4.15625 11.710938 -4.539062 11.953125 -5.3125 C 12.191406 -6.082031 12.3125 -7.40625 12.3125 -9.28125 C 12.3125 -10.5 12.269531 -11.425781 12.1875 -12.0625 C 12.113281 -12.695312 11.941406 -13.207031 11.671875 -13.59375 C 11.398438 -13.976562 10.953125 -14.171875 10.328125 -14.171875 C 9.898438 -14.171875 9.5 -14.046875 9.125 -13.796875 C 8.75 -13.546875 8.472656 -13.273438 8.296875 -12.984375 L 8.296875 -8.046875 C 8.296875 -5.453125 9 -4.15625 10.40625 -4.15625 Z M 10.40625 -4.15625 "/></g></g></g><g fill="#000000" fill-opacity="1"><g transform="translate(509.831311, 901.34413)"><g><path d="M 9.53125 0.5625 C 7.394531 0.5625 5.75 0.179688 4.59375 -0.578125 C 3.445312 -1.335938 2.660156 -2.390625 2.234375 -3.734375 C 1.816406 -5.085938 1.609375 -6.796875 1.609375 -8.859375 L 7.625 -8.859375 C 7.625 -7.085938 7.765625 -5.847656 8.046875 -5.140625 C 8.335938 -4.429688 8.910156 -4.078125 9.765625 -4.078125 C 10.429688 -4.078125 10.921875 -4.304688 11.234375 -4.765625 C 11.546875 -5.234375 11.738281 -5.882812 11.8125 -6.71875 C 11.894531 -7.550781 11.9375 -8.78125 11.9375 -10.40625 C 11.9375 -12.09375 11.769531 -13.378906 11.4375 -14.265625 C 11.113281 -15.148438 10.492188 -15.59375 9.578125 -15.59375 C 8.304688 -15.59375 7.507812 -14.671875 7.1875 -12.828125 L 1.796875 -12.828125 L 2.359375 -30.296875 L 16.5 -30.296875 L 16.5 -25.0625 L 7.375 -25.0625 L 7.03125 -18.8125 C 7.300781 -19.207031 7.878906 -19.550781 8.765625 -19.84375 C 9.648438 -20.132812 10.554688 -20.28125 11.484375 -20.28125 C 13.523438 -20.28125 15.085938 -19.429688 16.171875 -17.734375 C 17.265625 -16.035156 17.8125 -13.640625 17.8125 -10.546875 C 17.8125 -8.128906 17.597656 -6.128906 17.171875 -4.546875 C 16.742188 -2.960938 15.929688 -1.710938 14.734375 -0.796875 C 13.535156 0.109375 11.800781 0.5625 9.53125 0.5625 Z M 9.53125 0.5625 "/></g></g></g><g fill="#000000" fill-opacity="1"><g transform="translate(528.868564, 901.34413)"><g><path d="M 10.28125 0.5625 C 7.613281 0.5625 5.566406 -0.222656 4.140625 -1.796875 C 2.722656 -3.367188 2.015625 -5.472656 2.015625 -8.109375 L 2.015625 -21.84375 C 2.015625 -24.613281 2.707031 -26.789062 4.09375 -28.375 C 5.476562 -29.957031 7.539062 -30.75 10.28125 -30.75 C 13.03125 -30.75 15.085938 -29.957031 16.453125 -28.375 C 17.828125 -26.789062 18.515625 -24.613281 18.515625 -21.84375 L 18.515625 -8.109375 C 18.515625 -5.492188 17.796875 -3.394531 16.359375 -1.8125 C 14.929688 -0.226562 12.90625 0.5625 10.28125 0.5625 Z M 10.28125 -5.015625 C 11.0625 -5.015625 11.566406 -5.335938 11.796875 -5.984375 C 12.035156 -6.628906 12.15625 -7.390625 12.15625 -8.265625 L 12.15625 -21.703125 C 12.15625 -22.691406 12.046875 -23.515625 11.828125 -24.171875 C 11.617188 -24.835938 11.101562 -25.171875 10.28125 -25.171875 C 9.457031 -25.171875 8.941406 -24.847656 8.734375 -24.203125 C 8.523438 -23.554688 8.421875 -22.722656 8.421875 -21.703125 L 8.421875 -8.265625 C 8.421875 -6.097656 9.039062 -5.015625 10.28125 -5.015625 Z M 10.28125 -5.015625 "/></g></g></g><g fill="#000000" fill-opacity="1"><g transform="translate(549.439269, 901.34413)"><g/></g></g><g fill="#000000" fill-opacity="1"><g transform="translate(559.013998, 901.34413)"><g><path d="M 2.25 -30.296875 L 6.953125 -30.296875 L 13.171875 -15.703125 L 13.171875 -30.296875 L 18.703125 -30.296875 L 18.703125 0 L 14.171875 0 L 7.96875 -15.703125 L 7.96875 0 L 2.25 0 Z M 2.25 -30.296875 "/></g></g></g><g fill="#000000" fill-opacity="1"><g transform="translate(579.996121, 901.34413)"><g><path d="M 2.25 -30.296875 L 10.140625 -30.296875 C 12.109375 -30.296875 13.785156 -30.085938 15.171875 -29.671875 C 16.554688 -29.265625 17.671875 -28.472656 18.515625 -27.296875 C 19.359375 -26.128906 19.78125 -24.488281 19.78125 -22.375 C 19.78125 -20.570312 19.394531 -19.171875 18.625 -18.171875 C 17.851562 -17.179688 16.757812 -16.546875 15.34375 -16.265625 C 17.082031 -16.046875 18.410156 -15.3125 19.328125 -14.0625 C 20.253906 -12.8125 20.71875 -11.117188 20.71875 -8.984375 C 20.71875 -2.992188 17.664062 0 11.5625 0 L 2.25 0 Z M 10.25 -18.171875 C 11.664062 -18.171875 12.628906 -18.492188 13.140625 -19.140625 C 13.660156 -19.796875 13.921875 -20.8125 13.921875 -22.1875 C 13.921875 -23.382812 13.59375 -24.285156 12.9375 -24.890625 C 12.289062 -25.503906 11.34375 -25.8125 10.09375 -25.8125 L 8.9375 -25.8125 L 8.9375 -18.171875 Z M 10.359375 -4.671875 C 11.785156 -4.671875 12.789062 -5.023438 13.375 -5.734375 C 13.957031 -6.453125 14.25 -7.570312 14.25 -9.09375 C 14.25 -10.8125 13.957031 -12.019531 13.375 -12.71875 C 12.789062 -13.414062 11.773438 -13.765625 10.328125 -13.765625 L 8.9375 -13.765625 L 8.9375 -4.671875 Z M 10.359375 -4.671875 "/></g></g></g><g fill="#000000" fill-opacity="1"><g transform="translate(131.954308, 1037.706213)"><g><path d="M 9.015625 -25.546875 L 0.75 -25.546875 L 0.75 -30.296875 L 15.109375 -30.296875 L 15.109375 -26 L 8.53125 0 L 2.4375 0 Z M 9.015625 -25.546875 "/></g></g></g><g fill="#000000" fill-opacity="1"><g transform="translate(510.065655, 1037.706213)"><g><path d="M 10.328125 0.453125 C 7.484375 0.453125 5.375 -0.441406 4 -2.234375 C 2.625 -4.035156 1.9375 -6.457031 1.9375 -9.5 L 1.9375 -20.46875 C 1.9375 -23.757812 2.539062 -26.285156 3.75 -28.046875 C 4.96875 -29.816406 7.144531 -30.703125 10.28125 -30.703125 C 13.070312 -30.703125 15.054688 -30.066406 16.234375 -28.796875 C 17.410156 -27.523438 18 -25.570312 18 -22.9375 L 18.03125 -22.40625 L 12.15625 -22.40625 C 12.15625 -23.75 12.046875 -24.679688 11.828125 -25.203125 C 11.617188 -25.734375 11.117188 -26 10.328125 -26 C 9.753906 -26 9.320312 -25.820312 9.03125 -25.46875 C 8.75 -25.125 8.554688 -24.539062 8.453125 -23.71875 C 8.347656 -22.894531 8.296875 -21.644531 8.296875 -19.96875 L 8.296875 -17.28125 C 8.628906 -17.800781 9.144531 -18.210938 9.84375 -18.515625 C 10.539062 -18.816406 11.335938 -18.96875 12.234375 -18.96875 C 14.429688 -18.96875 16.039062 -18.164062 17.0625 -16.5625 C 18.082031 -14.96875 18.59375 -12.863281 18.59375 -10.25 C 18.59375 -6.8125 17.96875 -4.164062 16.71875 -2.3125 C 15.46875 -0.46875 13.335938 0.453125 10.328125 0.453125 Z M 10.40625 -4.15625 C 11.195312 -4.15625 11.710938 -4.539062 11.953125 -5.3125 C 12.191406 -6.082031 12.3125 -7.40625 12.3125 -9.28125 C 12.3125 -10.5 12.269531 -11.425781 12.1875 -12.0625 C 12.113281 -12.695312 11.941406 -13.207031 11.671875 -13.59375 C 11.398438 -13.976562 10.953125 -14.171875 10.328125 -14.171875 C 9.898438 -14.171875 9.5 -14.046875 9.125 -13.796875 C 8.75 -13.546875 8.472656 -13.273438 8.296875 -12.984375 L 8.296875 -8.046875 C 8.296875 -5.453125 9 -4.15625 10.40625 -4.15625 Z M 10.40625 -4.15625 "/></g></g></g><g fill="#000000" fill-opacity="1"><g transform="translate(530.187549, 1037.706213)"><g><path d="M 9.53125 0.5625 C 7.394531 0.5625 5.75 0.179688 4.59375 -0.578125 C 3.445312 -1.335938 2.660156 -2.390625 2.234375 -3.734375 C 1.816406 -5.085938 1.609375 -6.796875 1.609375 -8.859375 L 7.625 -8.859375 C 7.625 -7.085938 7.765625 -5.847656 8.046875 -5.140625 C 8.335938 -4.429688 8.910156 -4.078125 9.765625 -4.078125 C 10.429688 -4.078125 10.921875 -4.304688 11.234375 -4.765625 C 11.546875 -5.234375 11.738281 -5.882812 11.8125 -6.71875 C 11.894531 -7.550781 11.9375 -8.78125 11.9375 -10.40625 C 11.9375 -12.09375 11.769531 -13.378906 11.4375 -14.265625 C 11.113281 -15.148438 10.492188 -15.59375 9.578125 -15.59375 C 8.304688 -15.59375 7.507812 -14.671875 7.1875 -12.828125 L 1.796875 -12.828125 L 2.359375 -30.296875 L 16.5 -30.296875 L 16.5 -25.0625 L 7.375 -25.0625 L 7.03125 -18.8125 C 7.300781 -19.207031 7.878906 -19.550781 8.765625 -19.84375 C 9.648438 -20.132812 10.554688 -20.28125 11.484375 -20.28125 C 13.523438 -20.28125 15.085938 -19.429688 16.171875 -17.734375 C 17.265625 -16.035156 17.8125 -13.640625 17.8125 -10.546875 C 17.8125 -8.128906 17.597656 -6.128906 17.171875 -4.546875 C 16.742188 -2.960938 15.929688 -1.710938 14.734375 -0.796875 C 13.535156 0.109375 11.800781 0.5625 9.53125 0.5625 Z M 9.53125 0.5625 "/></g></g></g><g fill="#000000" fill-opacity="1"><g transform="translate(549.224801, 1037.706213)"><g/></g></g><g fill="#000000" fill-opacity="1"><g transform="translate(558.79953, 1037.706213)"><g><path d="M 2.25 -30.296875 L 6.953125 -30.296875 L 13.171875 -15.703125 L 13.171875 -30.296875 L 18.703125 -30.296875 L 18.703125 0 L 14.171875 0 L 7.96875 -15.703125 L 7.96875 0 L 2.25 0 Z M 2.25 -30.296875 "/></g></g></g><g fill="#000000" fill-opacity="1"><g transform="translate(579.781653, 1037.706213)"><g><path d="M 2.25 -30.296875 L 10.140625 -30.296875 C 12.109375 -30.296875 13.785156 -30.085938 15.171875 -29.671875 C 16.554688 -29.265625 17.671875 -28.472656 18.515625 -27.296875 C 19.359375 -26.128906 19.78125 -24.488281 19.78125 -22.375 C 19.78125 -20.570312 19.394531 -19.171875 18.625 -18.171875 C 17.851562 -17.179688 16.757812 -16.546875 15.34375 -16.265625 C 17.082031 -16.046875 18.410156 -15.3125 19.328125 -14.0625 C 20.253906 -12.8125 20.71875 -11.117188 20.71875 -8.984375 C 20.71875 -2.992188 17.664062 0 11.5625 0 L 2.25 0 Z M 10.25 -18.171875 C 11.664062 -18.171875 12.628906 -18.492188 13.140625 -19.140625 C 13.660156 -19.796875 13.921875 -20.8125 13.921875 -22.1875 C 13.921875 -23.382812 13.59375 -24.285156 12.9375 -24.890625 C 12.289062 -25.503906 11.34375 -25.8125 10.09375 -25.8125 L 8.9375 -25.8125 L 8.9375 -18.171875 Z M 10.359375 -4.671875 C 11.785156 -4.671875 12.789062 -5.023438 13.375 -5.734375 C 13.957031 -6.453125 14.25 -7.570312 14.25 -9.09375 C 14.25 -10.8125 13.957031 -12.019531 13.375 -12.71875 C 12.789062 -13.414062 11.773438 -13.765625 10.328125 -13.765625 L 8.9375 -13.765625 L 8.9375 -4.671875 Z M 10.359375 -4.671875 "/></g></g></g><g fill="#000000" fill-opacity="1"><g transform="translate(130.419356, 1174.068513)"><g><path d="M 9.71875 0.484375 C 6.800781 0.484375 4.6875 -0.34375 3.375 -2 C 2.070312 -3.65625 1.421875 -5.941406 1.421875 -8.859375 C 1.421875 -10.484375 1.710938 -11.925781 2.296875 -13.1875 C 2.878906 -14.445312 3.757812 -15.363281 4.9375 -15.9375 C 4.0625 -16.582031 3.335938 -17.484375 2.765625 -18.640625 C 2.191406 -19.804688 1.90625 -21.210938 1.90625 -22.859375 C 1.90625 -25.328125 2.582031 -27.25 3.9375 -28.625 C 5.300781 -30.007812 7.226562 -30.703125 9.71875 -30.703125 C 12.21875 -30.703125 14.132812 -30.015625 15.46875 -28.640625 C 16.800781 -27.273438 17.46875 -25.382812 17.46875 -22.96875 C 17.46875 -21.25 17.195312 -19.796875 16.65625 -18.609375 C 16.125 -17.421875 15.410156 -16.53125 14.515625 -15.9375 C 15.679688 -15.363281 16.554688 -14.421875 17.140625 -13.109375 C 17.734375 -11.796875 18.03125 -10.296875 18.03125 -8.609375 C 18.03125 -5.765625 17.367188 -3.535156 16.046875 -1.921875 C 14.722656 -0.316406 12.613281 0.484375 9.71875 0.484375 Z M 9.71875 -18.171875 C 10.96875 -18.171875 11.59375 -19.679688 11.59375 -22.703125 C 11.59375 -23.722656 11.429688 -24.53125 11.109375 -25.125 C 10.785156 -25.726562 10.320312 -26.03125 9.71875 -26.03125 C 9.101562 -26.03125 8.625 -25.738281 8.28125 -25.15625 C 7.945312 -24.570312 7.78125 -23.769531 7.78125 -22.75 C 7.78125 -19.695312 8.425781 -18.171875 9.71875 -18.171875 Z M 9.71875 -4.109375 C 10.394531 -4.109375 10.890625 -4.375 11.203125 -4.90625 C 11.515625 -5.445312 11.703125 -6.035156 11.765625 -6.671875 C 11.828125 -7.304688 11.859375 -8.097656 11.859375 -9.046875 C 11.859375 -10.347656 11.710938 -11.367188 11.421875 -12.109375 C 11.140625 -12.859375 10.570312 -13.234375 9.71875 -13.234375 C 8.851562 -13.234375 8.28125 -12.816406 8 -11.984375 C 7.726562 -11.148438 7.59375 -10 7.59375 -8.53125 C 7.59375 -7.28125 7.726562 -6.226562 8 -5.375 C 8.28125 -4.53125 8.851562 -4.109375 9.71875 -4.109375 Z M 9.71875 -4.109375 "/></g></g></g><g fill="#000000" fill-opacity="1"><g transform="translate(509.608681, 1174.068513)"><g><path d="M 9.71875 0.484375 C 6.800781 0.484375 4.6875 -0.34375 3.375 -2 C 2.070312 -3.65625 1.421875 -5.941406 1.421875 -8.859375 C 1.421875 -10.484375 1.710938 -11.925781 2.296875 -13.1875 C 2.878906 -14.445312 3.757812 -15.363281 4.9375 -15.9375 C 4.0625 -16.582031 3.335938 -17.484375 2.765625 -18.640625 C 2.191406 -19.804688 1.90625 -21.210938 1.90625 -22.859375 C 1.90625 -25.328125 2.582031 -27.25 3.9375 -28.625 C 5.300781 -30.007812 7.226562 -30.703125 9.71875 -30.703125 C 12.21875 -30.703125 14.132812 -30.015625 15.46875 -28.640625 C 16.800781 -27.273438 17.46875 -25.382812 17.46875 -22.96875 C 17.46875 -21.25 17.195312 -19.796875 16.65625 -18.609375 C 16.125 -17.421875 15.410156 -16.53125 14.515625 -15.9375 C 15.679688 -15.363281 16.554688 -14.421875 17.140625 -13.109375 C 17.734375 -11.796875 18.03125 -10.296875 18.03125 -8.609375 C 18.03125 -5.765625 17.367188 -3.535156 16.046875 -1.921875 C 14.722656 -0.316406 12.613281 0.484375 9.71875 0.484375 Z M 9.71875 -18.171875 C 10.96875 -18.171875 11.59375 -19.679688 11.59375 -22.703125 C 11.59375 -23.722656 11.429688 -24.53125 11.109375 -25.125 C 10.785156 -25.726562 10.320312 -26.03125 9.71875 -26.03125 C 9.101562 -26.03125 8.625 -25.738281 8.28125 -25.15625 C 7.945312 -24.570312 7.78125 -23.769531 7.78125 -22.75 C 7.78125 -19.695312 8.425781 -18.171875 9.71875 -18.171875 Z M 9.71875 -4.109375 C 10.394531 -4.109375 10.890625 -4.375 11.203125 -4.90625 C 11.515625 -5.445312 11.703125 -6.035156 11.765625 -6.671875 C 11.828125 -7.304688 11.859375 -8.097656 11.859375 -9.046875 C 11.859375 -10.347656 11.710938 -11.367188 11.421875 -12.109375 C 11.140625 -12.859375 10.570312 -13.234375 9.71875 -13.234375 C 8.851562 -13.234375 8.28125 -12.816406 8 -11.984375 C 7.726562 -11.148438 7.59375 -10 7.59375 -8.53125 C 7.59375 -7.28125 7.726562 -6.226562 8 -5.375 C 8.28125 -4.53125 8.851562 -4.109375 9.71875 -4.109375 Z M 9.71875 -4.109375 "/></g></g></g><g fill="#000000" fill-opacity="1"><g transform="translate(529.094746, 1174.068513)"><g><path d="M 10.28125 0.5625 C 7.613281 0.5625 5.566406 -0.222656 4.140625 -1.796875 C 2.722656 -3.367188 2.015625 -5.472656 2.015625 -8.109375 L 2.015625 -21.84375 C 2.015625 -24.613281 2.707031 -26.789062 4.09375 -28.375 C 5.476562 -29.957031 7.539062 -30.75 10.28125 -30.75 C 13.03125 -30.75 15.085938 -29.957031 16.453125 -28.375 C 17.828125 -26.789062 18.515625 -24.613281 18.515625 -21.84375 L 18.515625 -8.109375 C 18.515625 -5.492188 17.796875 -3.394531 16.359375 -1.8125 C 14.929688 -0.226562 12.90625 0.5625 10.28125 0.5625 Z M 10.28125 -5.015625 C 11.0625 -5.015625 11.566406 -5.335938 11.796875 -5.984375 C 12.035156 -6.628906 12.15625 -7.390625 12.15625 -8.265625 L 12.15625 -21.703125 C 12.15625 -22.691406 12.046875 -23.515625 11.828125 -24.171875 C 11.617188 -24.835938 11.101562 -25.171875 10.28125 -25.171875 C 9.457031 -25.171875 8.941406 -24.847656 8.734375 -24.203125 C 8.523438 -23.554688 8.421875 -22.722656 8.421875 -21.703125 L 8.421875 -8.265625 C 8.421875 -6.097656 9.039062 -5.015625 10.28125 -5.015625 Z M 10.28125 -5.015625 "/></g></g></g><g fill="#000000" fill-opacity="1"><g transform="translate(549.665451, 1174.068513)"><g/></g></g><g fill="#000000" fill-opacity="1"><g transform="translate(559.24018, 1174.068513)"><g><path d="M 2.25 -30.296875 L 6.953125 -30.296875 L 13.171875 -15.703125 L 13.171875 -30.296875 L 18.703125 -30.296875 L 18.703125 0 L 14.171875 0 L 7.96875 -15.703125 L 7.96875 0 L 2.25 0 Z M 2.25 -30.296875 "/></g></g></g><g fill="#000000" fill-opacity="1"><g transform="translate(580.222303, 1174.068513)"><g><path d="M 2.25 -30.296875 L 10.140625 -30.296875 C 12.109375 -30.296875 13.785156 -30.085938 15.171875 -29.671875 C 16.554688 -29.265625 17.671875 -28.472656 18.515625 -27.296875 C 19.359375 -26.128906 19.78125 -24.488281 19.78125 -22.375 C 19.78125 -20.570312 19.394531 -19.171875 18.625 -18.171875 C 17.851562 -17.179688 16.757812 -16.546875 15.34375 -16.265625 C 17.082031 -16.046875 18.410156 -15.3125 19.328125 -14.0625 C 20.253906 -12.8125 20.71875 -11.117188 20.71875 -8.984375 C 20.71875 -2.992188 17.664062 0 11.5625 0 L 2.25 0 Z M 10.25 -18.171875 C 11.664062 -18.171875 12.628906 -18.492188 13.140625 -19.140625 C 13.660156 -19.796875 13.921875 -20.8125 13.921875 -22.1875 C 13.921875 -23.382812 13.59375 -24.285156 12.9375 -24.890625 C 12.289062 -25.503906 11.34375 -25.8125 10.09375 -25.8125 L 8.9375 -25.8125 L 8.9375 -18.171875 Z M 10.359375 -4.671875 C 11.785156 -4.671875 12.789062 -5.023438 13.375 -5.734375 C 13.957031 -6.453125 14.25 -7.570312 14.25 -9.09375 C 14.25 -10.8125 13.957031 -12.019531 13.375 -12.71875 C 12.789062 -13.414062 11.773438 -13.765625 10.328125 -13.765625 L 8.9375 -13.765625 L 8.9375 -4.671875 Z M 10.359375 -4.671875 "/></g></g></g><g fill="#000000" fill-opacity="1"><g transform="translate(130.102992, 1310.430596)"><g><path d="M 9.765625 0.453125 C 6.941406 0.453125 4.953125 -0.1875 3.796875 -1.46875 C 2.640625 -2.757812 2.0625 -4.726562 2.0625 -7.375 L 2.0625 -7.859375 L 7.890625 -7.859375 C 7.890625 -6.503906 8.007812 -5.566406 8.25 -5.046875 C 8.488281 -4.523438 9.003906 -4.265625 9.796875 -4.265625 C 10.367188 -4.265625 10.785156 -4.4375 11.046875 -4.78125 C 11.316406 -5.132812 11.5 -5.722656 11.59375 -6.546875 C 11.695312 -7.367188 11.75 -8.613281 11.75 -10.28125 L 11.75 -12.984375 C 11.425781 -12.453125 10.914062 -12.035156 10.21875 -11.734375 C 9.519531 -11.441406 8.734375 -11.296875 7.859375 -11.296875 C 5.660156 -11.296875 4.039062 -12.144531 3 -13.84375 C 1.96875 -15.539062 1.453125 -17.722656 1.453125 -20.390625 C 1.453125 -23.703125 2.109375 -26.25 3.421875 -28.03125 C 4.734375 -29.8125 6.847656 -30.703125 9.765625 -30.703125 C 12.628906 -30.703125 14.734375 -29.859375 16.078125 -28.171875 C 17.429688 -26.492188 18.109375 -24.132812 18.109375 -21.09375 L 18.109375 -9.796875 C 18.109375 -6.535156 17.492188 -4.007812 16.265625 -2.21875 C 15.046875 -0.4375 12.878906 0.453125 9.765625 0.453125 Z M 9.84375 -16.078125 C 10.582031 -16.078125 11.21875 -16.476562 11.75 -17.28125 L 11.75 -22.21875 C 11.75 -23.414062 11.609375 -24.363281 11.328125 -25.0625 C 11.054688 -25.757812 10.535156 -26.109375 9.765625 -26.109375 C 8.960938 -26.109375 8.441406 -25.710938 8.203125 -24.921875 C 7.972656 -24.140625 7.859375 -22.828125 7.859375 -20.984375 C 7.859375 -19.765625 7.894531 -18.835938 7.96875 -18.203125 C 8.039062 -17.566406 8.210938 -17.050781 8.484375 -16.65625 C 8.765625 -16.269531 9.21875 -16.078125 9.84375 -16.078125 Z M 9.84375 -16.078125 "/></g></g></g><g fill="#000000" fill-opacity="1"><g transform="translate(501.793319, 1310.430596)"><g><path d="M 4.96875 -24.125 C 4.695312 -23.976562 3.976562 -23.65625 2.8125 -23.15625 C 2.601562 -23.082031 2.285156 -22.957031 1.859375 -22.78125 C 1.441406 -22.601562 1.097656 -22.441406 0.828125 -22.296875 L 0.828125 -26.9375 C 3.816406 -28.476562 5.648438 -29.597656 6.328125 -30.296875 L 11.21875 -30.296875 L 11.21875 0 L 4.96875 0 Z M 4.96875 -24.125 "/></g></g></g><g fill="#000000" fill-opacity="1"><g transform="translate(516.342418, 1310.430596)"><g><path d="M 10.28125 0.5625 C 7.613281 0.5625 5.566406 -0.222656 4.140625 -1.796875 C 2.722656 -3.367188 2.015625 -5.472656 2.015625 -8.109375 L 2.015625 -21.84375 C 2.015625 -24.613281 2.707031 -26.789062 4.09375 -28.375 C 5.476562 -29.957031 7.539062 -30.75 10.28125 -30.75 C 13.03125 -30.75 15.085938 -29.957031 16.453125 -28.375 C 17.828125 -26.789062 18.515625 -24.613281 18.515625 -21.84375 L 18.515625 -8.109375 C 18.515625 -5.492188 17.796875 -3.394531 16.359375 -1.8125 C 14.929688 -0.226562 12.90625 0.5625 10.28125 0.5625 Z M 10.28125 -5.015625 C 11.0625 -5.015625 11.566406 -5.335938 11.796875 -5.984375 C 12.035156 -6.628906 12.15625 -7.390625 12.15625 -8.265625 L 12.15625 -21.703125 C 12.15625 -22.691406 12.046875 -23.515625 11.828125 -24.171875 C 11.617188 -24.835938 11.101562 -25.171875 10.28125 -25.171875 C 9.457031 -25.171875 8.941406 -24.847656 8.734375 -24.203125 C 8.523438 -23.554688 8.421875 -22.722656 8.421875 -21.703125 L 8.421875 -8.265625 C 8.421875 -6.097656 9.039062 -5.015625 10.28125 -5.015625 Z M 10.28125 -5.015625 "/></g></g></g><g fill="#000000" fill-opacity="1"><g transform="translate(536.913124, 1310.430596)"><g><path d="M 10.28125 0.5625 C 7.613281 0.5625 5.566406 -0.222656 4.140625 -1.796875 C 2.722656 -3.367188 2.015625 -5.472656 2.015625 -8.109375 L 2.015625 -21.84375 C 2.015625 -24.613281 2.707031 -26.789062 4.09375 -28.375 C 5.476562 -29.957031 7.539062 -30.75 10.28125 -30.75 C 13.03125 -30.75 15.085938 -29.957031 16.453125 -28.375 C 17.828125 -26.789062 18.515625 -24.613281 18.515625 -21.84375 L 18.515625 -8.109375 C 18.515625 -5.492188 17.796875 -3.394531 16.359375 -1.8125 C 14.929688 -0.226562 12.90625 0.5625 10.28125 0.5625 Z M 10.28125 -5.015625 C 11.0625 -5.015625 11.566406 -5.335938 11.796875 -5.984375 C 12.035156 -6.628906 12.15625 -7.390625 12.15625 -8.265625 L 12.15625 -21.703125 C 12.15625 -22.691406 12.046875 -23.515625 11.828125 -24.171875 C 11.617188 -24.835938 11.101562 -25.171875 10.28125 -25.171875 C 9.457031 -25.171875 8.941406 -24.847656 8.734375 -24.203125 C 8.523438 -23.554688 8.421875 -22.722656 8.421875 -21.703125 L 8.421875 -8.265625 C 8.421875 -6.097656 9.039062 -5.015625 10.28125 -5.015625 Z M 10.28125 -5.015625 "/></g></g></g><g fill="#000000" fill-opacity="1"><g transform="translate(557.483829, 1310.430596)"><g/></g></g><g fill="#000000" fill-opacity="1"><g transform="translate(567.058558, 1310.430596)"><g><path d="M 2.25 -30.296875 L 6.953125 -30.296875 L 13.171875 -15.703125 L 13.171875 -30.296875 L 18.703125 -30.296875 L 18.703125 0 L 14.171875 0 L 7.96875 -15.703125 L 7.96875 0 L 2.25 0 Z M 2.25 -30.296875 "/></g></g></g><g fill="#000000" fill-opacity="1"><g transform="translate(588.040681, 1310.430596)"><g><path d="M 2.25 -30.296875 L 10.140625 -30.296875 C 12.109375 -30.296875 13.785156 -30.085938 15.171875 -29.671875 C 16.554688 -29.265625 17.671875 -28.472656 18.515625 -27.296875 C 19.359375 -26.128906 19.78125 -24.488281 19.78125 -22.375 C 19.78125 -20.570312 19.394531 -19.171875 18.625 -18.171875 C 17.851562 -17.179688 16.757812 -16.546875 15.34375 -16.265625 C 17.082031 -16.046875 18.410156 -15.3125 19.328125 -14.0625 C 20.253906 -12.8125 20.71875 -11.117188 20.71875 -8.984375 C 20.71875 -2.992188 17.664062 0 11.5625 0 L 2.25 0 Z M 10.25 -18.171875 C 11.664062 -18.171875 12.628906 -18.492188 13.140625 -19.140625 C 13.660156 -19.796875 13.921875 -20.8125 13.921875 -22.1875 C 13.921875 -23.382812 13.59375 -24.285156 12.9375 -24.890625 C 12.289062 -25.503906 11.34375 -25.8125 10.09375 -25.8125 L 8.9375 -25.8125 L 8.9375 -18.171875 Z M 10.359375 -4.671875 C 11.785156 -4.671875 12.789062 -5.023438 13.375 -5.734375 C 13.957031 -6.453125 14.25 -7.570312 14.25 -9.09375 C 14.25 -10.8125 13.957031 -12.019531 13.375 -12.71875 C 12.789062 -13.414062 11.773438 -13.765625 10.328125 -13.765625 L 8.9375 -13.765625 L 8.9375 -4.671875 Z M 10.359375 -4.671875 "/></g></g></g><g fill="#000000" fill-opacity="1"><g transform="translate(122.60399, 1446.792799)"><g><path d="M 4.96875 -24.125 C 4.695312 -23.976562 3.976562 -23.65625 2.8125 -23.15625 C 2.601562 -23.082031 2.285156 -22.957031 1.859375 -22.78125 C 1.441406 -22.601562 1.097656 -22.441406 0.828125 -22.296875 L 0.828125 -26.9375 C 3.816406 -28.476562 5.648438 -29.597656 6.328125 -30.296875 L 11.21875 -30.296875 L 11.21875 0 L 4.96875 0 Z M 4.96875 -24.125 "/></g></g></g><g fill="#000000" fill-opacity="1"><g transform="translate(137.15309, 1446.792799)"><g><path d="M 10.28125 0.5625 C 7.613281 0.5625 5.566406 -0.222656 4.140625 -1.796875 C 2.722656 -3.367188 2.015625 -5.472656 2.015625 -8.109375 L 2.015625 -21.84375 C 2.015625 -24.613281 2.707031 -26.789062 4.09375 -28.375 C 5.476562 -29.957031 7.539062 -30.75 10.28125 -30.75 C 13.03125 -30.75 15.085938 -29.957031 16.453125 -28.375 C 17.828125 -26.789062 18.515625 -24.613281 18.515625 -21.84375 L 18.515625 -8.109375 C 18.515625 -5.492188 17.796875 -3.394531 16.359375 -1.8125 C 14.929688 -0.226562 12.90625 0.5625 10.28125 0.5625 Z M 10.28125 -5.015625 C 11.0625 -5.015625 11.566406 -5.335938 11.796875 -5.984375 C 12.035156 -6.628906 12.15625 -7.390625 12.15625 -8.265625 L 12.15625 -21.703125 C 12.15625 -22.691406 12.046875 -23.515625 11.828125 -24.171875 C 11.617188 -24.835938 11.101562 -25.171875 10.28125 -25.171875 C 9.457031 -25.171875 8.941406 -24.847656 8.734375 -24.203125 C 8.523438 -23.554688 8.421875 -22.722656 8.421875 -21.703125 L 8.421875 -8.265625 C 8.421875 -6.097656 9.039062 -5.015625 10.28125 -5.015625 Z M 10.28125 -5.015625 "/></g></g></g><g fill="#000000" fill-opacity="1"><g transform="translate(503.23453, 1446.792799)"><g><path d="M 4.96875 -24.125 C 4.695312 -23.976562 3.976562 -23.65625 2.8125 -23.15625 C 2.601562 -23.082031 2.285156 -22.957031 1.859375 -22.78125 C 1.441406 -22.601562 1.097656 -22.441406 0.828125 -22.296875 L 0.828125 -26.9375 C 3.816406 -28.476562 5.648438 -29.597656 6.328125 -30.296875 L 11.21875 -30.296875 L 11.21875 0 L 4.96875 0 Z M 4.96875 -24.125 "/></g></g></g><g fill="#000000" fill-opacity="1"><g transform="translate(517.783629, 1446.792799)"><g><path d="M 1.53125 -4.40625 L 8.796875 -15.5625 L 9.234375 -16.234375 C 10.179688 -17.648438 10.878906 -18.835938 11.328125 -19.796875 C 11.773438 -20.765625 12 -21.769531 12 -22.8125 C 12 -23.664062 11.832031 -24.3125 11.5 -24.75 C 11.164062 -25.1875 10.6875 -25.40625 10.0625 -25.40625 C 9.113281 -25.40625 8.453125 -25.035156 8.078125 -24.296875 C 7.703125 -23.554688 7.515625 -22.539062 7.515625 -21.25 L 7.515625 -19.75 L 1.453125 -19.75 L 1.453125 -21.359375 C 1.453125 -24.203125 2.144531 -26.46875 3.53125 -28.15625 C 4.914062 -29.851562 7.054688 -30.703125 9.953125 -30.703125 C 12.617188 -30.703125 14.65625 -30.003906 16.0625 -28.609375 C 17.46875 -27.210938 18.171875 -25.242188 18.171875 -22.703125 C 18.171875 -21.554688 17.988281 -20.472656 17.625 -19.453125 C 17.269531 -18.429688 16.84375 -17.507812 16.34375 -16.6875 C 15.84375 -15.863281 15.070312 -14.691406 14.03125 -13.171875 L 8.484375 -4.90625 L 17.359375 -4.90625 L 17.359375 0 L 1.53125 0 Z M 1.53125 -4.40625 "/></g></g></g><g fill="#000000" fill-opacity="1"><g transform="translate(537.007887, 1446.792799)"><g><path d="M 9.53125 0.5625 C 7.394531 0.5625 5.75 0.179688 4.59375 -0.578125 C 3.445312 -1.335938 2.660156 -2.390625 2.234375 -3.734375 C 1.816406 -5.085938 1.609375 -6.796875 1.609375 -8.859375 L 7.625 -8.859375 C 7.625 -7.085938 7.765625 -5.847656 8.046875 -5.140625 C 8.335938 -4.429688 8.910156 -4.078125 9.765625 -4.078125 C 10.429688 -4.078125 10.921875 -4.304688 11.234375 -4.765625 C 11.546875 -5.234375 11.738281 -5.882812 11.8125 -6.71875 C 11.894531 -7.550781 11.9375 -8.78125 11.9375 -10.40625 C 11.9375 -12.09375 11.769531 -13.378906 11.4375 -14.265625 C 11.113281 -15.148438 10.492188 -15.59375 9.578125 -15.59375 C 8.304688 -15.59375 7.507812 -14.671875 7.1875 -12.828125 L 1.796875 -12.828125 L 2.359375 -30.296875 L 16.5 -30.296875 L 16.5 -25.0625 L 7.375 -25.0625 L 7.03125 -18.8125 C 7.300781 -19.207031 7.878906 -19.550781 8.765625 -19.84375 C 9.648438 -20.132812 10.554688 -20.28125 11.484375 -20.28125 C 13.523438 -20.28125 15.085938 -19.429688 16.171875 -17.734375 C 17.265625 -16.035156 17.8125 -13.640625 17.8125 -10.546875 C 17.8125 -8.128906 17.597656 -6.128906 17.171875 -4.546875 C 16.742188 -2.960938 15.929688 -1.710938 14.734375 -0.796875 C 13.535156 0.109375 11.800781 0.5625 9.53125 0.5625 Z M 9.53125 0.5625 "/></g></g></g><g fill="#000000" fill-opacity="1"><g transform="translate(556.045139, 1446.792799)"><g/></g></g><g fill="#000000" fill-opacity="1"><g transform="translate(565.619869, 1446.792799)"><g><path d="M 2.25 -30.296875 L 6.953125 -30.296875 L 13.171875 -15.703125 L 13.171875 -30.296875 L 18.703125 -30.296875 L 18.703125 0 L 14.171875 0 L 7.96875 -15.703125 L 7.96875 0 L 2.25 0 Z M 2.25 -30.296875 "/></g></g></g><g fill="#000000" fill-opacity="1"><g transform="translate(586.601991, 1446.792799)"><g><path d="M 2.25 -30.296875 L 10.140625 -30.296875 C 12.109375 -30.296875 13.785156 -30.085938 15.171875 -29.671875 C 16.554688 -29.265625 17.671875 -28.472656 18.515625 -27.296875 C 19.359375 -26.128906 19.78125 -24.488281 19.78125 -22.375 C 19.78125 -20.570312 19.394531 -19.171875 18.625 -18.171875 C 17.851562 -17.179688 16.757812 -16.546875 15.34375 -16.265625 C 17.082031 -16.046875 18.410156 -15.3125 19.328125 -14.0625 C 20.253906 -12.8125 20.71875 -11.117188 20.71875 -8.984375 C 20.71875 -2.992188 17.664062 0 11.5625 0 L 2.25 0 Z M 10.25 -18.171875 C 11.664062 -18.171875 12.628906 -18.492188 13.140625 -19.140625 C 13.660156 -19.796875 13.921875 -20.8125 13.921875 -22.1875 C 13.921875 -23.382812 13.59375 -24.285156 12.9375 -24.890625 C 12.289062 -25.503906 11.34375 -25.8125 10.09375 -25.8125 L 8.9375 -25.8125 L 8.9375 -18.171875 Z M 10.359375 -4.671875 C 11.785156 -4.671875 12.789062 -5.023438 13.375 -5.734375 C 13.957031 -6.453125 14.25 -7.570312 14.25 -9.09375 C 14.25 -10.8125 13.957031 -12.019531 13.375 -12.71875 C 12.789062 -13.414062 11.773438 -13.765625 10.328125 -13.765625 L 8.9375 -13.765625 L 8.9375 -4.671875 Z M 10.359375 -4.671875 "/></g></g></g><g fill="#000000" fill-opacity="1"><g transform="translate(125.615308, 1583.154979)"><g><path d="M 4.96875 -24.125 C 4.695312 -23.976562 3.976562 -23.65625 2.8125 -23.15625 C 2.601562 -23.082031 2.285156 -22.957031 1.859375 -22.78125 C 1.441406 -22.601562 1.097656 -22.441406 0.828125 -22.296875 L 0.828125 -26.9375 C 3.816406 -28.476562 5.648438 -29.597656 6.328125 -30.296875 L 11.21875 -30.296875 L 11.21875 0 L 4.96875 0 Z M 4.96875 -24.125 "/></g></g></g><g fill="#000000" fill-opacity="1"><g transform="translate(140.164408, 1583.154979)"><g><path d="M 4.96875 -24.125 C 4.695312 -23.976562 3.976562 -23.65625 2.8125 -23.15625 C 2.601562 -23.082031 2.285156 -22.957031 1.859375 -22.78125 C 1.441406 -22.601562 1.097656 -22.441406 0.828125 -22.296875 L 0.828125 -26.9375 C 3.816406 -28.476562 5.648438 -29.597656 6.328125 -30.296875 L 11.21875 -30.296875 L 11.21875 0 L 4.96875 0 Z M 4.96875 -24.125 "/></g></g></g><g fill="#000000" fill-opacity="1"><g transform="translate(502.566654, 1583.154979)"><g><path d="M 4.96875 -24.125 C 4.695312 -23.976562 3.976562 -23.65625 2.8125 -23.15625 C 2.601562 -23.082031 2.285156 -22.957031 1.859375 -22.78125 C 1.441406 -22.601562 1.097656 -22.441406 0.828125 -22.296875 L 0.828125 -26.9375 C 3.816406 -28.476562 5.648438 -29.597656 6.328125 -30.296875 L 11.21875 -30.296875 L 11.21875 0 L 4.96875 0 Z M 4.96875 -24.125 "/></g></g></g><g fill="#000000" fill-opacity="1"><g transform="translate(517.115753, 1583.154979)"><g><path d="M 9.53125 0.5625 C 7.394531 0.5625 5.75 0.179688 4.59375 -0.578125 C 3.445312 -1.335938 2.660156 -2.390625 2.234375 -3.734375 C 1.816406 -5.085938 1.609375 -6.796875 1.609375 -8.859375 L 7.625 -8.859375 C 7.625 -7.085938 7.765625 -5.847656 8.046875 -5.140625 C 8.335938 -4.429688 8.910156 -4.078125 9.765625 -4.078125 C 10.429688 -4.078125 10.921875 -4.304688 11.234375 -4.765625 C 11.546875 -5.234375 11.738281 -5.882812 11.8125 -6.71875 C 11.894531 -7.550781 11.9375 -8.78125 11.9375 -10.40625 C 11.9375 -12.09375 11.769531 -13.378906 11.4375 -14.265625 C 11.113281 -15.148438 10.492188 -15.59375 9.578125 -15.59375 C 8.304688 -15.59375 7.507812 -14.671875 7.1875 -12.828125 L 1.796875 -12.828125 L 2.359375 -30.296875 L 16.5 -30.296875 L 16.5 -25.0625 L 7.375 -25.0625 L 7.03125 -18.8125 C 7.300781 -19.207031 7.878906 -19.550781 8.765625 -19.84375 C 9.648438 -20.132812 10.554688 -20.28125 11.484375 -20.28125 C 13.523438 -20.28125 15.085938 -19.429688 16.171875 -17.734375 C 17.265625 -16.035156 17.8125 -13.640625 17.8125 -10.546875 C 17.8125 -8.128906 17.597656 -6.128906 17.171875 -4.546875 C 16.742188 -2.960938 15.929688 -1.710938 14.734375 -0.796875 C 13.535156 0.109375 11.800781 0.5625 9.53125 0.5625 Z M 9.53125 0.5625 "/></g></g></g><g fill="#000000" fill-opacity="1"><g transform="translate(536.153005, 1583.154979)"><g><path d="M 10.28125 0.5625 C 7.613281 0.5625 5.566406 -0.222656 4.140625 -1.796875 C 2.722656 -3.367188 2.015625 -5.472656 2.015625 -8.109375 L 2.015625 -21.84375 C 2.015625 -24.613281 2.707031 -26.789062 4.09375 -28.375 C 5.476562 -29.957031 7.539062 -30.75 10.28125 -30.75 C 13.03125 -30.75 15.085938 -29.957031 16.453125 -28.375 C 17.828125 -26.789062 18.515625 -24.613281 18.515625 -21.84375 L 18.515625 -8.109375 C 18.515625 -5.492188 17.796875 -3.394531 16.359375 -1.8125 C 14.929688 -0.226562 12.90625 0.5625 10.28125 0.5625 Z M 10.28125 -5.015625 C 11.0625 -5.015625 11.566406 -5.335938 11.796875 -5.984375 C 12.035156 -6.628906 12.15625 -7.390625 12.15625 -8.265625 L 12.15625 -21.703125 C 12.15625 -22.691406 12.046875 -23.515625 11.828125 -24.171875 C 11.617188 -24.835938 11.101562 -25.171875 10.28125 -25.171875 C 9.457031 -25.171875 8.941406 -24.847656 8.734375 -24.203125 C 8.523438 -23.554688 8.421875 -22.722656 8.421875 -21.703125 L 8.421875 -8.265625 C 8.421875 -6.097656 9.039062 -5.015625 10.28125 -5.015625 Z M 10.28125 -5.015625 "/></g></g></g><g fill="#000000" fill-opacity="1"><g transform="translate(556.72371, 1583.154979)"><g/></g></g><g fill="#000000" fill-opacity="1"><g transform="translate(566.29844, 1583.154979)"><g><path d="M 2.25 -30.296875 L 6.953125 -30.296875 L 13.171875 -15.703125 L 13.171875 -30.296875 L 18.703125 -30.296875 L 18.703125 0 L 14.171875 0 L 7.96875 -15.703125 L 7.96875 0 L 2.25 0 Z M 2.25 -30.296875 "/></g></g></g><g fill="#000000" fill-opacity="1"><g transform="translate(587.280563, 1583.154979)"><g><path d="M 2.25 -30.296875 L 10.140625 -30.296875 C 12.109375 -30.296875 13.785156 -30.085938 15.171875 -29.671875 C 16.554688 -29.265625 17.671875 -28.472656 18.515625 -27.296875 C 19.359375 -26.128906 19.78125 -24.488281 19.78125 -22.375 C 19.78125 -20.570312 19.394531 -19.171875 18.625 -18.171875 C 17.851562 -17.179688 16.757812 -16.546875 15.34375 -16.265625 C 17.082031 -16.046875 18.410156 -15.3125 19.328125 -14.0625 C 20.253906 -12.8125 20.71875 -11.117188 20.71875 -8.984375 C 20.71875 -2.992188 17.664062 0 11.5625 0 L 2.25 0 Z M 10.25 -18.171875 C 11.664062 -18.171875 12.628906 -18.492188 13.140625 -19.140625 C 13.660156 -19.796875 13.921875 -20.8125 13.921875 -22.1875 C 13.921875 -23.382812 13.59375 -24.285156 12.9375 -24.890625 C 12.289062 -25.503906 11.34375 -25.8125 10.09375 -25.8125 L 8.9375 -25.8125 L 8.9375 -18.171875 Z M 10.359375 -4.671875 C 11.785156 -4.671875 12.789062 -5.023438 13.375 -5.734375 C 13.957031 -6.453125 14.25 -7.570312 14.25 -9.09375 C 14.25 -10.8125 13.957031 -12.019531 13.375 -12.71875 C 12.789062 -13.414062 11.773438 -13.765625 10.328125 -13.765625 L 8.9375 -13.765625 L 8.9375 -4.671875 Z M 10.359375 -4.671875 "/></g></g></g><g fill="#000000" fill-opacity="1"><g transform="translate(123.283587, 1719.517182)"><g><path d="M 4.96875 -24.125 C 4.695312 -23.976562 3.976562 -23.65625 2.8125 -23.15625 C 2.601562 -23.082031 2.285156 -22.957031 1.859375 -22.78125 C 1.441406 -22.601562 1.097656 -22.441406 0.828125 -22.296875 L 0.828125 -26.9375 C 3.816406 -28.476562 5.648438 -29.597656 6.328125 -30.296875 L 11.21875 -30.296875 L 11.21875 0 L 4.96875 0 Z M 4.96875 -24.125 "/></g></g></g><g fill="#000000" fill-opacity="1"><g transform="translate(137.832687, 1719.517182)"><g><path d="M 1.53125 -4.40625 L 8.796875 -15.5625 L 9.234375 -16.234375 C 10.179688 -17.648438 10.878906 -18.835938 11.328125 -19.796875 C 11.773438 -20.765625 12 -21.769531 12 -22.8125 C 12 -23.664062 11.832031 -24.3125 11.5 -24.75 C 11.164062 -25.1875 10.6875 -25.40625 10.0625 -25.40625 C 9.113281 -25.40625 8.453125 -25.035156 8.078125 -24.296875 C 7.703125 -23.554688 7.515625 -22.539062 7.515625 -21.25 L 7.515625 -19.75 L 1.453125 -19.75 L 1.453125 -21.359375 C 1.453125 -24.203125 2.144531 -26.46875 3.53125 -28.15625 C 4.914062 -29.851562 7.054688 -30.703125 9.953125 -30.703125 C 12.617188 -30.703125 14.65625 -30.003906 16.0625 -28.609375 C 17.46875 -27.210938 18.171875 -25.242188 18.171875 -22.703125 C 18.171875 -21.554688 17.988281 -20.472656 17.625 -19.453125 C 17.269531 -18.429688 16.84375 -17.507812 16.34375 -16.6875 C 15.84375 -15.863281 15.070312 -14.691406 14.03125 -13.171875 L 8.484375 -4.90625 L 17.359375 -4.90625 L 17.359375 0 L 1.53125 0 Z M 1.53125 -4.40625 "/></g></g></g><g fill="#000000" fill-opacity="1"><g transform="translate(499.461594, 1719.517182)"><g><path d="M 1.53125 -4.40625 L 8.796875 -15.5625 L 9.234375 -16.234375 C 10.179688 -17.648438 10.878906 -18.835938 11.328125 -19.796875 C 11.773438 -20.765625 12 -21.769531 12 -22.8125 C 12 -23.664062 11.832031 -24.3125 11.5 -24.75 C 11.164062 -25.1875 10.6875 -25.40625 10.0625 -25.40625 C 9.113281 -25.40625 8.453125 -25.035156 8.078125 -24.296875 C 7.703125 -23.554688 7.515625 -22.539062 7.515625 -21.25 L 7.515625 -19.75 L 1.453125 -19.75 L 1.453125 -21.359375 C 1.453125 -24.203125 2.144531 -26.46875 3.53125 -28.15625 C 4.914062 -29.851562 7.054688 -30.703125 9.953125 -30.703125 C 12.617188 -30.703125 14.65625 -30.003906 16.0625 -28.609375 C 17.46875 -27.210938 18.171875 -25.242188 18.171875 -22.703125 C 18.171875 -21.554688 17.988281 -20.472656 17.625 -19.453125 C 17.269531 -18.429688 16.84375 -17.507812 16.34375 -16.6875 C 15.84375 -15.863281 15.070312 -14.691406 14.03125 -13.171875 L 8.484375 -4.90625 L 17.359375 -4.90625 L 17.359375 0 L 1.53125 0 Z M 1.53125 -4.40625 "/></g></g></g><g fill="#000000" fill-opacity="1"><g transform="translate(518.685852, 1719.517182)"><g><path d="M 10.28125 0.5625 C 7.613281 0.5625 5.566406 -0.222656 4.140625 -1.796875 C 2.722656 -3.367188 2.015625 -5.472656 2.015625 -8.109375 L 2.015625 -21.84375 C 2.015625 -24.613281 2.707031 -26.789062 4.09375 -28.375 C 5.476562 -29.957031 7.539062 -30.75 10.28125 -30.75 C 13.03125 -30.75 15.085938 -29.957031 16.453125 -28.375 C 17.828125 -26.789062 18.515625 -24.613281 18.515625 -21.84375 L 18.515625 -8.109375 C 18.515625 -5.492188 17.796875 -3.394531 16.359375 -1.8125 C 14.929688 -0.226562 12.90625 0.5625 10.28125 0.5625 Z M 10.28125 -5.015625 C 11.0625 -5.015625 11.566406 -5.335938 11.796875 -5.984375 C 12.035156 -6.628906 12.15625 -7.390625 12.15625 -8.265625 L 12.15625 -21.703125 C 12.15625 -22.691406 12.046875 -23.515625 11.828125 -24.171875 C 11.617188 -24.835938 11.101562 -25.171875 10.28125 -25.171875 C 9.457031 -25.171875 8.941406 -24.847656 8.734375 -24.203125 C 8.523438 -23.554688 8.421875 -22.722656 8.421875 -21.703125 L 8.421875 -8.265625 C 8.421875 -6.097656 9.039062 -5.015625 10.28125 -5.015625 Z M 10.28125 -5.015625 "/></g></g></g><g fill="#000000" fill-opacity="1"><g transform="translate(539.256558, 1719.517182)"><g><path d="M 10.28125 0.5625 C 7.613281 0.5625 5.566406 -0.222656 4.140625 -1.796875 C 2.722656 -3.367188 2.015625 -5.472656 2.015625 -8.109375 L 2.015625 -21.84375 C 2.015625 -24.613281 2.707031 -26.789062 4.09375 -28.375 C 5.476562 -29.957031 7.539062 -30.75 10.28125 -30.75 C 13.03125 -30.75 15.085938 -29.957031 16.453125 -28.375 C 17.828125 -26.789062 18.515625 -24.613281 18.515625 -21.84375 L 18.515625 -8.109375 C 18.515625 -5.492188 17.796875 -3.394531 16.359375 -1.8125 C 14.929688 -0.226562 12.90625 0.5625 10.28125 0.5625 Z M 10.28125 -5.015625 C 11.0625 -5.015625 11.566406 -5.335938 11.796875 -5.984375 C 12.035156 -6.628906 12.15625 -7.390625 12.15625 -8.265625 L 12.15625 -21.703125 C 12.15625 -22.691406 12.046875 -23.515625 11.828125 -24.171875 C 11.617188 -24.835938 11.101562 -25.171875 10.28125 -25.171875 C 9.457031 -25.171875 8.941406 -24.847656 8.734375 -24.203125 C 8.523438 -23.554688 8.421875 -22.722656 8.421875 -21.703125 L 8.421875 -8.265625 C 8.421875 -6.097656 9.039062 -5.015625 10.28125 -5.015625 Z M 10.28125 -5.015625 "/></g></g></g><g fill="#000000" fill-opacity="1"><g transform="translate(559.827263, 1719.517182)"><g/></g></g><g fill="#000000" fill-opacity="1"><g transform="translate(569.401992, 1719.517182)"><g><path d="M 2.25 -30.296875 L 6.953125 -30.296875 L 13.171875 -15.703125 L 13.171875 -30.296875 L 18.703125 -30.296875 L 18.703125 0 L 14.171875 0 L 7.96875 -15.703125 L 7.96875 0 L 2.25 0 Z M 2.25 -30.296875 "/></g></g></g><g fill="#000000" fill-opacity="1"><g transform="translate(590.384115, 1719.517182)"><g><path d="M 2.25 -30.296875 L 10.140625 -30.296875 C 12.109375 -30.296875 13.785156 -30.085938 15.171875 -29.671875 C 16.554688 -29.265625 17.671875 -28.472656 18.515625 -27.296875 C 19.359375 -26.128906 19.78125 -24.488281 19.78125 -22.375 C 19.78125 -20.570312 19.394531 -19.171875 18.625 -18.171875 C 17.851562 -17.179688 16.757812 -16.546875 15.34375 -16.265625 C 17.082031 -16.046875 18.410156 -15.3125 19.328125 -14.0625 C 20.253906 -12.8125 20.71875 -11.117188 20.71875 -8.984375 C 20.71875 -2.992188 17.664062 0 11.5625 0 L 2.25 0 Z M 10.25 -18.171875 C 11.664062 -18.171875 12.628906 -18.492188 13.140625 -19.140625 C 13.660156 -19.796875 13.921875 -20.8125 13.921875 -22.1875 C 13.921875 -23.382812 13.59375 -24.285156 12.9375 -24.890625 C 12.289062 -25.503906 11.34375 -25.8125 10.09375 -25.8125 L 8.9375 -25.8125 L 8.9375 -18.171875 Z M 10.359375 -4.671875 C 11.785156 -4.671875 12.789062 -5.023438 13.375 -5.734375 C 13.957031 -6.453125 14.25 -7.570312 14.25 -9.09375 C 14.25 -10.8125 13.957031 -12.019531 13.375 -12.71875 C 12.789062 -13.414062 11.773438 -13.765625 10.328125 -13.765625 L 8.9375 -13.765625 L 8.9375 -4.671875 Z M 10.359375 -4.671875 "/></g></g></g><g fill="#000000" fill-opacity="1"><g transform="translate(123.283587, 1855.879265)"><g><path d="M 4.96875 -24.125 C 4.695312 -23.976562 3.976562 -23.65625 2.8125 -23.15625 C 2.601562 -23.082031 2.285156 -22.957031 1.859375 -22.78125 C 1.441406 -22.601562 1.097656 -22.441406 0.828125 -22.296875 L 0.828125 -26.9375 C 3.816406 -28.476562 5.648438 -29.597656 6.328125 -30.296875 L 11.21875 -30.296875 L 11.21875 0 L 4.96875 0 Z M 4.96875 -24.125 "/></g></g></g><g fill="#000000" fill-opacity="1"><g transform="translate(137.832687, 1855.879265)"><g><path d="M 9.765625 0.5625 C 6.742188 0.5625 4.597656 -0.257812 3.328125 -1.90625 C 2.054688 -3.550781 1.421875 -5.894531 1.421875 -8.9375 L 1.421875 -10.03125 L 7.671875 -10.03125 L 7.671875 -8.9375 C 7.671875 -7.394531 7.828125 -6.304688 8.140625 -5.671875 C 8.453125 -5.035156 9.03125 -4.71875 9.875 -4.71875 C 10.675781 -4.71875 11.210938 -5.023438 11.484375 -5.640625 C 11.753906 -6.265625 11.890625 -7.300781 11.890625 -8.75 C 11.890625 -10.34375 11.664062 -11.507812 11.21875 -12.25 C 10.769531 -12.988281 9.9375 -13.367188 8.71875 -13.390625 L 7.5625 -13.390625 L 7.5625 -17.6875 L 8.5625 -17.6875 C 9.832031 -17.6875 10.703125 -18.03125 11.171875 -18.71875 C 11.648438 -19.40625 11.890625 -20.546875 11.890625 -22.140625 C 11.890625 -23.367188 11.726562 -24.28125 11.40625 -24.875 C 11.082031 -25.46875 10.507812 -25.765625 9.6875 -25.765625 C 8.914062 -25.765625 8.382812 -25.445312 8.09375 -24.8125 C 7.8125 -24.175781 7.671875 -23.25 7.671875 -22.03125 L 7.671875 -20.46875 L 1.421875 -20.46875 L 1.421875 -22.296875 C 1.421875 -25.015625 2.148438 -27.101562 3.609375 -28.5625 C 5.066406 -30.019531 7.09375 -30.75 9.6875 -30.75 C 12.332031 -30.75 14.390625 -30.050781 15.859375 -28.65625 C 17.328125 -27.257812 18.0625 -25.226562 18.0625 -22.5625 C 18.0625 -20.832031 17.710938 -19.363281 17.015625 -18.15625 C 16.316406 -16.945312 15.429688 -16.191406 14.359375 -15.890625 C 15.503906 -15.472656 16.40625 -14.710938 17.0625 -13.609375 C 17.726562 -12.515625 18.0625 -10.945312 18.0625 -8.90625 C 18.0625 -5.957031 17.398438 -3.640625 16.078125 -1.953125 C 14.765625 -0.273438 12.660156 0.5625 9.765625 0.5625 Z M 9.765625 0.5625 "/></g></g></g><g fill="#000000" fill-opacity="1"><g transform="translate(500.223216, 1855.879265)"><g><path d="M 1.53125 -4.40625 L 8.796875 -15.5625 L 9.234375 -16.234375 C 10.179688 -17.648438 10.878906 -18.835938 11.328125 -19.796875 C 11.773438 -20.765625 12 -21.769531 12 -22.8125 C 12 -23.664062 11.832031 -24.3125 11.5 -24.75 C 11.164062 -25.1875 10.6875 -25.40625 10.0625 -25.40625 C 9.113281 -25.40625 8.453125 -25.035156 8.078125 -24.296875 C 7.703125 -23.554688 7.515625 -22.539062 7.515625 -21.25 L 7.515625 -19.75 L 1.453125 -19.75 L 1.453125 -21.359375 C 1.453125 -24.203125 2.144531 -26.46875 3.53125 -28.15625 C 4.914062 -29.851562 7.054688 -30.703125 9.953125 -30.703125 C 12.617188 -30.703125 14.65625 -30.003906 16.0625 -28.609375 C 17.46875 -27.210938 18.171875 -25.242188 18.171875 -22.703125 C 18.171875 -21.554688 17.988281 -20.472656 17.625 -19.453125 C 17.269531 -18.429688 16.84375 -17.507812 16.34375 -16.6875 C 15.84375 -15.863281 15.070312 -14.691406 14.03125 -13.171875 L 8.484375 -4.90625 L 17.359375 -4.90625 L 17.359375 0 L 1.53125 0 Z M 1.53125 -4.40625 "/></g></g></g><g fill="#000000" fill-opacity="1"><g transform="translate(519.447474, 1855.879265)"><g><path d="M 9.53125 0.5625 C 7.394531 0.5625 5.75 0.179688 4.59375 -0.578125 C 3.445312 -1.335938 2.660156 -2.390625 2.234375 -3.734375 C 1.816406 -5.085938 1.609375 -6.796875 1.609375 -8.859375 L 7.625 -8.859375 C 7.625 -7.085938 7.765625 -5.847656 8.046875 -5.140625 C 8.335938 -4.429688 8.910156 -4.078125 9.765625 -4.078125 C 10.429688 -4.078125 10.921875 -4.304688 11.234375 -4.765625 C 11.546875 -5.234375 11.738281 -5.882812 11.8125 -6.71875 C 11.894531 -7.550781 11.9375 -8.78125 11.9375 -10.40625 C 11.9375 -12.09375 11.769531 -13.378906 11.4375 -14.265625 C 11.113281 -15.148438 10.492188 -15.59375 9.578125 -15.59375 C 8.304688 -15.59375 7.507812 -14.671875 7.1875 -12.828125 L 1.796875 -12.828125 L 2.359375 -30.296875 L 16.5 -30.296875 L 16.5 -25.0625 L 7.375 -25.0625 L 7.03125 -18.8125 C 7.300781 -19.207031 7.878906 -19.550781 8.765625 -19.84375 C 9.648438 -20.132812 10.554688 -20.28125 11.484375 -20.28125 C 13.523438 -20.28125 15.085938 -19.429688 16.171875 -17.734375 C 17.265625 -16.035156 17.8125 -13.640625 17.8125 -10.546875 C 17.8125 -8.128906 17.597656 -6.128906 17.171875 -4.546875 C 16.742188 -2.960938 15.929688 -1.710938 14.734375 -0.796875 C 13.535156 0.109375 11.800781 0.5625 9.53125 0.5625 Z M 9.53125 0.5625 "/></g></g></g><g fill="#000000" fill-opacity="1"><g transform="translate(538.484726, 1855.879265)"><g><path d="M 10.28125 0.5625 C 7.613281 0.5625 5.566406 -0.222656 4.140625 -1.796875 C 2.722656 -3.367188 2.015625 -5.472656 2.015625 -8.109375 L 2.015625 -21.84375 C 2.015625 -24.613281 2.707031 -26.789062 4.09375 -28.375 C 5.476562 -29.957031 7.539062 -30.75 10.28125 -30.75 C 13.03125 -30.75 15.085938 -29.957031 16.453125 -28.375 C 17.828125 -26.789062 18.515625 -24.613281 18.515625 -21.84375 L 18.515625 -8.109375 C 18.515625 -5.492188 17.796875 -3.394531 16.359375 -1.8125 C 14.929688 -0.226562 12.90625 0.5625 10.28125 0.5625 Z M 10.28125 -5.015625 C 11.0625 -5.015625 11.566406 -5.335938 11.796875 -5.984375 C 12.035156 -6.628906 12.15625 -7.390625 12.15625 -8.265625 L 12.15625 -21.703125 C 12.15625 -22.691406 12.046875 -23.515625 11.828125 -24.171875 C 11.617188 -24.835938 11.101562 -25.171875 10.28125 -25.171875 C 9.457031 -25.171875 8.941406 -24.847656 8.734375 -24.203125 C 8.523438 -23.554688 8.421875 -22.722656 8.421875 -21.703125 L 8.421875 -8.265625 C 8.421875 -6.097656 9.039062 -5.015625 10.28125 -5.015625 Z M 10.28125 -5.015625 "/></g></g></g><g fill="#000000" fill-opacity="1"><g transform="translate(559.055431, 1855.879265)"><g/></g></g><g fill="#000000" fill-opacity="1"><g transform="translate(568.63016, 1855.879265)"><g><path d="M 2.25 -30.296875 L 6.953125 -30.296875 L 13.171875 -15.703125 L 13.171875 -30.296875 L 18.703125 -30.296875 L 18.703125 0 L 14.171875 0 L 7.96875 -15.703125 L 7.96875 0 L 2.25 0 Z M 2.25 -30.296875 "/></g></g></g><g fill="#000000" fill-opacity="1"><g transform="translate(589.612283, 1855.879265)"><g><path d="M 2.25 -30.296875 L 10.140625 -30.296875 C 12.109375 -30.296875 13.785156 -30.085938 15.171875 -29.671875 C 16.554688 -29.265625 17.671875 -28.472656 18.515625 -27.296875 C 19.359375 -26.128906 19.78125 -24.488281 19.78125 -22.375 C 19.78125 -20.570312 19.394531 -19.171875 18.625 -18.171875 C 17.851562 -17.179688 16.757812 -16.546875 15.34375 -16.265625 C 17.082031 -16.046875 18.410156 -15.3125 19.328125 -14.0625 C 20.253906 -12.8125 20.71875 -11.117188 20.71875 -8.984375 C 20.71875 -2.992188 17.664062 0 11.5625 0 L 2.25 0 Z M 10.25 -18.171875 C 11.664062 -18.171875 12.628906 -18.492188 13.140625 -19.140625 C 13.660156 -19.796875 13.921875 -20.8125 13.921875 -22.1875 C 13.921875 -23.382812 13.59375 -24.285156 12.9375 -24.890625 C 12.289062 -25.503906 11.34375 -25.8125 10.09375 -25.8125 L 8.9375 -25.8125 L 8.9375 -18.171875 Z M 10.359375 -4.671875 C 11.785156 -4.671875 12.789062 -5.023438 13.375 -5.734375 C 13.957031 -6.453125 14.25 -7.570312 14.25 -9.09375 C 14.25 -10.8125 13.957031 -12.019531 13.375 -12.71875 C 12.789062 -13.414062 11.773438 -13.765625 10.328125 -13.765625 L 8.9375 -13.765625 L 8.9375 -4.671875 Z M 10.359375 -4.671875 "/></g></g></g></svg>