<svg xmlns="http://www.w3.org/2000/svg" xmlns:xlink="http://www.w3.org/1999/xlink" width="1080" zoomAndPan="magnify" viewBox="0 0 810 1724.999932" height="2300" preserveAspectRatio="xMidYMid meet" version="1.0"><defs><g/></defs><path fill="#0a172b" d="M 0 0 L 281.28125 0 L 281.28125 298.476562 L 0 298.476562 Z M 290.199219 0 L 810 0 L 810 298.476562 L 290.199219 298.476562 Z M 290.199219 0 " fill-opacity="1" fill-rule="nonzero"/><path fill="#e3e8ff" d="M 0 307.394531 L 281.28125 307.394531 L 281.28125 536.230469 L 0 536.230469 Z M 290.199219 307.394531 L 810 307.394531 L 810 536.230469 L 290.199219 536.230469 Z M 0 545.148438 L 281.28125 545.148438 L 281.28125 773.984375 L 0 773.984375 Z M 290.199219 545.148438 L 810 545.148438 L 810 773.984375 L 290.199219 773.984375 Z M 0 782.902344 L 281.28125 782.902344 L 281.28125 1011.738281 L 0 1011.738281 Z M 290.199219 782.902344 L 810 782.902344 L 810 1011.738281 L 290.199219 1011.738281 Z M 0 1020.65625 L 281.28125 1020.65625 L 281.28125 1249.492188 L 0 1249.492188 Z M 290.199219 1020.65625 L 810 1020.65625 L 810 1249.492188 L 290.199219 1249.492188 Z M 0 1258.410156 L 281.28125 1258.410156 L 281.28125 1487.246094 L 0 1487.246094 Z M 290.199219 1258.410156 L 810 1258.410156 L 810 1487.246094 L 290.199219 1487.246094 Z M 0 1496.164062 L 281.28125 1496.164062 L 281.28125 1725 L 0 1725 Z M 290.199219 1496.164062 L 810 1496.164062 L 810 1725 L 290.199219 1725 Z M 290.199219 1496.164062 " fill-opacity="1" fill-rule="nonzero"/><g fill="#ffffff" fill-opacity="1"><g transform="translate(51.65221, 185.739953)"><g><path d="M 22.296875 0.96875 C 16.023438 0.96875 11.363281 -0.691406 8.3125 -4.015625 C 5.257812 -7.335938 3.625 -12.617188 3.40625 -19.859375 L 15.8125 -21.734375 C 15.863281 -17.566406 16.363281 -14.578125 17.3125 -12.765625 C 18.257812 -10.953125 19.675781 -10.046875 21.5625 -10.046875 C 24 -10.046875 25.21875 -11.644531 25.21875 -14.84375 C 25.21875 -17.375 24.632812 -19.554688 23.46875 -21.390625 C 22.3125 -23.234375 20.488281 -25.210938 18 -27.328125 L 12.328125 -32.265625 C 9.515625 -34.648438 7.335938 -37.175781 5.796875 -39.84375 C 4.253906 -42.519531 3.484375 -45.695312 3.484375 -49.375 C 3.484375 -54.882812 5.117188 -59.125 8.390625 -62.09375 C 11.660156 -65.070312 16.160156 -66.5625 21.890625 -66.5625 C 28.109375 -66.5625 32.335938 -64.75 34.578125 -61.125 C 36.816406 -57.507812 38.019531 -53.109375 38.1875 -47.921875 L 25.703125 -46.375 C 25.597656 -49.78125 25.285156 -52.222656 24.765625 -53.703125 C 24.253906 -55.191406 23.132812 -55.9375 21.40625 -55.9375 C 20.164062 -55.9375 19.207031 -55.410156 18.53125 -54.359375 C 17.851562 -53.304688 17.515625 -52.132812 17.515625 -50.84375 C 17.515625 -48.625 18.015625 -46.753906 19.015625 -45.234375 C 20.015625 -43.722656 21.625 -41.992188 23.84375 -40.046875 L 29.265625 -35.265625 C 32.515625 -32.515625 35.03125 -29.597656 36.8125 -26.515625 C 38.59375 -23.429688 39.484375 -19.78125 39.484375 -15.5625 C 39.484375 -12.488281 38.765625 -9.691406 37.328125 -7.171875 C 35.898438 -4.660156 33.890625 -2.675781 31.296875 -1.21875 C 28.703125 0.238281 25.703125 0.96875 22.296875 0.96875 Z M 22.296875 0.96875 "/></g></g></g><g fill="#ffffff" fill-opacity="1"><g transform="translate(93.323882, 185.739953)"><g><path d="M 4.296875 -46.859375 L 17.515625 -46.859375 L 17.515625 -39.078125 C 19.128906 -41.941406 20.691406 -44.050781 22.203125 -45.40625 C 23.722656 -46.757812 25.507812 -47.4375 27.5625 -47.4375 C 28.320312 -47.4375 29 -47.351562 29.59375 -47.1875 L 29.59375 -34.046875 C 27.96875 -34.703125 26.535156 -35.03125 25.296875 -35.03125 C 22.429688 -35.03125 19.835938 -33.515625 17.515625 -30.484375 L 17.515625 0 L 4.296875 0 Z M 4.296875 -46.859375 "/></g></g></g><g fill="#ffffff" fill-opacity="1"><g transform="translate(124.374949, 185.739953)"><g/></g></g><g fill="#ffffff" fill-opacity="1"><g transform="translate(145.129713, 185.739953)"><g><path d="M 4.859375 -65.671875 L 15.078125 -65.671875 L 28.546875 -34.046875 L 28.546875 -65.671875 L 40.53125 -65.671875 L 40.53125 0 L 30.734375 0 L 17.265625 -34.046875 L 17.265625 0 L 4.859375 0 Z M 4.859375 -65.671875 "/></g></g></g><g fill="#ffffff" fill-opacity="1"><g transform="translate(190.611831, 185.739953)"><g><path d="M 19.546875 0.8125 C 14.410156 0.8125 10.394531 -0.484375 7.5 -3.078125 C 4.601562 -5.671875 3.15625 -9.484375 3.15625 -14.515625 L 3.15625 -32.34375 C 3.15625 -37.375 4.601562 -41.1875 7.5 -43.78125 C 10.394531 -46.375 14.410156 -47.671875 19.546875 -47.671875 C 24.679688 -47.671875 28.707031 -46.359375 31.625 -43.734375 C 34.539062 -41.117188 36 -37.320312 36 -32.34375 L 36 -14.515625 C 36 -9.535156 34.539062 -5.734375 31.625 -3.109375 C 28.707031 -0.492188 24.679688 0.8125 19.546875 0.8125 Z M 19.625 -7.953125 C 20.863281 -7.953125 21.722656 -8.421875 22.203125 -9.359375 C 22.691406 -10.304688 22.9375 -11.726562 22.9375 -13.625 L 22.9375 -33.234375 C 22.9375 -35.128906 22.691406 -36.550781 22.203125 -37.5 C 21.722656 -38.445312 20.863281 -38.921875 19.625 -38.921875 C 18.375 -38.921875 17.492188 -38.429688 16.984375 -37.453125 C 16.472656 -36.484375 16.21875 -35.078125 16.21875 -33.234375 L 16.21875 -13.625 C 16.21875 -11.726562 16.472656 -10.304688 16.984375 -9.359375 C 17.492188 -8.421875 18.375 -7.953125 19.625 -7.953125 Z M 19.625 -7.953125 "/></g></g></g><g fill="#ffffff" fill-opacity="1"><g transform="translate(331.566783, 185.739953)"><g><path d="M 22.296875 0.96875 C 16.023438 0.96875 11.363281 -0.691406 8.3125 -4.015625 C 5.257812 -7.335938 3.625 -12.617188 3.40625 -19.859375 L 15.8125 -21.734375 C 15.863281 -17.566406 16.363281 -14.578125 17.3125 -12.765625 C 18.257812 -10.953125 19.675781 -10.046875 21.5625 -10.046875 C 24 -10.046875 25.21875 -11.644531 25.21875 -14.84375 C 25.21875 -17.375 24.632812 -19.554688 23.46875 -21.390625 C 22.3125 -23.234375 20.488281 -25.210938 18 -27.328125 L 12.328125 -32.265625 C 9.515625 -34.648438 7.335938 -37.175781 5.796875 -39.84375 C 4.253906 -42.519531 3.484375 -45.695312 3.484375 -49.375 C 3.484375 -54.882812 5.117188 -59.125 8.390625 -62.09375 C 11.660156 -65.070312 16.160156 -66.5625 21.890625 -66.5625 C 28.109375 -66.5625 32.335938 -64.75 34.578125 -61.125 C 36.816406 -57.507812 38.019531 -53.109375 38.1875 -47.921875 L 25.703125 -46.375 C 25.597656 -49.78125 25.285156 -52.222656 24.765625 -53.703125 C 24.253906 -55.191406 23.132812 -55.9375 21.40625 -55.9375 C 20.164062 -55.9375 19.207031 -55.410156 18.53125 -54.359375 C 17.851562 -53.304688 17.515625 -52.132812 17.515625 -50.84375 C 17.515625 -48.625 18.015625 -46.753906 19.015625 -45.234375 C 20.015625 -43.722656 21.625 -41.992188 23.84375 -40.046875 L 29.265625 -35.265625 C 32.515625 -32.515625 35.03125 -29.597656 36.8125 -26.515625 C 38.59375 -23.429688 39.484375 -19.78125 39.484375 -15.5625 C 39.484375 -12.488281 38.765625 -9.691406 37.328125 -7.171875 C 35.898438 -4.660156 33.890625 -2.675781 31.296875 -1.21875 C 28.703125 0.238281 25.703125 0.96875 22.296875 0.96875 Z M 22.296875 0.96875 "/></g></g></g><g fill="#ffffff" fill-opacity="1"><g transform="translate(373.238455, 185.739953)"><g><path d="M 4.140625 -63.96875 L 17.4375 -63.96875 L 17.4375 -54.8125 L 4.140625 -54.8125 Z M 4.21875 -46.859375 L 17.4375 -46.859375 L 17.4375 0 L 4.21875 0 Z M 4.21875 -46.859375 "/></g></g></g><g fill="#ffffff" fill-opacity="1"><g transform="translate(394.722874, 185.739953)"><g><path d="M 2.84375 -8.515625 L 15.734375 -37.21875 L 3.8125 -37.21875 L 3.8125 -46.859375 L 29.515625 -46.859375 L 29.515625 -38.84375 L 16.453125 -9.640625 L 29.671875 -9.640625 L 29.671875 0 L 2.84375 0 Z M 2.84375 -8.515625 "/></g></g></g><g fill="#ffffff" fill-opacity="1"><g transform="translate(426.503609, 185.739953)"><g><path d="M 19.453125 0.8125 C 14.316406 0.8125 10.316406 -0.550781 7.453125 -3.28125 C 4.585938 -6.007812 3.15625 -9.863281 3.15625 -14.84375 L 3.15625 -32.03125 C 3.15625 -37 4.585938 -40.847656 7.453125 -43.578125 C 10.316406 -46.304688 14.316406 -47.671875 19.453125 -47.671875 C 24.648438 -47.671875 28.546875 -46.347656 31.140625 -43.703125 C 33.734375 -41.054688 35.03125 -37.164062 35.03125 -32.03125 L 35.03125 -22.625 L 16.21875 -22.625 L 16.21875 -13.625 C 16.21875 -10.269531 17.296875 -8.59375 19.453125 -8.59375 C 21.722656 -8.59375 22.859375 -10.109375 22.859375 -13.140625 L 22.859375 -18.078125 L 35.03125 -18.078125 L 35.03125 -13.546875 C 35.03125 -8.835938 33.664062 -5.265625 30.9375 -2.828125 C 28.207031 -0.398438 24.378906 0.8125 19.453125 0.8125 Z M 22.859375 -28.78125 L 22.859375 -33.484375 C 22.859375 -35.210938 22.546875 -36.441406 21.921875 -37.171875 C 21.304688 -37.898438 20.457031 -38.265625 19.375 -38.265625 C 18.351562 -38.265625 17.570312 -37.859375 17.03125 -37.046875 C 16.488281 -36.242188 16.21875 -34.8125 16.21875 -32.75 L 16.21875 -28.78125 Z M 22.859375 -28.78125 "/></g></g></g><g fill="#ffffff" fill-opacity="1"><g transform="translate(464.608057, 185.739953)"><g/></g></g><g fill="#ffffff" fill-opacity="1"><g transform="translate(485.362821, 185.739953)"><g><path d="M 24.5625 14.515625 C 18.945312 14.515625 14.71875 12.726562 11.875 9.15625 C 9.039062 5.59375 7.191406 1.003906 6.328125 -4.609375 C 5.460938 -10.234375 5.03125 -17.238281 5.03125 -25.625 C 5.03125 -34.488281 5.445312 -41.753906 6.28125 -47.421875 C 7.125 -53.097656 8.976562 -57.679688 11.84375 -61.171875 C 14.707031 -64.660156 18.945312 -66.40625 24.5625 -66.40625 L 24.5625 -57.15625 C 22.5625 -57.15625 21.035156 -55.96875 19.984375 -53.59375 C 18.929688 -51.21875 18.203125 -47.785156 17.796875 -43.296875 C 17.390625 -38.804688 17.1875 -32.914062 17.1875 -25.625 C 17.1875 -18.4375 17.398438 -12.625 17.828125 -8.1875 C 18.265625 -3.757812 19.023438 -0.425781 20.109375 1.8125 C 21.191406 4.0625 22.675781 5.1875 24.5625 5.1875 Z M 24.5625 14.515625 "/></g></g></g><g fill="#ffffff" fill-opacity="1"><g transform="translate(512.765599, 185.739953)"><g><path d="M 22.296875 0.96875 C 16.023438 0.96875 11.363281 -0.691406 8.3125 -4.015625 C 5.257812 -7.335938 3.625 -12.617188 3.40625 -19.859375 L 15.8125 -21.734375 C 15.863281 -17.566406 16.363281 -14.578125 17.3125 -12.765625 C 18.257812 -10.953125 19.675781 -10.046875 21.5625 -10.046875 C 24 -10.046875 25.21875 -11.644531 25.21875 -14.84375 C 25.21875 -17.375 24.632812 -19.554688 23.46875 -21.390625 C 22.3125 -23.234375 20.488281 -25.210938 18 -27.328125 L 12.328125 -32.265625 C 9.515625 -34.648438 7.335938 -37.175781 5.796875 -39.84375 C 4.253906 -42.519531 3.484375 -45.695312 3.484375 -49.375 C 3.484375 -54.882812 5.117188 -59.125 8.390625 -62.09375 C 11.660156 -65.070312 16.160156 -66.5625 21.890625 -66.5625 C 28.109375 -66.5625 32.335938 -64.75 34.578125 -61.125 C 36.816406 -57.507812 38.019531 -53.109375 38.1875 -47.921875 L 25.703125 -46.375 C 25.597656 -49.78125 25.285156 -52.222656 24.765625 -53.703125 C 24.253906 -55.191406 23.132812 -55.9375 21.40625 -55.9375 C 20.164062 -55.9375 19.207031 -55.410156 18.53125 -54.359375 C 17.851562 -53.304688 17.515625 -52.132812 17.515625 -50.84375 C 17.515625 -48.625 18.015625 -46.753906 19.015625 -45.234375 C 20.015625 -43.722656 21.625 -41.992188 23.84375 -40.046875 L 29.265625 -35.265625 C 32.515625 -32.515625 35.03125 -29.597656 36.8125 -26.515625 C 38.59375 -23.429688 39.484375 -19.78125 39.484375 -15.5625 C 39.484375 -12.488281 38.765625 -9.691406 37.328125 -7.171875 C 35.898438 -4.660156 33.890625 -2.675781 31.296875 -1.21875 C 28.703125 0.238281 25.703125 0.96875 22.296875 0.96875 Z M 22.296875 0.96875 "/></g></g></g><g fill="#ffffff" fill-opacity="1"><g transform="translate(554.437259, 185.739953)"><g><path d="M 19.546875 0.8125 C 14.410156 0.8125 10.394531 -0.484375 7.5 -3.078125 C 4.601562 -5.671875 3.15625 -9.484375 3.15625 -14.515625 L 3.15625 -32.34375 C 3.15625 -37.375 4.601562 -41.1875 7.5 -43.78125 C 10.394531 -46.375 14.410156 -47.671875 19.546875 -47.671875 C 24.679688 -47.671875 28.707031 -46.359375 31.625 -43.734375 C 34.539062 -41.117188 36 -37.320312 36 -32.34375 L 36 -14.515625 C 36 -9.535156 34.539062 -5.734375 31.625 -3.109375 C 28.707031 -0.492188 24.679688 0.8125 19.546875 0.8125 Z M 19.625 -7.953125 C 20.863281 -7.953125 21.722656 -8.421875 22.203125 -9.359375 C 22.691406 -10.304688 22.9375 -11.726562 22.9375 -13.625 L 22.9375 -33.234375 C 22.9375 -35.128906 22.691406 -36.550781 22.203125 -37.5 C 21.722656 -38.445312 20.863281 -38.921875 19.625 -38.921875 C 18.375 -38.921875 17.492188 -38.429688 16.984375 -37.453125 C 16.472656 -36.484375 16.21875 -35.078125 16.21875 -33.234375 L 16.21875 -13.625 C 16.21875 -11.726562 16.472656 -10.304688 16.984375 -9.359375 C 17.492188 -8.421875 18.375 -7.953125 19.625 -7.953125 Z M 19.625 -7.953125 "/></g></g></g><g fill="#ffffff" fill-opacity="1"><g transform="translate(593.595663, 185.739953)"><g><path d="M 19.375 0.8125 C 14.289062 0.8125 10.316406 -0.5625 7.453125 -3.3125 C 4.585938 -6.070312 3.15625 -9.914062 3.15625 -14.84375 L 3.15625 -32.03125 C 3.15625 -37 4.570312 -40.847656 7.40625 -43.578125 C 10.25 -46.304688 14.238281 -47.671875 19.375 -47.671875 C 24.457031 -47.671875 28.363281 -46.476562 31.09375 -44.09375 C 33.820312 -41.71875 35.1875 -38.207031 35.1875 -33.5625 L 35.1875 -28.625 L 22.453125 -28.625 L 22.453125 -33.96875 C 22.453125 -35.75 22.195312 -36.976562 21.6875 -37.65625 C 21.175781 -38.332031 20.40625 -38.671875 19.375 -38.671875 C 18.351562 -38.671875 17.609375 -38.25 17.140625 -37.40625 C 16.679688 -36.570312 16.453125 -35.15625 16.453125 -33.15625 L 16.453125 -13.703125 C 16.453125 -11.703125 16.695312 -10.296875 17.1875 -9.484375 C 17.675781 -8.671875 18.429688 -8.265625 19.453125 -8.265625 C 20.484375 -8.265625 21.238281 -8.613281 21.71875 -9.3125 C 22.207031 -10.019531 22.453125 -11.210938 22.453125 -12.890625 L 22.453125 -19.140625 L 35.1875 -19.140625 L 35.1875 -13.453125 C 35.1875 -8.804688 33.804688 -5.265625 31.046875 -2.828125 C 28.296875 -0.398438 24.40625 0.8125 19.375 0.8125 Z M 19.375 0.8125 "/></g></g></g><g fill="#ffffff" fill-opacity="1"><g transform="translate(631.537967, 185.739953)"><g><path d="M 4.140625 -65.671875 L 17.265625 -65.671875 L 17.265625 -29.265625 L 28.78125 -46.859375 L 43.625 -46.859375 L 31.140625 -27.640625 L 43.453125 0 L 29.03125 0 L 20.75 -22.296875 L 17.265625 -17.84375 L 17.265625 0 L 4.140625 0 Z M 4.140625 -65.671875 "/></g></g></g><g fill="#ffffff" fill-opacity="1"><g transform="translate(675.398618, 185.739953)"><g><path d="M 19.453125 0.8125 C 14.316406 0.8125 10.316406 -0.550781 7.453125 -3.28125 C 4.585938 -6.007812 3.15625 -9.863281 3.15625 -14.84375 L 3.15625 -32.03125 C 3.15625 -37 4.585938 -40.847656 7.453125 -43.578125 C 10.316406 -46.304688 14.316406 -47.671875 19.453125 -47.671875 C 24.648438 -47.671875 28.546875 -46.347656 31.140625 -43.703125 C 33.734375 -41.054688 35.03125 -37.164062 35.03125 -32.03125 L 35.03125 -22.625 L 16.21875 -22.625 L 16.21875 -13.625 C 16.21875 -10.269531 17.296875 -8.59375 19.453125 -8.59375 C 21.722656 -8.59375 22.859375 -10.109375 22.859375 -13.140625 L 22.859375 -18.078125 L 35.03125 -18.078125 L 35.03125 -13.546875 C 35.03125 -8.835938 33.664062 -5.265625 30.9375 -2.828125 C 28.207031 -0.398438 24.378906 0.8125 19.453125 0.8125 Z M 22.859375 -28.78125 L 22.859375 -33.484375 C 22.859375 -35.210938 22.546875 -36.441406 21.921875 -37.171875 C 21.304688 -37.898438 20.457031 -38.265625 19.375 -38.265625 C 18.351562 -38.265625 17.570312 -37.859375 17.03125 -37.046875 C 16.488281 -36.242188 16.21875 -34.8125 16.21875 -32.75 L 16.21875 -28.78125 Z M 22.859375 -28.78125 "/></g></g></g><g fill="#ffffff" fill-opacity="1"><g transform="translate(713.503078, 185.739953)"><g><path d="M 18.640625 0.484375 C 15.179688 0.484375 12.503906 -0.015625 10.609375 -1.015625 C 8.722656 -2.015625 7.398438 -3.457031 6.640625 -5.34375 C 5.890625 -7.238281 5.515625 -9.703125 5.515625 -12.734375 L 5.515625 -38.1875 L 0.96875 -38.1875 L 0.96875 -46.859375 L 5.515625 -46.859375 L 5.515625 -61.140625 L 18.890625 -61.140625 L 18.890625 -46.859375 L 25.546875 -46.859375 L 25.546875 -38.1875 L 18.890625 -38.1875 L 18.890625 -14.03125 C 18.890625 -12.726562 19.253906 -11.765625 19.984375 -11.140625 C 20.710938 -10.523438 21.726562 -10.21875 23.03125 -10.21875 C 24.101562 -10.21875 25.289062 -10.328125 26.59375 -10.546875 L 26.59375 -0.15625 C 24 0.269531 21.347656 0.484375 18.640625 0.484375 Z M 18.640625 0.484375 "/></g></g></g><g fill="#ffffff" fill-opacity="1"><g transform="translate(742.203022, 185.739953)"><g><path d="M 2.84375 5.1875 C 4.726562 5.1875 6.195312 4.050781 7.25 1.78125 C 8.3125 -0.488281 9.054688 -3.828125 9.484375 -8.234375 C 9.921875 -12.640625 10.140625 -18.460938 10.140625 -25.703125 C 10.140625 -33.054688 9.945312 -38.960938 9.5625 -43.421875 C 9.1875 -47.878906 8.472656 -51.28125 7.421875 -53.625 C 6.367188 -55.976562 4.84375 -57.15625 2.84375 -57.15625 L 2.84375 -66.40625 C 8.457031 -66.40625 12.695312 -64.675781 15.5625 -61.21875 C 18.425781 -57.757812 20.273438 -53.191406 21.109375 -47.515625 C 21.953125 -41.835938 22.375 -34.566406 22.375 -25.703125 C 22.375 -17.328125 21.941406 -10.3125 21.078125 -4.65625 C 20.210938 0.988281 18.359375 5.59375 15.515625 9.15625 C 12.679688 12.726562 8.457031 14.515625 2.84375 14.515625 Z M 2.84375 5.1875 "/></g></g></g><g fill="#000000" fill-opacity="1"><g transform="translate(124.947607, 458.274403)"><g><path d="M 10.78125 -52.296875 C 10.1875 -51.972656 8.617188 -51.269531 6.078125 -50.1875 C 5.648438 -50.019531 4.972656 -49.75 4.046875 -49.375 C 3.128906 -49 2.375 -48.648438 1.78125 -48.328125 L 1.78125 -58.375 C 8.269531 -61.726562 12.242188 -64.160156 13.703125 -65.671875 L 24.328125 -65.671875 L 24.328125 0 L 10.78125 0 Z M 10.78125 -52.296875 "/></g></g></g><g fill="#000000" fill-opacity="1"><g transform="translate(456.825149, 458.274403)"><g><path d="M 10.78125 -52.296875 C 10.1875 -51.972656 8.617188 -51.269531 6.078125 -50.1875 C 5.648438 -50.019531 4.972656 -49.75 4.046875 -49.375 C 3.128906 -49 2.375 -48.648438 1.78125 -48.328125 L 1.78125 -58.375 C 8.269531 -61.726562 12.242188 -64.160156 13.703125 -65.671875 L 24.328125 -65.671875 L 24.328125 0 L 10.78125 0 Z M 10.78125 -52.296875 "/></g></g></g><g fill="#000000" fill-opacity="1"><g transform="translate(488.362662, 458.274403)"><g><path d="M 20.671875 1.21875 C 16.023438 1.21875 12.457031 0.394531 9.96875 -1.25 C 7.488281 -2.90625 5.785156 -5.191406 4.859375 -8.109375 C 3.941406 -11.023438 3.484375 -14.726562 3.484375 -19.21875 L 16.546875 -19.21875 C 16.546875 -15.375 16.851562 -12.679688 17.46875 -11.140625 C 18.09375 -9.609375 19.320312 -8.84375 21.15625 -8.84375 C 22.613281 -8.84375 23.679688 -9.34375 24.359375 -10.34375 C 25.035156 -11.34375 25.453125 -12.742188 25.609375 -14.546875 C 25.773438 -16.359375 25.859375 -19.023438 25.859375 -22.546875 C 25.859375 -26.210938 25.503906 -29.003906 24.796875 -30.921875 C 24.097656 -32.847656 22.75 -33.8125 20.75 -33.8125 C 18 -33.8125 16.269531 -31.8125 15.5625 -27.8125 L 3.890625 -27.8125 L 5.109375 -65.671875 L 35.75 -65.671875 L 35.75 -54.328125 L 15.96875 -54.328125 L 15.25 -40.78125 C 15.84375 -41.644531 17.097656 -42.382812 19.015625 -43 C 20.929688 -43.625 22.890625 -43.9375 24.890625 -43.9375 C 29.328125 -43.9375 32.71875 -42.097656 35.0625 -38.421875 C 37.414062 -34.753906 38.59375 -29.566406 38.59375 -22.859375 C 38.59375 -17.617188 38.132812 -13.28125 37.21875 -9.84375 C 36.300781 -6.414062 34.539062 -3.710938 31.9375 -1.734375 C 29.34375 0.234375 25.585938 1.21875 20.671875 1.21875 Z M 20.671875 1.21875 "/></g></g></g><g fill="#000000" fill-opacity="1"><g transform="translate(529.628966, 458.274403)"><g/></g></g><g fill="#000000" fill-opacity="1"><g transform="translate(550.383731, 458.274403)"><g><path d="M 4.859375 -65.671875 L 15.078125 -65.671875 L 28.546875 -34.046875 L 28.546875 -65.671875 L 40.53125 -65.671875 L 40.53125 0 L 30.734375 0 L 17.265625 -34.046875 L 17.265625 0 L 4.859375 0 Z M 4.859375 -65.671875 "/></g></g></g><g fill="#000000" fill-opacity="1"><g transform="translate(595.865848, 458.274403)"><g><path d="M 4.859375 -65.671875 L 21.96875 -65.671875 C 26.238281 -65.671875 29.875 -65.222656 32.875 -64.328125 C 35.875 -63.441406 38.289062 -61.726562 40.125 -59.1875 C 41.96875 -56.644531 42.890625 -53.078125 42.890625 -48.484375 C 42.890625 -44.585938 42.050781 -41.554688 40.375 -39.390625 C 38.695312 -37.234375 36.316406 -35.859375 33.234375 -35.265625 C 37.023438 -34.785156 39.921875 -33.191406 41.921875 -30.484375 C 43.921875 -27.785156 44.921875 -24.109375 44.921875 -19.453125 C 44.921875 -6.484375 38.296875 0 25.046875 0 L 4.859375 0 Z M 22.21875 -39.40625 C 25.300781 -39.40625 27.394531 -40.109375 28.5 -41.515625 C 29.601562 -42.921875 30.15625 -45.109375 30.15625 -48.078125 C 30.15625 -50.671875 29.453125 -52.628906 28.046875 -53.953125 C 26.640625 -55.273438 24.585938 -55.9375 21.890625 -55.9375 L 19.375 -55.9375 L 19.375 -39.40625 Z M 22.453125 -10.140625 C 25.535156 -10.140625 27.710938 -10.90625 28.984375 -12.4375 C 30.253906 -13.976562 30.890625 -16.398438 30.890625 -19.703125 C 30.890625 -23.429688 30.253906 -26.050781 28.984375 -27.5625 C 27.710938 -29.082031 25.507812 -29.84375 22.375 -29.84375 L 19.375 -29.84375 L 19.375 -10.140625 Z M 22.453125 -10.140625 "/></g></g></g><g fill="#000000" fill-opacity="1"><g transform="translate(119.880521, 696.028038)"><g><path d="M 3.328125 -9.5625 L 19.046875 -33.734375 L 20.03125 -35.1875 C 22.082031 -38.269531 23.59375 -40.847656 24.5625 -42.921875 C 25.539062 -45.003906 26.03125 -47.179688 26.03125 -49.453125 C 26.03125 -51.296875 25.664062 -52.6875 24.9375 -53.625 C 24.207031 -54.570312 23.164062 -55.046875 21.8125 -55.046875 C 19.757812 -55.046875 18.328125 -54.25 17.515625 -52.65625 C 16.703125 -51.0625 16.296875 -48.859375 16.296875 -46.046875 L 16.296875 -42.8125 L 3.15625 -42.8125 L 3.15625 -46.296875 C 3.15625 -52.453125 4.65625 -57.367188 7.65625 -61.046875 C 10.65625 -64.722656 15.289062 -66.5625 21.5625 -66.5625 C 27.34375 -66.5625 31.757812 -65.046875 34.8125 -62.015625 C 37.875 -58.992188 39.40625 -54.726562 39.40625 -49.21875 C 39.40625 -46.726562 39.007812 -44.375 38.21875 -42.15625 C 37.4375 -39.945312 36.503906 -37.945312 35.421875 -36.15625 C 34.347656 -34.375 32.675781 -31.835938 30.40625 -28.546875 L 18.40625 -10.625 L 37.625 -10.625 L 37.625 0 L 3.328125 0 Z M 3.328125 -9.5625 "/></g></g></g><g fill="#000000" fill-opacity="1"><g transform="translate(450.098589, 696.028038)"><g><path d="M 3.328125 -9.5625 L 19.046875 -33.734375 L 20.03125 -35.1875 C 22.082031 -38.269531 23.59375 -40.847656 24.5625 -42.921875 C 25.539062 -45.003906 26.03125 -47.179688 26.03125 -49.453125 C 26.03125 -51.296875 25.664062 -52.6875 24.9375 -53.625 C 24.207031 -54.570312 23.164062 -55.046875 21.8125 -55.046875 C 19.757812 -55.046875 18.328125 -54.25 17.515625 -52.65625 C 16.703125 -51.0625 16.296875 -48.859375 16.296875 -46.046875 L 16.296875 -42.8125 L 3.15625 -42.8125 L 3.15625 -46.296875 C 3.15625 -52.453125 4.65625 -57.367188 7.65625 -61.046875 C 10.65625 -64.722656 15.289062 -66.5625 21.5625 -66.5625 C 27.34375 -66.5625 31.757812 -65.046875 34.8125 -62.015625 C 37.875 -58.992188 39.40625 -54.726562 39.40625 -49.21875 C 39.40625 -46.726562 39.007812 -44.375 38.21875 -42.15625 C 37.4375 -39.945312 36.503906 -37.945312 35.421875 -36.15625 C 34.347656 -34.375 32.675781 -31.835938 30.40625 -28.546875 L 18.40625 -10.625 L 37.625 -10.625 L 37.625 0 L 3.328125 0 Z M 3.328125 -9.5625 "/></g></g></g><g fill="#000000" fill-opacity="1"><g transform="translate(491.770261, 696.028038)"><g><path d="M 22.296875 1.21875 C 16.515625 1.21875 12.082031 -0.484375 9 -3.890625 C 5.914062 -7.296875 4.375 -11.863281 4.375 -17.59375 L 4.375 -47.34375 C 4.375 -53.34375 5.875 -58.054688 8.875 -61.484375 C 11.875 -64.921875 16.347656 -66.640625 22.296875 -66.640625 C 28.242188 -66.640625 32.703125 -64.921875 35.671875 -61.484375 C 38.648438 -58.054688 40.140625 -53.34375 40.140625 -47.34375 L 40.140625 -17.59375 C 40.140625 -11.914062 38.582031 -7.359375 35.46875 -3.921875 C 32.363281 -0.492188 27.972656 1.21875 22.296875 1.21875 Z M 22.296875 -10.859375 C 23.972656 -10.859375 25.066406 -11.5625 25.578125 -12.96875 C 26.085938 -14.375 26.34375 -16.023438 26.34375 -17.921875 L 26.34375 -47.03125 C 26.34375 -49.1875 26.113281 -50.976562 25.65625 -52.40625 C 25.195312 -53.84375 24.078125 -54.5625 22.296875 -54.5625 C 20.515625 -54.5625 19.394531 -53.859375 18.9375 -52.453125 C 18.476562 -51.046875 18.25 -49.238281 18.25 -47.03125 L 18.25 -17.921875 C 18.25 -13.210938 19.597656 -10.859375 22.296875 -10.859375 Z M 22.296875 -10.859375 "/></g></g></g><g fill="#000000" fill-opacity="1"><g transform="translate(536.360579, 696.028038)"><g/></g></g><g fill="#000000" fill-opacity="1"><g transform="translate(557.115343, 696.028038)"><g><path d="M 4.859375 -65.671875 L 15.078125 -65.671875 L 28.546875 -34.046875 L 28.546875 -65.671875 L 40.53125 -65.671875 L 40.53125 0 L 30.734375 0 L 17.265625 -34.046875 L 17.265625 0 L 4.859375 0 Z M 4.859375 -65.671875 "/></g></g></g><g fill="#000000" fill-opacity="1"><g transform="translate(602.597461, 696.028038)"><g><path d="M 4.859375 -65.671875 L 21.96875 -65.671875 C 26.238281 -65.671875 29.875 -65.222656 32.875 -64.328125 C 35.875 -63.441406 38.289062 -61.726562 40.125 -59.1875 C 41.96875 -56.644531 42.890625 -53.078125 42.890625 -48.484375 C 42.890625 -44.585938 42.050781 -41.554688 40.375 -39.390625 C 38.695312 -37.234375 36.316406 -35.859375 33.234375 -35.265625 C 37.023438 -34.785156 39.921875 -33.191406 41.921875 -30.484375 C 43.921875 -27.785156 44.921875 -24.109375 44.921875 -19.453125 C 44.921875 -6.484375 38.296875 0 25.046875 0 L 4.859375 0 Z M 22.21875 -39.40625 C 25.300781 -39.40625 27.394531 -40.109375 28.5 -41.515625 C 29.601562 -42.921875 30.15625 -45.109375 30.15625 -48.078125 C 30.15625 -50.671875 29.453125 -52.628906 28.046875 -53.953125 C 26.640625 -55.273438 24.585938 -55.9375 21.890625 -55.9375 L 19.375 -55.9375 L 19.375 -39.40625 Z M 22.453125 -10.140625 C 25.535156 -10.140625 27.710938 -10.90625 28.984375 -12.4375 C 30.253906 -13.976562 30.890625 -16.398438 30.890625 -19.703125 C 30.890625 -23.429688 30.253906 -26.050781 28.984375 -27.5625 C 27.710938 -29.082031 25.507812 -29.84375 22.375 -29.84375 L 19.375 -29.84375 L 19.375 -10.140625 Z M 22.453125 -10.140625 "/></g></g></g><g fill="#000000" fill-opacity="1"><g transform="translate(119.880521, 933.781787)"><g><path d="M 21.15625 1.21875 C 14.613281 1.21875 9.960938 -0.5625 7.203125 -4.125 C 4.453125 -7.695312 3.078125 -12.78125 3.078125 -19.375 L 3.078125 -21.734375 L 16.625 -21.734375 L 16.625 -19.375 C 16.625 -16.019531 16.957031 -13.65625 17.625 -12.28125 C 18.300781 -10.90625 19.5625 -10.21875 21.40625 -10.21875 C 23.132812 -10.21875 24.296875 -10.890625 24.890625 -12.234375 C 25.484375 -13.585938 25.78125 -15.832031 25.78125 -18.96875 C 25.78125 -22.425781 25.289062 -24.953125 24.3125 -26.546875 C 23.34375 -28.140625 21.535156 -28.96875 18.890625 -29.03125 L 16.375 -29.03125 L 16.375 -38.34375 L 18.5625 -38.34375 C 21.320312 -38.34375 23.210938 -39.085938 24.234375 -40.578125 C 25.265625 -42.066406 25.78125 -44.539062 25.78125 -48 C 25.78125 -50.644531 25.425781 -52.613281 24.71875 -53.90625 C 24.019531 -55.207031 22.78125 -55.859375 21 -55.859375 C 19.320312 -55.859375 18.171875 -55.171875 17.546875 -53.796875 C 16.929688 -52.421875 16.625 -50.40625 16.625 -47.75 L 16.625 -44.34375 L 3.078125 -44.34375 L 3.078125 -48.328125 C 3.078125 -54.210938 4.65625 -58.734375 7.8125 -61.890625 C 10.976562 -65.054688 15.375 -66.640625 21 -66.640625 C 26.726562 -66.640625 31.1875 -65.125 34.375 -62.09375 C 37.5625 -59.070312 39.15625 -54.671875 39.15625 -48.890625 C 39.15625 -45.160156 38.398438 -41.984375 36.890625 -39.359375 C 35.378906 -36.742188 33.460938 -35.109375 31.140625 -34.453125 C 33.617188 -33.535156 35.570312 -31.882812 37 -29.5 C 38.4375 -27.125 39.15625 -23.722656 39.15625 -19.296875 C 39.15625 -12.921875 37.722656 -7.90625 34.859375 -4.25 C 31.992188 -0.601562 27.425781 1.21875 21.15625 1.21875 Z M 21.15625 1.21875 "/></g></g></g><g fill="#000000" fill-opacity="1"><g transform="translate(451.758063, 933.781787)"><g><path d="M 3.328125 -9.5625 L 19.046875 -33.734375 L 20.03125 -35.1875 C 22.082031 -38.269531 23.59375 -40.847656 24.5625 -42.921875 C 25.539062 -45.003906 26.03125 -47.179688 26.03125 -49.453125 C 26.03125 -51.296875 25.664062 -52.6875 24.9375 -53.625 C 24.207031 -54.570312 23.164062 -55.046875 21.8125 -55.046875 C 19.757812 -55.046875 18.328125 -54.25 17.515625 -52.65625 C 16.703125 -51.0625 16.296875 -48.859375 16.296875 -46.046875 L 16.296875 -42.8125 L 3.15625 -42.8125 L 3.15625 -46.296875 C 3.15625 -52.453125 4.65625 -57.367188 7.65625 -61.046875 C 10.65625 -64.722656 15.289062 -66.5625 21.5625 -66.5625 C 27.34375 -66.5625 31.757812 -65.046875 34.8125 -62.015625 C 37.875 -58.992188 39.40625 -54.726562 39.40625 -49.21875 C 39.40625 -46.726562 39.007812 -44.375 38.21875 -42.15625 C 37.4375 -39.945312 36.503906 -37.945312 35.421875 -36.15625 C 34.347656 -34.375 32.675781 -31.835938 30.40625 -28.546875 L 18.40625 -10.625 L 37.625 -10.625 L 37.625 0 L 3.328125 0 Z M 3.328125 -9.5625 "/></g></g></g><g fill="#000000" fill-opacity="1"><g transform="translate(493.429735, 933.781787)"><g><path d="M 20.671875 1.21875 C 16.023438 1.21875 12.457031 0.394531 9.96875 -1.25 C 7.488281 -2.90625 5.785156 -5.191406 4.859375 -8.109375 C 3.941406 -11.023438 3.484375 -14.726562 3.484375 -19.21875 L 16.546875 -19.21875 C 16.546875 -15.375 16.851562 -12.679688 17.46875 -11.140625 C 18.09375 -9.609375 19.320312 -8.84375 21.15625 -8.84375 C 22.613281 -8.84375 23.679688 -9.34375 24.359375 -10.34375 C 25.035156 -11.34375 25.453125 -12.742188 25.609375 -14.546875 C 25.773438 -16.359375 25.859375 -19.023438 25.859375 -22.546875 C 25.859375 -26.210938 25.503906 -29.003906 24.796875 -30.921875 C 24.097656 -32.847656 22.75 -33.8125 20.75 -33.8125 C 18 -33.8125 16.269531 -31.8125 15.5625 -27.8125 L 3.890625 -27.8125 L 5.109375 -65.671875 L 35.75 -65.671875 L 35.75 -54.328125 L 15.96875 -54.328125 L 15.25 -40.78125 C 15.84375 -41.644531 17.097656 -42.382812 19.015625 -43 C 20.929688 -43.625 22.890625 -43.9375 24.890625 -43.9375 C 29.328125 -43.9375 32.71875 -42.097656 35.0625 -38.421875 C 37.414062 -34.753906 38.59375 -29.566406 38.59375 -22.859375 C 38.59375 -17.617188 38.132812 -13.28125 37.21875 -9.84375 C 36.300781 -6.414062 34.539062 -3.710938 31.9375 -1.734375 C 29.34375 0.234375 25.585938 1.21875 20.671875 1.21875 Z M 20.671875 1.21875 "/></g></g></g><g fill="#000000" fill-opacity="1"><g transform="translate(534.69604, 933.781787)"><g/></g></g><g fill="#000000" fill-opacity="1"><g transform="translate(555.450804, 933.781787)"><g><path d="M 4.859375 -65.671875 L 15.078125 -65.671875 L 28.546875 -34.046875 L 28.546875 -65.671875 L 40.53125 -65.671875 L 40.53125 0 L 30.734375 0 L 17.265625 -34.046875 L 17.265625 0 L 4.859375 0 Z M 4.859375 -65.671875 "/></g></g></g><g fill="#000000" fill-opacity="1"><g transform="translate(600.932922, 933.781787)"><g><path d="M 4.859375 -65.671875 L 21.96875 -65.671875 C 26.238281 -65.671875 29.875 -65.222656 32.875 -64.328125 C 35.875 -63.441406 38.289062 -61.726562 40.125 -59.1875 C 41.96875 -56.644531 42.890625 -53.078125 42.890625 -48.484375 C 42.890625 -44.585938 42.050781 -41.554688 40.375 -39.390625 C 38.695312 -37.234375 36.316406 -35.859375 33.234375 -35.265625 C 37.023438 -34.785156 39.921875 -33.191406 41.921875 -30.484375 C 43.921875 -27.785156 44.921875 -24.109375 44.921875 -19.453125 C 44.921875 -6.484375 38.296875 0 25.046875 0 L 4.859375 0 Z M 22.21875 -39.40625 C 25.300781 -39.40625 27.394531 -40.109375 28.5 -41.515625 C 29.601562 -42.921875 30.15625 -45.109375 30.15625 -48.078125 C 30.15625 -50.671875 29.453125 -52.628906 28.046875 -53.953125 C 26.640625 -55.273438 24.585938 -55.9375 21.890625 -55.9375 L 19.375 -55.9375 L 19.375 -39.40625 Z M 22.453125 -10.140625 C 25.535156 -10.140625 27.710938 -10.90625 28.984375 -12.4375 C 30.253906 -13.976562 30.890625 -16.398438 30.890625 -19.703125 C 30.890625 -23.429688 30.253906 -26.050781 28.984375 -27.5625 C 27.710938 -29.082031 25.507812 -29.84375 22.375 -29.84375 L 19.375 -29.84375 L 19.375 -10.140625 Z M 22.453125 -10.140625 "/></g></g></g><g fill="#000000" fill-opacity="1"><g transform="translate(119.475154, 1171.535392)"><g><path d="M 22.21875 -14.75 L 2.03125 -14.75 L 2.03125 -24.734375 L 19.140625 -65.671875 L 34.859375 -65.671875 L 34.859375 -24.8125 L 40.9375 -24.8125 L 40.9375 -14.75 L 34.859375 -14.75 L 34.859375 0 L 22.21875 0 Z M 22.21875 -24.8125 L 22.21875 -52.140625 L 12.328125 -24.8125 Z M 22.21875 -24.8125 "/></g></g></g><g fill="#000000" fill-opacity="1"><g transform="translate(451.55538, 1171.535392)"><g><path d="M 21.15625 1.21875 C 14.613281 1.21875 9.960938 -0.5625 7.203125 -4.125 C 4.453125 -7.695312 3.078125 -12.78125 3.078125 -19.375 L 3.078125 -21.734375 L 16.625 -21.734375 L 16.625 -19.375 C 16.625 -16.019531 16.957031 -13.65625 17.625 -12.28125 C 18.300781 -10.90625 19.5625 -10.21875 21.40625 -10.21875 C 23.132812 -10.21875 24.296875 -10.890625 24.890625 -12.234375 C 25.484375 -13.585938 25.78125 -15.832031 25.78125 -18.96875 C 25.78125 -22.425781 25.289062 -24.953125 24.3125 -26.546875 C 23.34375 -28.140625 21.535156 -28.96875 18.890625 -29.03125 L 16.375 -29.03125 L 16.375 -38.34375 L 18.5625 -38.34375 C 21.320312 -38.34375 23.210938 -39.085938 24.234375 -40.578125 C 25.265625 -42.066406 25.78125 -44.539062 25.78125 -48 C 25.78125 -50.644531 25.425781 -52.613281 24.71875 -53.90625 C 24.019531 -55.207031 22.78125 -55.859375 21 -55.859375 C 19.320312 -55.859375 18.171875 -55.171875 17.546875 -53.796875 C 16.929688 -52.421875 16.625 -50.40625 16.625 -47.75 L 16.625 -44.34375 L 3.078125 -44.34375 L 3.078125 -48.328125 C 3.078125 -54.210938 4.65625 -58.734375 7.8125 -61.890625 C 10.976562 -65.054688 15.375 -66.640625 21 -66.640625 C 26.726562 -66.640625 31.1875 -65.125 34.375 -62.09375 C 37.5625 -59.070312 39.15625 -54.671875 39.15625 -48.890625 C 39.15625 -45.160156 38.398438 -41.984375 36.890625 -39.359375 C 35.378906 -36.742188 33.460938 -35.109375 31.140625 -34.453125 C 33.617188 -33.535156 35.570312 -31.882812 37 -29.5 C 38.4375 -27.125 39.15625 -23.722656 39.15625 -19.296875 C 39.15625 -12.921875 37.722656 -7.90625 34.859375 -4.25 C 31.992188 -0.601562 27.425781 1.21875 21.15625 1.21875 Z M 21.15625 1.21875 "/></g></g></g><g fill="#000000" fill-opacity="1"><g transform="translate(493.227052, 1171.535392)"><g><path d="M 3.328125 -9.5625 L 19.046875 -33.734375 L 20.03125 -35.1875 C 22.082031 -38.269531 23.59375 -40.847656 24.5625 -42.921875 C 25.539062 -45.003906 26.03125 -47.179688 26.03125 -49.453125 C 26.03125 -51.296875 25.664062 -52.6875 24.9375 -53.625 C 24.207031 -54.570312 23.164062 -55.046875 21.8125 -55.046875 C 19.757812 -55.046875 18.328125 -54.25 17.515625 -52.65625 C 16.703125 -51.0625 16.296875 -48.859375 16.296875 -46.046875 L 16.296875 -42.8125 L 3.15625 -42.8125 L 3.15625 -46.296875 C 3.15625 -52.453125 4.65625 -57.367188 7.65625 -61.046875 C 10.65625 -64.722656 15.289062 -66.5625 21.5625 -66.5625 C 27.34375 -66.5625 31.757812 -65.046875 34.8125 -62.015625 C 37.875 -58.992188 39.40625 -54.726562 39.40625 -49.21875 C 39.40625 -46.726562 39.007812 -44.375 38.21875 -42.15625 C 37.4375 -39.945312 36.503906 -37.945312 35.421875 -36.15625 C 34.347656 -34.375 32.675781 -31.835938 30.40625 -28.546875 L 18.40625 -10.625 L 37.625 -10.625 L 37.625 0 L 3.328125 0 Z M 3.328125 -9.5625 "/></g></g></g><g fill="#000000" fill-opacity="1"><g transform="translate(534.898724, 1171.535392)"><g/></g></g><g fill="#000000" fill-opacity="1"><g transform="translate(555.653488, 1171.535392)"><g><path d="M 4.859375 -65.671875 L 15.078125 -65.671875 L 28.546875 -34.046875 L 28.546875 -65.671875 L 40.53125 -65.671875 L 40.53125 0 L 30.734375 0 L 17.265625 -34.046875 L 17.265625 0 L 4.859375 0 Z M 4.859375 -65.671875 "/></g></g></g><g fill="#000000" fill-opacity="1"><g transform="translate(601.135606, 1171.535392)"><g><path d="M 4.859375 -65.671875 L 21.96875 -65.671875 C 26.238281 -65.671875 29.875 -65.222656 32.875 -64.328125 C 35.875 -63.441406 38.289062 -61.726562 40.125 -59.1875 C 41.96875 -56.644531 42.890625 -53.078125 42.890625 -48.484375 C 42.890625 -44.585938 42.050781 -41.554688 40.375 -39.390625 C 38.695312 -37.234375 36.316406 -35.859375 33.234375 -35.265625 C 37.023438 -34.785156 39.921875 -33.191406 41.921875 -30.484375 C 43.921875 -27.785156 44.921875 -24.109375 44.921875 -19.453125 C 44.921875 -6.484375 38.296875 0 25.046875 0 L 4.859375 0 Z M 22.21875 -39.40625 C 25.300781 -39.40625 27.394531 -40.109375 28.5 -41.515625 C 29.601562 -42.921875 30.15625 -45.109375 30.15625 -48.078125 C 30.15625 -50.671875 29.453125 -52.628906 28.046875 -53.953125 C 26.640625 -55.273438 24.585938 -55.9375 21.890625 -55.9375 L 19.375 -55.9375 L 19.375 -39.40625 Z M 22.453125 -10.140625 C 25.535156 -10.140625 27.710938 -10.90625 28.984375 -12.4375 C 30.253906 -13.976562 30.890625 -16.398438 30.890625 -19.703125 C 30.890625 -23.429688 30.253906 -26.050781 28.984375 -27.5625 C 27.710938 -29.082031 25.507812 -29.84375 22.375 -29.84375 L 19.375 -29.84375 L 19.375 -10.140625 Z M 22.453125 -10.140625 "/></g></g></g><g fill="#000000" fill-opacity="1"><g transform="translate(120.083205, 1409.288996)"><g><path d="M 20.671875 1.21875 C 16.023438 1.21875 12.457031 0.394531 9.96875 -1.25 C 7.488281 -2.90625 5.785156 -5.191406 4.859375 -8.109375 C 3.941406 -11.023438 3.484375 -14.726562 3.484375 -19.21875 L 16.546875 -19.21875 C 16.546875 -15.375 16.851562 -12.679688 17.46875 -11.140625 C 18.09375 -9.609375 19.320312 -8.84375 21.15625 -8.84375 C 22.613281 -8.84375 23.679688 -9.34375 24.359375 -10.34375 C 25.035156 -11.34375 25.453125 -12.742188 25.609375 -14.546875 C 25.773438 -16.359375 25.859375 -19.023438 25.859375 -22.546875 C 25.859375 -26.210938 25.503906 -29.003906 24.796875 -30.921875 C 24.097656 -32.847656 22.75 -33.8125 20.75 -33.8125 C 18 -33.8125 16.269531 -31.8125 15.5625 -27.8125 L 3.890625 -27.8125 L 5.109375 -65.671875 L 35.75 -65.671875 L 35.75 -54.328125 L 15.96875 -54.328125 L 15.25 -40.78125 C 15.84375 -41.644531 17.097656 -42.382812 19.015625 -43 C 20.929688 -43.625 22.890625 -43.9375 24.890625 -43.9375 C 29.328125 -43.9375 32.71875 -42.097656 35.0625 -38.421875 C 37.414062 -34.753906 38.59375 -29.566406 38.59375 -22.859375 C 38.59375 -17.617188 38.132812 -13.28125 37.21875 -9.84375 C 36.300781 -6.414062 34.539062 -3.710938 31.9375 -1.734375 C 29.34375 0.234375 25.585938 1.21875 20.671875 1.21875 Z M 20.671875 1.21875 "/></g></g></g><g fill="#000000" fill-opacity="1"><g transform="translate(449.693222, 1409.288996)"><g><path d="M 22.21875 -14.75 L 2.03125 -14.75 L 2.03125 -24.734375 L 19.140625 -65.671875 L 34.859375 -65.671875 L 34.859375 -24.8125 L 40.9375 -24.8125 L 40.9375 -14.75 L 34.859375 -14.75 L 34.859375 0 L 22.21875 0 Z M 22.21875 -24.8125 L 22.21875 -52.140625 L 12.328125 -24.8125 Z M 22.21875 -24.8125 "/></g></g></g><g fill="#000000" fill-opacity="1"><g transform="translate(492.175627, 1409.288996)"><g><path d="M 22.296875 1.21875 C 16.515625 1.21875 12.082031 -0.484375 9 -3.890625 C 5.914062 -7.296875 4.375 -11.863281 4.375 -17.59375 L 4.375 -47.34375 C 4.375 -53.34375 5.875 -58.054688 8.875 -61.484375 C 11.875 -64.921875 16.347656 -66.640625 22.296875 -66.640625 C 28.242188 -66.640625 32.703125 -64.921875 35.671875 -61.484375 C 38.648438 -58.054688 40.140625 -53.34375 40.140625 -47.34375 L 40.140625 -17.59375 C 40.140625 -11.914062 38.582031 -7.359375 35.46875 -3.921875 C 32.363281 -0.492188 27.972656 1.21875 22.296875 1.21875 Z M 22.296875 -10.859375 C 23.972656 -10.859375 25.066406 -11.5625 25.578125 -12.96875 C 26.085938 -14.375 26.34375 -16.023438 26.34375 -17.921875 L 26.34375 -47.03125 C 26.34375 -49.1875 26.113281 -50.976562 25.65625 -52.40625 C 25.195312 -53.84375 24.078125 -54.5625 22.296875 -54.5625 C 20.515625 -54.5625 19.394531 -53.859375 18.9375 -52.453125 C 18.476562 -51.046875 18.25 -49.238281 18.25 -47.03125 L 18.25 -17.921875 C 18.25 -13.210938 19.597656 -10.859375 22.296875 -10.859375 Z M 22.296875 -10.859375 "/></g></g></g><g fill="#000000" fill-opacity="1"><g transform="translate(536.765945, 1409.288996)"><g/></g></g><g fill="#000000" fill-opacity="1"><g transform="translate(557.52071, 1409.288996)"><g><path d="M 4.859375 -65.671875 L 15.078125 -65.671875 L 28.546875 -34.046875 L 28.546875 -65.671875 L 40.53125 -65.671875 L 40.53125 0 L 30.734375 0 L 17.265625 -34.046875 L 17.265625 0 L 4.859375 0 Z M 4.859375 -65.671875 "/></g></g></g><g fill="#000000" fill-opacity="1"><g transform="translate(603.002828, 1409.288996)"><g><path d="M 4.859375 -65.671875 L 21.96875 -65.671875 C 26.238281 -65.671875 29.875 -65.222656 32.875 -64.328125 C 35.875 -63.441406 38.289062 -61.726562 40.125 -59.1875 C 41.96875 -56.644531 42.890625 -53.078125 42.890625 -48.484375 C 42.890625 -44.585938 42.050781 -41.554688 40.375 -39.390625 C 38.695312 -37.234375 36.316406 -35.859375 33.234375 -35.265625 C 37.023438 -34.785156 39.921875 -33.191406 41.921875 -30.484375 C 43.921875 -27.785156 44.921875 -24.109375 44.921875 -19.453125 C 44.921875 -6.484375 38.296875 0 25.046875 0 L 4.859375 0 Z M 22.21875 -39.40625 C 25.300781 -39.40625 27.394531 -40.109375 28.5 -41.515625 C 29.601562 -42.921875 30.15625 -45.109375 30.15625 -48.078125 C 30.15625 -50.671875 29.453125 -52.628906 28.046875 -53.953125 C 26.640625 -55.273438 24.585938 -55.9375 21.890625 -55.9375 L 19.375 -55.9375 L 19.375 -39.40625 Z M 22.453125 -10.140625 C 25.535156 -10.140625 27.710938 -10.90625 28.984375 -12.4375 C 30.253906 -13.976562 30.890625 -16.398438 30.890625 -19.703125 C 30.890625 -23.429688 30.253906 -26.050781 28.984375 -27.5625 C 27.710938 -29.082031 25.507812 -29.84375 22.375 -29.84375 L 19.375 -29.84375 L 19.375 -10.140625 Z M 22.453125 -10.140625 "/></g></g></g><g fill="#000000" fill-opacity="1"><g transform="translate(118.905107, 1647.042745)"><g><path d="M 22.375 0.96875 C 16.21875 0.96875 11.648438 -0.972656 8.671875 -4.859375 C 5.703125 -8.753906 4.21875 -14 4.21875 -20.59375 L 4.21875 -44.34375 C 4.21875 -51.476562 5.523438 -56.960938 8.140625 -60.796875 C 10.765625 -64.640625 15.484375 -66.5625 22.296875 -66.5625 C 28.347656 -66.5625 32.644531 -65.179688 35.1875 -62.421875 C 37.726562 -59.671875 39 -55.429688 39 -49.703125 L 39.078125 -48.5625 L 26.34375 -48.5625 C 26.34375 -51.476562 26.113281 -53.503906 25.65625 -54.640625 C 25.195312 -55.773438 24.101562 -56.34375 22.375 -56.34375 C 21.132812 -56.34375 20.203125 -55.960938 19.578125 -55.203125 C 18.953125 -54.453125 18.53125 -53.1875 18.3125 -51.40625 C 18.101562 -49.625 18 -46.921875 18 -43.296875 L 18 -37.453125 C 18.695312 -38.585938 19.800781 -39.476562 21.3125 -40.125 C 22.832031 -40.78125 24.566406 -41.109375 26.515625 -41.109375 C 31.265625 -41.109375 34.75 -39.378906 36.96875 -35.921875 C 39.1875 -32.460938 40.296875 -27.894531 40.296875 -22.21875 C 40.296875 -14.757812 38.941406 -9.03125 36.234375 -5.03125 C 33.535156 -1.03125 28.914062 0.96875 22.375 0.96875 Z M 22.546875 -9 C 24.273438 -9 25.394531 -9.835938 25.90625 -11.515625 C 26.414062 -13.191406 26.671875 -16.054688 26.671875 -20.109375 C 26.671875 -22.753906 26.585938 -24.765625 26.421875 -26.140625 C 26.265625 -27.523438 25.890625 -28.632812 25.296875 -29.46875 C 24.703125 -30.3125 23.726562 -30.734375 22.375 -30.734375 C 21.457031 -30.734375 20.59375 -30.460938 19.78125 -29.921875 C 18.96875 -29.378906 18.375 -28.785156 18 -28.140625 L 18 -17.4375 C 18 -11.8125 19.515625 -9 22.546875 -9 Z M 22.546875 -9 "/></g></g></g><g fill="#000000" fill-opacity="1"><g transform="translate(450.301272, 1647.042745)"><g><path d="M 20.671875 1.21875 C 16.023438 1.21875 12.457031 0.394531 9.96875 -1.25 C 7.488281 -2.90625 5.785156 -5.191406 4.859375 -8.109375 C 3.941406 -11.023438 3.484375 -14.726562 3.484375 -19.21875 L 16.546875 -19.21875 C 16.546875 -15.375 16.851562 -12.679688 17.46875 -11.140625 C 18.09375 -9.609375 19.320312 -8.84375 21.15625 -8.84375 C 22.613281 -8.84375 23.679688 -9.34375 24.359375 -10.34375 C 25.035156 -11.34375 25.453125 -12.742188 25.609375 -14.546875 C 25.773438 -16.359375 25.859375 -19.023438 25.859375 -22.546875 C 25.859375 -26.210938 25.503906 -29.003906 24.796875 -30.921875 C 24.097656 -32.847656 22.75 -33.8125 20.75 -33.8125 C 18 -33.8125 16.269531 -31.8125 15.5625 -27.8125 L 3.890625 -27.8125 L 5.109375 -65.671875 L 35.75 -65.671875 L 35.75 -54.328125 L 15.96875 -54.328125 L 15.25 -40.78125 C 15.84375 -41.644531 17.097656 -42.382812 19.015625 -43 C 20.929688 -43.625 22.890625 -43.9375 24.890625 -43.9375 C 29.328125 -43.9375 32.71875 -42.097656 35.0625 -38.421875 C 37.414062 -34.753906 38.59375 -29.566406 38.59375 -22.859375 C 38.59375 -17.617188 38.132812 -13.28125 37.21875 -9.84375 C 36.300781 -6.414062 34.539062 -3.710938 31.9375 -1.734375 C 29.34375 0.234375 25.585938 1.21875 20.671875 1.21875 Z M 20.671875 1.21875 "/></g></g></g><g fill="#000000" fill-opacity="1"><g transform="translate(491.567577, 1647.042745)"><g><path d="M 22.296875 1.21875 C 16.515625 1.21875 12.082031 -0.484375 9 -3.890625 C 5.914062 -7.296875 4.375 -11.863281 4.375 -17.59375 L 4.375 -47.34375 C 4.375 -53.34375 5.875 -58.054688 8.875 -61.484375 C 11.875 -64.921875 16.347656 -66.640625 22.296875 -66.640625 C 28.242188 -66.640625 32.703125 -64.921875 35.671875 -61.484375 C 38.648438 -58.054688 40.140625 -53.34375 40.140625 -47.34375 L 40.140625 -17.59375 C 40.140625 -11.914062 38.582031 -7.359375 35.46875 -3.921875 C 32.363281 -0.492188 27.972656 1.21875 22.296875 1.21875 Z M 22.296875 -10.859375 C 23.972656 -10.859375 25.066406 -11.5625 25.578125 -12.96875 C 26.085938 -14.375 26.34375 -16.023438 26.34375 -17.921875 L 26.34375 -47.03125 C 26.34375 -49.1875 26.113281 -50.976562 25.65625 -52.40625 C 25.195312 -53.84375 24.078125 -54.5625 22.296875 -54.5625 C 20.515625 -54.5625 19.394531 -53.859375 18.9375 -52.453125 C 18.476562 -51.046875 18.25 -49.238281 18.25 -47.03125 L 18.25 -17.921875 C 18.25 -13.210938 19.597656 -10.859375 22.296875 -10.859375 Z M 22.296875 -10.859375 "/></g></g></g><g fill="#000000" fill-opacity="1"><g transform="translate(536.157895, 1647.042745)"><g/></g></g><g fill="#000000" fill-opacity="1"><g transform="translate(556.912659, 1647.042745)"><g><path d="M 4.859375 -65.671875 L 15.078125 -65.671875 L 28.546875 -34.046875 L 28.546875 -65.671875 L 40.53125 -65.671875 L 40.53125 0 L 30.734375 0 L 17.265625 -34.046875 L 17.265625 0 L 4.859375 0 Z M 4.859375 -65.671875 "/></g></g></g><g fill="#000000" fill-opacity="1"><g transform="translate(602.394777, 1647.042745)"><g><path d="M 4.859375 -65.671875 L 21.96875 -65.671875 C 26.238281 -65.671875 29.875 -65.222656 32.875 -64.328125 C 35.875 -63.441406 38.289062 -61.726562 40.125 -59.1875 C 41.96875 -56.644531 42.890625 -53.078125 42.890625 -48.484375 C 42.890625 -44.585938 42.050781 -41.554688 40.375 -39.390625 C 38.695312 -37.234375 36.316406 -35.859375 33.234375 -35.265625 C 37.023438 -34.785156 39.921875 -33.191406 41.921875 -30.484375 C 43.921875 -27.785156 44.921875 -24.109375 44.921875 -19.453125 C 44.921875 -6.484375 38.296875 0 25.046875 0 L 4.859375 0 Z M 22.21875 -39.40625 C 25.300781 -39.40625 27.394531 -40.109375 28.5 -41.515625 C 29.601562 -42.921875 30.15625 -45.109375 30.15625 -48.078125 C 30.15625 -50.671875 29.453125 -52.628906 28.046875 -53.953125 C 26.640625 -55.273438 24.585938 -55.9375 21.890625 -55.9375 L 19.375 -55.9375 L 19.375 -39.40625 Z M 22.453125 -10.140625 C 25.535156 -10.140625 27.710938 -10.90625 28.984375 -12.4375 C 30.253906 -13.976562 30.890625 -16.398438 30.890625 -19.703125 C 30.890625 -23.429688 30.253906 -26.050781 28.984375 -27.5625 C 27.710938 -29.082031 25.507812 -29.84375 22.375 -29.84375 L 19.375 -29.84375 L 19.375 -10.140625 Z M 22.453125 -10.140625 "/></g></g></g></svg>