<svg xmlns="http://www.w3.org/2000/svg" xmlns:xlink="http://www.w3.org/1999/xlink" width="1080" zoomAndPan="magnify" viewBox="0 0 810 749.999995" height="1000" preserveAspectRatio="xMidYMid meet" version="1.0"><defs><g/></defs><path fill="#0a172b" d="M 0 0 L 280.761719 0 L 280.761719 164.25 L 0 164.25 Z M 311.855469 0 L 810 0 L 810 164.25 L 311.855469 164.25 Z M 311.855469 0 " fill-opacity="1" fill-rule="nonzero"/><path fill="#e3e8ff" d="M 0 195.34375 L 280.761719 195.34375 L 280.761719 359.59375 L 0 359.59375 Z M 311.855469 195.34375 L 810 195.34375 L 810 359.59375 L 311.855469 359.59375 Z M 0 390.691406 L 280.761719 390.691406 L 280.761719 554.941406 L 0 554.941406 Z M 311.855469 390.691406 L 810 390.691406 L 810 554.941406 L 311.855469 554.941406 Z M 0 586.035156 L 280.761719 586.035156 L 280.761719 750.285156 L 0 750.285156 Z M 311.855469 586.035156 L 810 586.035156 L 810 750.285156 L 311.855469 750.285156 Z M 311.855469 586.035156 " fill-opacity="1" fill-rule="nonzero"/><g fill="#ffffff" fill-opacity="1"><g transform="translate(80.865686, 105.692727)"><g><path d="M 14.8125 0.640625 C 10.644531 0.640625 7.546875 -0.460938 5.515625 -2.671875 C 3.492188 -4.878906 2.410156 -8.390625 2.265625 -13.203125 L 10.5 -14.4375 C 10.539062 -11.675781 10.875 -9.691406 11.5 -8.484375 C 12.125 -7.285156 13.066406 -6.6875 14.328125 -6.6875 C 15.941406 -6.6875 16.75 -7.742188 16.75 -9.859375 C 16.75 -11.546875 16.363281 -13 15.59375 -14.21875 C 14.820312 -15.445312 13.609375 -16.757812 11.953125 -18.15625 L 8.1875 -21.4375 C 6.320312 -23.019531 4.875 -24.695312 3.84375 -26.46875 C 2.820312 -28.25 2.3125 -30.363281 2.3125 -32.8125 C 2.3125 -36.476562 3.394531 -39.296875 5.5625 -41.265625 C 7.738281 -43.242188 10.734375 -44.234375 14.546875 -44.234375 C 18.671875 -44.234375 21.476562 -43.03125 22.96875 -40.625 C 24.46875 -38.21875 25.269531 -35.289062 25.375 -31.84375 L 17.078125 -30.8125 C 17.003906 -33.070312 16.796875 -34.695312 16.453125 -35.6875 C 16.117188 -36.675781 15.375 -37.171875 14.21875 -37.171875 C 13.394531 -37.171875 12.757812 -36.820312 12.3125 -36.125 C 11.863281 -35.425781 11.640625 -34.644531 11.640625 -33.78125 C 11.640625 -32.3125 11.96875 -31.070312 12.625 -30.0625 C 13.289062 -29.050781 14.363281 -27.898438 15.84375 -26.609375 L 19.453125 -23.4375 C 21.609375 -21.601562 23.273438 -19.660156 24.453125 -17.609375 C 25.640625 -15.566406 26.234375 -13.144531 26.234375 -10.34375 C 26.234375 -8.289062 25.753906 -6.429688 24.796875 -4.765625 C 23.847656 -3.097656 22.507812 -1.78125 20.78125 -0.8125 C 19.0625 0.15625 17.070312 0.640625 14.8125 0.640625 Z M 14.8125 0.640625 "/></g></g></g><g fill="#ffffff" fill-opacity="1"><g transform="translate(108.552317, 105.692727)"><g><path d="M 2.859375 -31.140625 L 11.640625 -31.140625 L 11.640625 -25.96875 C 12.710938 -27.875 13.75 -29.273438 14.75 -30.171875 C 15.757812 -31.066406 16.945312 -31.515625 18.3125 -31.515625 C 18.820312 -31.515625 19.273438 -31.460938 19.671875 -31.359375 L 19.671875 -22.625 C 18.585938 -23.0625 17.632812 -23.28125 16.8125 -23.28125 C 14.90625 -23.28125 13.179688 -22.269531 11.640625 -20.25 L 11.640625 0 L 2.859375 0 Z M 2.859375 -31.140625 "/></g></g></g><g fill="#ffffff" fill-opacity="1"><g transform="translate(129.182623, 105.692727)"><g/></g></g><g fill="#ffffff" fill-opacity="1"><g transform="translate(142.972071, 105.692727)"><g><path d="M 3.234375 -43.640625 L 10.015625 -43.640625 L 18.96875 -22.625 L 18.96875 -43.640625 L 26.9375 -43.640625 L 26.9375 0 L 20.421875 0 L 11.46875 -22.625 L 11.46875 0 L 3.234375 0 Z M 3.234375 -43.640625 "/></g></g></g><g fill="#ffffff" fill-opacity="1"><g transform="translate(173.190356, 105.692727)"><g><path d="M 12.984375 0.53125 C 9.566406 0.53125 6.894531 -0.328125 4.96875 -2.046875 C 3.050781 -3.773438 2.09375 -6.304688 2.09375 -9.640625 L 2.09375 -21.5 C 2.09375 -24.832031 3.050781 -27.359375 4.96875 -29.078125 C 6.894531 -30.804688 9.566406 -31.671875 12.984375 -31.671875 C 16.398438 -31.671875 19.078125 -30.800781 21.015625 -29.0625 C 22.953125 -27.320312 23.921875 -24.800781 23.921875 -21.5 L 23.921875 -9.640625 C 23.921875 -6.335938 22.953125 -3.816406 21.015625 -2.078125 C 19.078125 -0.335938 16.398438 0.53125 12.984375 0.53125 Z M 13.03125 -5.28125 C 13.863281 -5.28125 14.441406 -5.59375 14.765625 -6.21875 C 15.085938 -6.851562 15.25 -7.796875 15.25 -9.046875 L 15.25 -22.09375 C 15.25 -23.34375 15.085938 -24.28125 14.765625 -24.90625 C 14.441406 -25.539062 13.863281 -25.859375 13.03125 -25.859375 C 12.207031 -25.859375 11.625 -25.535156 11.28125 -24.890625 C 10.945312 -24.242188 10.78125 -23.3125 10.78125 -22.09375 L 10.78125 -9.046875 C 10.78125 -7.796875 10.945312 -6.851562 11.28125 -6.21875 C 11.625 -5.59375 12.207031 -5.28125 13.03125 -5.28125 Z M 13.03125 -5.28125 "/></g></g></g><g fill="#ffffff" fill-opacity="1"><g transform="translate(415.329833, 105.692727)"><g><path d="M 14.8125 0.640625 C 10.644531 0.640625 7.546875 -0.460938 5.515625 -2.671875 C 3.492188 -4.878906 2.410156 -8.390625 2.265625 -13.203125 L 10.5 -14.4375 C 10.539062 -11.675781 10.875 -9.691406 11.5 -8.484375 C 12.125 -7.285156 13.066406 -6.6875 14.328125 -6.6875 C 15.941406 -6.6875 16.75 -7.742188 16.75 -9.859375 C 16.75 -11.546875 16.363281 -13 15.59375 -14.21875 C 14.820312 -15.445312 13.609375 -16.757812 11.953125 -18.15625 L 8.1875 -21.4375 C 6.320312 -23.019531 4.875 -24.695312 3.84375 -26.46875 C 2.820312 -28.25 2.3125 -30.363281 2.3125 -32.8125 C 2.3125 -36.476562 3.394531 -39.296875 5.5625 -41.265625 C 7.738281 -43.242188 10.734375 -44.234375 14.546875 -44.234375 C 18.671875 -44.234375 21.476562 -43.03125 22.96875 -40.625 C 24.46875 -38.21875 25.269531 -35.289062 25.375 -31.84375 L 17.078125 -30.8125 C 17.003906 -33.070312 16.796875 -34.695312 16.453125 -35.6875 C 16.117188 -36.675781 15.375 -37.171875 14.21875 -37.171875 C 13.394531 -37.171875 12.757812 -36.820312 12.3125 -36.125 C 11.863281 -35.425781 11.640625 -34.644531 11.640625 -33.78125 C 11.640625 -32.3125 11.96875 -31.070312 12.625 -30.0625 C 13.289062 -29.050781 14.363281 -27.898438 15.84375 -26.609375 L 19.453125 -23.4375 C 21.609375 -21.601562 23.273438 -19.660156 24.453125 -17.609375 C 25.640625 -15.566406 26.234375 -13.144531 26.234375 -10.34375 C 26.234375 -8.289062 25.753906 -6.429688 24.796875 -4.765625 C 23.847656 -3.097656 22.507812 -1.78125 20.78125 -0.8125 C 19.0625 0.15625 17.070312 0.640625 14.8125 0.640625 Z M 14.8125 0.640625 "/></g></g></g><g fill="#ffffff" fill-opacity="1"><g transform="translate(443.016463, 105.692727)"><g><path d="M 2.75 -42.5 L 11.578125 -42.5 L 11.578125 -36.421875 L 2.75 -36.421875 Z M 2.796875 -31.140625 L 11.578125 -31.140625 L 11.578125 0 L 2.796875 0 Z M 2.796875 -31.140625 "/></g></g></g><g fill="#ffffff" fill-opacity="1"><g transform="translate(457.290694, 105.692727)"><g><path d="M 1.890625 -5.65625 L 10.453125 -24.734375 L 2.53125 -24.734375 L 2.53125 -31.140625 L 19.609375 -31.140625 L 19.609375 -25.8125 L 10.9375 -6.40625 L 19.71875 -6.40625 L 19.71875 0 L 1.890625 0 Z M 1.890625 -5.65625 "/></g></g></g><g fill="#ffffff" fill-opacity="1"><g transform="translate(478.405792, 105.692727)"><g><path d="M 12.9375 0.53125 C 9.519531 0.53125 6.859375 -0.375 4.953125 -2.1875 C 3.046875 -4 2.09375 -6.554688 2.09375 -9.859375 L 2.09375 -21.28125 C 2.09375 -24.582031 3.046875 -27.140625 4.953125 -28.953125 C 6.859375 -30.765625 9.519531 -31.671875 12.9375 -31.671875 C 16.382812 -31.671875 18.96875 -30.789062 20.6875 -29.03125 C 22.414062 -27.28125 23.28125 -24.695312 23.28125 -21.28125 L 23.28125 -15.03125 L 10.78125 -15.03125 L 10.78125 -9.046875 C 10.78125 -6.816406 11.5 -5.703125 12.9375 -5.703125 C 14.4375 -5.703125 15.1875 -6.710938 15.1875 -8.734375 L 15.1875 -12.015625 L 23.28125 -12.015625 L 23.28125 -9 C 23.28125 -5.875 22.367188 -3.503906 20.546875 -1.890625 C 18.734375 -0.273438 16.195312 0.53125 12.9375 0.53125 Z M 15.1875 -19.125 L 15.1875 -22.25 C 15.1875 -23.394531 14.976562 -24.207031 14.5625 -24.6875 C 14.15625 -25.175781 13.59375 -25.421875 12.875 -25.421875 C 12.195312 -25.421875 11.675781 -25.148438 11.3125 -24.609375 C 10.957031 -24.078125 10.78125 -23.128906 10.78125 -21.765625 L 10.78125 -19.125 Z M 15.1875 -19.125 "/></g></g></g><g fill="#ffffff" fill-opacity="1"><g transform="translate(503.72236, 105.692727)"><g/></g></g><g fill="#ffffff" fill-opacity="1"><g transform="translate(517.511808, 105.692727)"><g><path d="M 16.328125 9.640625 C 12.585938 9.640625 9.773438 8.453125 7.890625 6.078125 C 6.003906 3.710938 4.773438 0.664062 4.203125 -3.0625 C 3.628906 -6.800781 3.34375 -11.457031 3.34375 -17.03125 C 3.34375 -22.914062 3.617188 -27.742188 4.171875 -31.515625 C 4.734375 -35.285156 5.960938 -38.328125 7.859375 -40.640625 C 9.765625 -42.960938 12.585938 -44.125 16.328125 -44.125 L 16.328125 -37.984375 C 14.992188 -37.984375 13.976562 -37.191406 13.28125 -35.609375 C 12.582031 -34.023438 12.097656 -31.742188 11.828125 -28.765625 C 11.554688 -25.785156 11.421875 -21.875 11.421875 -17.03125 C 11.421875 -12.25 11.5625 -8.382812 11.84375 -5.4375 C 12.132812 -2.5 12.640625 -0.285156 13.359375 1.203125 C 14.078125 2.703125 15.066406 3.453125 16.328125 3.453125 Z M 16.328125 9.640625 "/></g></g></g><g fill="#ffffff" fill-opacity="1"><g transform="translate(535.718193, 105.692727)"><g><path d="M 14.8125 0.640625 C 10.644531 0.640625 7.546875 -0.460938 5.515625 -2.671875 C 3.492188 -4.878906 2.410156 -8.390625 2.265625 -13.203125 L 10.5 -14.4375 C 10.539062 -11.675781 10.875 -9.691406 11.5 -8.484375 C 12.125 -7.285156 13.066406 -6.6875 14.328125 -6.6875 C 15.941406 -6.6875 16.75 -7.742188 16.75 -9.859375 C 16.75 -11.546875 16.363281 -13 15.59375 -14.21875 C 14.820312 -15.445312 13.609375 -16.757812 11.953125 -18.15625 L 8.1875 -21.4375 C 6.320312 -23.019531 4.875 -24.695312 3.84375 -26.46875 C 2.820312 -28.25 2.3125 -30.363281 2.3125 -32.8125 C 2.3125 -36.476562 3.394531 -39.296875 5.5625 -41.265625 C 7.738281 -43.242188 10.734375 -44.234375 14.546875 -44.234375 C 18.671875 -44.234375 21.476562 -43.03125 22.96875 -40.625 C 24.46875 -38.21875 25.269531 -35.289062 25.375 -31.84375 L 17.078125 -30.8125 C 17.003906 -33.070312 16.796875 -34.695312 16.453125 -35.6875 C 16.117188 -36.675781 15.375 -37.171875 14.21875 -37.171875 C 13.394531 -37.171875 12.757812 -36.820312 12.3125 -36.125 C 11.863281 -35.425781 11.640625 -34.644531 11.640625 -33.78125 C 11.640625 -32.3125 11.96875 -31.070312 12.625 -30.0625 C 13.289062 -29.050781 14.363281 -27.898438 15.84375 -26.609375 L 19.453125 -23.4375 C 21.609375 -21.601562 23.273438 -19.660156 24.453125 -17.609375 C 25.640625 -15.566406 26.234375 -13.144531 26.234375 -10.34375 C 26.234375 -8.289062 25.753906 -6.429688 24.796875 -4.765625 C 23.847656 -3.097656 22.507812 -1.78125 20.78125 -0.8125 C 19.0625 0.15625 17.070312 0.640625 14.8125 0.640625 Z M 14.8125 0.640625 "/></g></g></g><g fill="#ffffff" fill-opacity="1"><g transform="translate(563.404824, 105.692727)"><g><path d="M 12.984375 0.53125 C 9.566406 0.53125 6.894531 -0.328125 4.96875 -2.046875 C 3.050781 -3.773438 2.09375 -6.304688 2.09375 -9.640625 L 2.09375 -21.5 C 2.09375 -24.832031 3.050781 -27.359375 4.96875 -29.078125 C 6.894531 -30.804688 9.566406 -31.671875 12.984375 -31.671875 C 16.398438 -31.671875 19.078125 -30.800781 21.015625 -29.0625 C 22.953125 -27.320312 23.921875 -24.800781 23.921875 -21.5 L 23.921875 -9.640625 C 23.921875 -6.335938 22.953125 -3.816406 21.015625 -2.078125 C 19.078125 -0.335938 16.398438 0.53125 12.984375 0.53125 Z M 13.03125 -5.28125 C 13.863281 -5.28125 14.441406 -5.59375 14.765625 -6.21875 C 15.085938 -6.851562 15.25 -7.796875 15.25 -9.046875 L 15.25 -22.09375 C 15.25 -23.34375 15.085938 -24.28125 14.765625 -24.90625 C 14.441406 -25.539062 13.863281 -25.859375 13.03125 -25.859375 C 12.207031 -25.859375 11.625 -25.535156 11.28125 -24.890625 C 10.945312 -24.242188 10.78125 -23.3125 10.78125 -22.09375 L 10.78125 -9.046875 C 10.78125 -7.796875 10.945312 -6.851562 11.28125 -6.21875 C 11.625 -5.59375 12.207031 -5.28125 13.03125 -5.28125 Z M 13.03125 -5.28125 "/></g></g></g><g fill="#ffffff" fill-opacity="1"><g transform="translate(589.421631, 105.692727)"><g><path d="M 12.875 0.53125 C 9.5 0.53125 6.859375 -0.378906 4.953125 -2.203125 C 3.046875 -4.035156 2.09375 -6.585938 2.09375 -9.859375 L 2.09375 -21.28125 C 2.09375 -24.582031 3.035156 -27.140625 4.921875 -28.953125 C 6.816406 -30.765625 9.46875 -31.671875 12.875 -31.671875 C 16.25 -31.671875 18.84375 -30.878906 20.65625 -29.296875 C 22.46875 -27.722656 23.375 -25.390625 23.375 -22.296875 L 23.375 -19.015625 L 14.921875 -19.015625 L 14.921875 -22.578125 C 14.921875 -23.753906 14.75 -24.566406 14.40625 -25.015625 C 14.070312 -25.472656 13.5625 -25.703125 12.875 -25.703125 C 12.195312 -25.703125 11.703125 -25.421875 11.390625 -24.859375 C 11.085938 -24.304688 10.9375 -23.363281 10.9375 -22.03125 L 10.9375 -9.109375 C 10.9375 -7.773438 11.097656 -6.835938 11.421875 -6.296875 C 11.742188 -5.765625 12.25 -5.5 12.9375 -5.5 C 13.613281 -5.5 14.113281 -5.726562 14.4375 -6.1875 C 14.757812 -6.65625 14.921875 -7.445312 14.921875 -8.5625 L 14.921875 -12.71875 L 23.375 -12.71875 L 23.375 -8.9375 C 23.375 -5.851562 22.457031 -3.503906 20.625 -1.890625 C 18.800781 -0.273438 16.21875 0.53125 12.875 0.53125 Z M 12.875 0.53125 "/></g></g></g><g fill="#ffffff" fill-opacity="1"><g transform="translate(614.630474, 105.692727)"><g><path d="M 2.75 -43.640625 L 11.46875 -43.640625 L 11.46875 -19.453125 L 19.125 -31.140625 L 28.984375 -31.140625 L 20.6875 -18.375 L 28.875 0 L 19.28125 0 L 13.796875 -14.8125 L 11.46875 -11.859375 L 11.46875 0 L 2.75 0 Z M 2.75 -43.640625 "/></g></g></g><g fill="#ffffff" fill-opacity="1"><g transform="translate(643.771462, 105.692727)"><g><path d="M 12.9375 0.53125 C 9.519531 0.53125 6.859375 -0.375 4.953125 -2.1875 C 3.046875 -4 2.09375 -6.554688 2.09375 -9.859375 L 2.09375 -21.28125 C 2.09375 -24.582031 3.046875 -27.140625 4.953125 -28.953125 C 6.859375 -30.765625 9.519531 -31.671875 12.9375 -31.671875 C 16.382812 -31.671875 18.96875 -30.789062 20.6875 -29.03125 C 22.414062 -27.28125 23.28125 -24.695312 23.28125 -21.28125 L 23.28125 -15.03125 L 10.78125 -15.03125 L 10.78125 -9.046875 C 10.78125 -6.816406 11.5 -5.703125 12.9375 -5.703125 C 14.4375 -5.703125 15.1875 -6.710938 15.1875 -8.734375 L 15.1875 -12.015625 L 23.28125 -12.015625 L 23.28125 -9 C 23.28125 -5.875 22.367188 -3.503906 20.546875 -1.890625 C 18.734375 -0.273438 16.195312 0.53125 12.9375 0.53125 Z M 15.1875 -19.125 L 15.1875 -22.25 C 15.1875 -23.394531 14.976562 -24.207031 14.5625 -24.6875 C 14.15625 -25.175781 13.59375 -25.421875 12.875 -25.421875 C 12.195312 -25.421875 11.675781 -25.148438 11.3125 -24.609375 C 10.957031 -24.078125 10.78125 -23.128906 10.78125 -21.765625 L 10.78125 -19.125 Z M 15.1875 -19.125 "/></g></g></g><g fill="#ffffff" fill-opacity="1"><g transform="translate(669.088029, 105.692727)"><g><path d="M 12.390625 0.328125 C 10.085938 0.328125 8.304688 -0.00390625 7.046875 -0.671875 C 5.796875 -1.335938 4.914062 -2.296875 4.40625 -3.546875 C 3.90625 -4.804688 3.65625 -6.441406 3.65625 -8.453125 L 3.65625 -25.375 L 0.640625 -25.375 L 0.640625 -31.140625 L 3.65625 -31.140625 L 3.65625 -40.625 L 12.546875 -40.625 L 12.546875 -31.140625 L 16.96875 -31.140625 L 16.96875 -25.375 L 12.546875 -25.375 L 12.546875 -9.328125 C 12.546875 -8.460938 12.785156 -7.820312 13.265625 -7.40625 C 13.753906 -6.988281 14.429688 -6.78125 15.296875 -6.78125 C 16.015625 -6.78125 16.804688 -6.851562 17.671875 -7 L 17.671875 -0.109375 C 15.941406 0.179688 14.179688 0.328125 12.390625 0.328125 Z M 12.390625 0.328125 "/></g></g></g><g fill="#ffffff" fill-opacity="1"><g transform="translate(688.156255, 105.692727)"><g><path d="M 1.890625 3.453125 C 3.140625 3.453125 4.113281 2.695312 4.8125 1.1875 C 5.519531 -0.320312 6.015625 -2.539062 6.296875 -5.46875 C 6.585938 -8.394531 6.734375 -12.265625 6.734375 -17.078125 C 6.734375 -21.960938 6.609375 -25.882812 6.359375 -28.84375 C 6.109375 -31.8125 5.628906 -34.078125 4.921875 -35.640625 C 4.222656 -37.203125 3.210938 -37.984375 1.890625 -37.984375 L 1.890625 -44.125 C 5.617188 -44.125 8.4375 -42.972656 10.34375 -40.671875 C 12.25 -38.378906 13.476562 -35.34375 14.03125 -31.5625 C 14.59375 -27.789062 14.875 -22.960938 14.875 -17.078125 C 14.875 -11.515625 14.582031 -6.851562 14 -3.09375 C 13.425781 0.65625 12.195312 3.710938 10.3125 6.078125 C 8.425781 8.453125 5.617188 9.640625 1.890625 9.640625 Z M 1.890625 3.453125 "/></g></g></g><g fill="#000000" fill-opacity="1"><g transform="translate(129.562683, 301.037775)"><g><path d="M 7.171875 -34.75 C 6.773438 -34.53125 5.734375 -34.0625 4.046875 -33.34375 C 3.753906 -33.238281 3.300781 -33.0625 2.6875 -32.8125 C 2.082031 -32.5625 1.582031 -32.328125 1.1875 -32.109375 L 1.1875 -38.796875 C 5.5 -41.015625 8.140625 -42.628906 9.109375 -43.640625 L 16.15625 -43.640625 L 16.15625 0 L 7.171875 0 Z M 7.171875 -34.75 "/></g></g></g><g fill="#000000" fill-opacity="1"><g transform="translate(498.559479, 301.037775)"><g><path d="M 7.171875 -34.75 C 6.773438 -34.53125 5.734375 -34.0625 4.046875 -33.34375 C 3.753906 -33.238281 3.300781 -33.0625 2.6875 -32.8125 C 2.082031 -32.5625 1.582031 -32.328125 1.1875 -32.109375 L 1.1875 -38.796875 C 5.5 -41.015625 8.140625 -42.628906 9.109375 -43.640625 L 16.15625 -43.640625 L 16.15625 0 L 7.171875 0 Z M 7.171875 -34.75 "/></g></g></g><g fill="#000000" fill-opacity="1"><g transform="translate(519.512976, 301.037775)"><g><path d="M 13.734375 0.8125 C 10.648438 0.8125 8.28125 0.265625 6.625 -0.828125 C 4.96875 -1.929688 3.832031 -3.453125 3.21875 -5.390625 C 2.613281 -7.328125 2.3125 -9.785156 2.3125 -12.765625 L 10.984375 -12.765625 C 10.984375 -10.210938 11.191406 -8.425781 11.609375 -7.40625 C 12.023438 -6.382812 12.84375 -5.875 14.0625 -5.875 C 15.03125 -5.875 15.738281 -6.203125 16.1875 -6.859375 C 16.632812 -7.523438 16.910156 -8.457031 17.015625 -9.65625 C 17.128906 -10.863281 17.1875 -12.640625 17.1875 -14.984375 C 17.1875 -17.421875 16.953125 -19.273438 16.484375 -20.546875 C 16.015625 -21.828125 15.117188 -22.46875 13.796875 -22.46875 C 11.960938 -22.46875 10.8125 -21.140625 10.34375 -18.484375 L 2.59375 -18.484375 L 3.390625 -43.640625 L 23.765625 -43.640625 L 23.765625 -36.09375 L 10.609375 -36.09375 L 10.125 -27.09375 C 10.519531 -27.675781 11.351562 -28.171875 12.625 -28.578125 C 13.90625 -28.992188 15.210938 -29.203125 16.546875 -29.203125 C 19.484375 -29.203125 21.734375 -27.976562 23.296875 -25.53125 C 24.859375 -23.09375 25.640625 -19.644531 25.640625 -15.1875 C 25.640625 -11.707031 25.332031 -8.828125 24.71875 -6.546875 C 24.113281 -4.265625 22.945312 -2.46875 21.21875 -1.15625 C 19.5 0.15625 17.003906 0.8125 13.734375 0.8125 Z M 13.734375 0.8125 "/></g></g></g><g fill="#000000" fill-opacity="1"><g transform="translate(546.930282, 301.037775)"><g/></g></g><g fill="#000000" fill-opacity="1"><g transform="translate(560.71973, 301.037775)"><g><path d="M 3.234375 -43.640625 L 10.015625 -43.640625 L 18.96875 -22.625 L 18.96875 -43.640625 L 26.9375 -43.640625 L 26.9375 0 L 20.421875 0 L 11.46875 -22.625 L 11.46875 0 L 3.234375 0 Z M 3.234375 -43.640625 "/></g></g></g><g fill="#000000" fill-opacity="1"><g transform="translate(590.938016, 301.037775)"><g><path d="M 3.234375 -43.640625 L 14.59375 -43.640625 C 17.4375 -43.640625 19.851562 -43.34375 21.84375 -42.75 C 23.84375 -42.15625 25.453125 -41.015625 26.671875 -39.328125 C 27.890625 -37.640625 28.5 -35.269531 28.5 -32.21875 C 28.5 -29.632812 27.941406 -27.625 26.828125 -26.1875 C 25.710938 -24.75 24.132812 -23.832031 22.09375 -23.4375 C 24.601562 -23.113281 26.519531 -22.050781 27.84375 -20.25 C 29.175781 -18.457031 29.84375 -16.019531 29.84375 -12.9375 C 29.84375 -4.3125 25.441406 0 16.640625 0 L 3.234375 0 Z M 14.765625 -26.1875 C 16.804688 -26.1875 18.195312 -26.648438 18.9375 -27.578125 C 19.675781 -28.515625 20.046875 -29.972656 20.046875 -31.953125 C 20.046875 -33.671875 19.578125 -34.96875 18.640625 -35.84375 C 17.703125 -36.726562 16.335938 -37.171875 14.546875 -37.171875 L 12.875 -37.171875 L 12.875 -26.1875 Z M 14.921875 -6.734375 C 16.972656 -6.734375 18.421875 -7.242188 19.265625 -8.265625 C 20.109375 -9.296875 20.53125 -10.90625 20.53125 -13.09375 C 20.53125 -15.570312 20.109375 -17.3125 19.265625 -18.3125 C 18.421875 -19.320312 16.957031 -19.828125 14.875 -19.828125 L 12.875 -19.828125 L 12.875 -6.734375 Z M 14.921875 -6.734375 "/></g></g></g><g fill="#000000" fill-opacity="1"><g transform="translate(126.196116, 496.382828)"><g><path d="M 2.203125 -6.359375 L 12.65625 -22.40625 L 13.3125 -23.375 C 14.675781 -25.425781 15.679688 -27.140625 16.328125 -28.515625 C 16.972656 -29.898438 17.296875 -31.347656 17.296875 -32.859375 C 17.296875 -34.085938 17.050781 -35.015625 16.5625 -35.640625 C 16.082031 -36.265625 15.394531 -36.578125 14.5 -36.578125 C 13.125 -36.578125 12.164062 -36.046875 11.625 -34.984375 C 11.09375 -33.929688 10.828125 -32.46875 10.828125 -30.59375 L 10.828125 -28.453125 L 2.09375 -28.453125 L 2.09375 -30.765625 C 2.09375 -34.859375 3.085938 -38.125 5.078125 -40.5625 C 7.078125 -43.007812 10.160156 -44.234375 14.328125 -44.234375 C 18.171875 -44.234375 21.109375 -43.226562 23.140625 -41.21875 C 25.171875 -39.207031 26.1875 -36.367188 26.1875 -32.703125 C 26.1875 -31.046875 25.925781 -29.484375 25.40625 -28.015625 C 24.882812 -26.546875 24.265625 -25.21875 23.546875 -24.03125 C 22.828125 -22.84375 21.710938 -21.15625 20.203125 -18.96875 L 12.234375 -7.0625 L 25 -7.0625 L 25 0 L 2.203125 0 Z M 2.203125 -6.359375 "/></g></g></g><g fill="#000000" fill-opacity="1"><g transform="translate(494.089485, 496.382828)"><g><path d="M 2.203125 -6.359375 L 12.65625 -22.40625 L 13.3125 -23.375 C 14.675781 -25.425781 15.679688 -27.140625 16.328125 -28.515625 C 16.972656 -29.898438 17.296875 -31.347656 17.296875 -32.859375 C 17.296875 -34.085938 17.050781 -35.015625 16.5625 -35.640625 C 16.082031 -36.265625 15.394531 -36.578125 14.5 -36.578125 C 13.125 -36.578125 12.164062 -36.046875 11.625 -34.984375 C 11.09375 -33.929688 10.828125 -32.46875 10.828125 -30.59375 L 10.828125 -28.453125 L 2.09375 -28.453125 L 2.09375 -30.765625 C 2.09375 -34.859375 3.085938 -38.125 5.078125 -40.5625 C 7.078125 -43.007812 10.160156 -44.234375 14.328125 -44.234375 C 18.171875 -44.234375 21.109375 -43.226562 23.140625 -41.21875 C 25.171875 -39.207031 26.1875 -36.367188 26.1875 -32.703125 C 26.1875 -31.046875 25.925781 -29.484375 25.40625 -28.015625 C 24.882812 -26.546875 24.265625 -25.21875 23.546875 -24.03125 C 22.828125 -22.84375 21.710938 -21.15625 20.203125 -18.96875 L 12.234375 -7.0625 L 25 -7.0625 L 25 0 L 2.203125 0 Z M 2.203125 -6.359375 "/></g></g></g><g fill="#000000" fill-opacity="1"><g transform="translate(521.776116, 496.382828)"><g><path d="M 14.8125 0.8125 C 10.96875 0.8125 8.019531 -0.316406 5.96875 -2.578125 C 3.925781 -4.847656 2.90625 -7.882812 2.90625 -11.6875 L 2.90625 -31.46875 C 2.90625 -35.445312 3.898438 -38.578125 5.890625 -40.859375 C 7.890625 -43.140625 10.863281 -44.28125 14.8125 -44.28125 C 18.757812 -44.28125 21.722656 -43.140625 23.703125 -40.859375 C 25.679688 -38.578125 26.671875 -35.445312 26.671875 -31.46875 L 26.671875 -11.6875 C 26.671875 -7.914062 25.632812 -4.890625 23.5625 -2.609375 C 21.5 -0.328125 18.582031 0.8125 14.8125 0.8125 Z M 14.8125 -7.21875 C 15.925781 -7.21875 16.65625 -7.679688 17 -8.609375 C 17.34375 -9.546875 17.515625 -10.644531 17.515625 -11.90625 L 17.515625 -31.25 C 17.515625 -32.6875 17.359375 -33.878906 17.046875 -34.828125 C 16.742188 -35.785156 16 -36.265625 14.8125 -36.265625 C 13.625 -36.265625 12.878906 -35.796875 12.578125 -34.859375 C 12.273438 -33.921875 12.125 -32.71875 12.125 -31.25 L 12.125 -11.90625 C 12.125 -8.78125 13.019531 -7.21875 14.8125 -7.21875 Z M 14.8125 -7.21875 "/></g></g></g><g fill="#000000" fill-opacity="1"><g transform="translate(551.401886, 496.382828)"><g/></g></g><g fill="#000000" fill-opacity="1"><g transform="translate(565.191334, 496.382828)"><g><path d="M 3.234375 -43.640625 L 10.015625 -43.640625 L 18.96875 -22.625 L 18.96875 -43.640625 L 26.9375 -43.640625 L 26.9375 0 L 20.421875 0 L 11.46875 -22.625 L 11.46875 0 L 3.234375 0 Z M 3.234375 -43.640625 "/></g></g></g><g fill="#000000" fill-opacity="1"><g transform="translate(595.40962, 496.382828)"><g><path d="M 3.234375 -43.640625 L 14.59375 -43.640625 C 17.4375 -43.640625 19.851562 -43.34375 21.84375 -42.75 C 23.84375 -42.15625 25.453125 -41.015625 26.671875 -39.328125 C 27.890625 -37.640625 28.5 -35.269531 28.5 -32.21875 C 28.5 -29.632812 27.941406 -27.625 26.828125 -26.1875 C 25.710938 -24.75 24.132812 -23.832031 22.09375 -23.4375 C 24.601562 -23.113281 26.519531 -22.050781 27.84375 -20.25 C 29.175781 -18.457031 29.84375 -16.019531 29.84375 -12.9375 C 29.84375 -4.3125 25.441406 0 16.640625 0 L 3.234375 0 Z M 14.765625 -26.1875 C 16.804688 -26.1875 18.195312 -26.648438 18.9375 -27.578125 C 19.675781 -28.515625 20.046875 -29.972656 20.046875 -31.953125 C 20.046875 -33.671875 19.578125 -34.96875 18.640625 -35.84375 C 17.703125 -36.726562 16.335938 -37.171875 14.546875 -37.171875 L 12.875 -37.171875 L 12.875 -26.1875 Z M 14.921875 -6.734375 C 16.972656 -6.734375 18.421875 -7.242188 19.265625 -8.265625 C 20.109375 -9.296875 20.53125 -10.90625 20.53125 -13.09375 C 20.53125 -15.570312 20.109375 -17.3125 19.265625 -18.3125 C 18.421875 -19.320312 16.957031 -19.828125 14.875 -19.828125 L 12.875 -19.828125 L 12.875 -6.734375 Z M 14.921875 -6.734375 "/></g></g></g><g fill="#000000" fill-opacity="1"><g transform="translate(126.196116, 691.727866)"><g><path d="M 14.0625 0.8125 C 9.71875 0.8125 6.628906 -0.367188 4.796875 -2.734375 C 2.960938 -5.109375 2.046875 -8.488281 2.046875 -12.875 L 2.046875 -14.4375 L 11.046875 -14.4375 L 11.046875 -12.875 C 11.046875 -10.644531 11.269531 -9.070312 11.71875 -8.15625 C 12.164062 -7.238281 13 -6.78125 14.21875 -6.78125 C 15.375 -6.78125 16.144531 -7.226562 16.53125 -8.125 C 16.925781 -9.03125 17.125 -10.523438 17.125 -12.609375 C 17.125 -14.910156 16.800781 -16.585938 16.15625 -17.640625 C 15.507812 -18.703125 14.304688 -19.25 12.546875 -19.28125 L 10.875 -19.28125 L 10.875 -25.484375 L 12.34375 -25.484375 C 14.164062 -25.484375 15.414062 -25.976562 16.09375 -26.96875 C 16.78125 -27.957031 17.125 -29.597656 17.125 -31.890625 C 17.125 -33.648438 16.890625 -34.960938 16.421875 -35.828125 C 15.960938 -36.691406 15.140625 -37.125 13.953125 -37.125 C 12.835938 -37.125 12.070312 -36.664062 11.65625 -35.75 C 11.25 -34.832031 11.046875 -33.492188 11.046875 -31.734375 L 11.046875 -29.46875 L 2.046875 -29.46875 L 2.046875 -32.109375 C 2.046875 -36.023438 3.09375 -39.03125 5.1875 -41.125 C 7.289062 -43.226562 10.210938 -44.28125 13.953125 -44.28125 C 17.765625 -44.28125 20.726562 -43.273438 22.84375 -41.265625 C 24.957031 -39.253906 26.015625 -36.328125 26.015625 -32.484375 C 26.015625 -30.003906 25.507812 -27.894531 24.5 -26.15625 C 23.5 -24.414062 22.226562 -23.328125 20.6875 -22.890625 C 22.34375 -22.285156 23.644531 -21.191406 24.59375 -19.609375 C 25.539062 -18.023438 26.015625 -15.765625 26.015625 -12.828125 C 26.015625 -8.585938 25.0625 -5.253906 23.15625 -2.828125 C 21.257812 -0.398438 18.226562 0.8125 14.0625 0.8125 Z M 14.0625 0.8125 "/></g></g></g><g fill="#000000" fill-opacity="1"><g transform="translate(495.192908, 691.727866)"><g><path d="M 2.203125 -6.359375 L 12.65625 -22.40625 L 13.3125 -23.375 C 14.675781 -25.425781 15.679688 -27.140625 16.328125 -28.515625 C 16.972656 -29.898438 17.296875 -31.347656 17.296875 -32.859375 C 17.296875 -34.085938 17.050781 -35.015625 16.5625 -35.640625 C 16.082031 -36.265625 15.394531 -36.578125 14.5 -36.578125 C 13.125 -36.578125 12.164062 -36.046875 11.625 -34.984375 C 11.09375 -33.929688 10.828125 -32.46875 10.828125 -30.59375 L 10.828125 -28.453125 L 2.09375 -28.453125 L 2.09375 -30.765625 C 2.09375 -34.859375 3.085938 -38.125 5.078125 -40.5625 C 7.078125 -43.007812 10.160156 -44.234375 14.328125 -44.234375 C 18.171875 -44.234375 21.109375 -43.226562 23.140625 -41.21875 C 25.171875 -39.207031 26.1875 -36.367188 26.1875 -32.703125 C 26.1875 -31.046875 25.925781 -29.484375 25.40625 -28.015625 C 24.882812 -26.546875 24.265625 -25.21875 23.546875 -24.03125 C 22.828125 -22.84375 21.710938 -21.15625 20.203125 -18.96875 L 12.234375 -7.0625 L 25 -7.0625 L 25 0 L 2.203125 0 Z M 2.203125 -6.359375 "/></g></g></g><g fill="#000000" fill-opacity="1"><g transform="translate(522.879539, 691.727866)"><g><path d="M 13.734375 0.8125 C 10.648438 0.8125 8.28125 0.265625 6.625 -0.828125 C 4.96875 -1.929688 3.832031 -3.453125 3.21875 -5.390625 C 2.613281 -7.328125 2.3125 -9.785156 2.3125 -12.765625 L 10.984375 -12.765625 C 10.984375 -10.210938 11.191406 -8.425781 11.609375 -7.40625 C 12.023438 -6.382812 12.84375 -5.875 14.0625 -5.875 C 15.03125 -5.875 15.738281 -6.203125 16.1875 -6.859375 C 16.632812 -7.523438 16.910156 -8.457031 17.015625 -9.65625 C 17.128906 -10.863281 17.1875 -12.640625 17.1875 -14.984375 C 17.1875 -17.421875 16.953125 -19.273438 16.484375 -20.546875 C 16.015625 -21.828125 15.117188 -22.46875 13.796875 -22.46875 C 11.960938 -22.46875 10.8125 -21.140625 10.34375 -18.484375 L 2.59375 -18.484375 L 3.390625 -43.640625 L 23.765625 -43.640625 L 23.765625 -36.09375 L 10.609375 -36.09375 L 10.125 -27.09375 C 10.519531 -27.675781 11.351562 -28.171875 12.625 -28.578125 C 13.90625 -28.992188 15.210938 -29.203125 16.546875 -29.203125 C 19.484375 -29.203125 21.734375 -27.976562 23.296875 -25.53125 C 24.859375 -23.09375 25.640625 -19.644531 25.640625 -15.1875 C 25.640625 -11.707031 25.332031 -8.828125 24.71875 -6.546875 C 24.113281 -4.265625 22.945312 -2.46875 21.21875 -1.15625 C 19.5 0.15625 17.003906 0.8125 13.734375 0.8125 Z M 13.734375 0.8125 "/></g></g></g><g fill="#000000" fill-opacity="1"><g transform="translate(550.296845, 691.727866)"><g/></g></g><g fill="#000000" fill-opacity="1"><g transform="translate(564.086294, 691.727866)"><g><path d="M 3.234375 -43.640625 L 10.015625 -43.640625 L 18.96875 -22.625 L 18.96875 -43.640625 L 26.9375 -43.640625 L 26.9375 0 L 20.421875 0 L 11.46875 -22.625 L 11.46875 0 L 3.234375 0 Z M 3.234375 -43.640625 "/></g></g></g><g fill="#000000" fill-opacity="1"><g transform="translate(594.304579, 691.727866)"><g><path d="M 3.234375 -43.640625 L 14.59375 -43.640625 C 17.4375 -43.640625 19.851562 -43.34375 21.84375 -42.75 C 23.84375 -42.15625 25.453125 -41.015625 26.671875 -39.328125 C 27.890625 -37.640625 28.5 -35.269531 28.5 -32.21875 C 28.5 -29.632812 27.941406 -27.625 26.828125 -26.1875 C 25.710938 -24.75 24.132812 -23.832031 22.09375 -23.4375 C 24.601562 -23.113281 26.519531 -22.050781 27.84375 -20.25 C 29.175781 -18.457031 29.84375 -16.019531 29.84375 -12.9375 C 29.84375 -4.3125 25.441406 0 16.640625 0 L 3.234375 0 Z M 14.765625 -26.1875 C 16.804688 -26.1875 18.195312 -26.648438 18.9375 -27.578125 C 19.675781 -28.515625 20.046875 -29.972656 20.046875 -31.953125 C 20.046875 -33.671875 19.578125 -34.96875 18.640625 -35.84375 C 17.703125 -36.726562 16.335938 -37.171875 14.546875 -37.171875 L 12.875 -37.171875 L 12.875 -26.1875 Z M 14.921875 -6.734375 C 16.972656 -6.734375 18.421875 -7.242188 19.265625 -8.265625 C 20.109375 -9.296875 20.53125 -10.90625 20.53125 -13.09375 C 20.53125 -15.570312 20.109375 -17.3125 19.265625 -18.3125 C 18.421875 -19.320312 16.957031 -19.828125 14.875 -19.828125 L 12.875 -19.828125 L 12.875 -6.734375 Z M 14.921875 -6.734375 "/></g></g></g></svg>